<mxfile host="app.diagrams.net" agent="Mozilla/5.0 (Windows NT 10.0; Win64; x64) AppleWebKit/537.36 (KHTML, like Gecko) Chrome/136.0.0.0 Safari/537.36" version="26.2.14">
  <diagram name="Page-1" id="6PbHcKuEgzDeVjyXXQtX">
    <mxGraphModel dx="1090" dy="589" grid="1" gridSize="10" guides="1" tooltips="1" connect="1" arrows="1" fold="1" page="1" pageScale="1" pageWidth="1100" pageHeight="850" math="0" shadow="0">
      <root>
        <mxCell id="0" />
        <mxCell id="1" parent="0" />
        <mxCell id="-UijNQ77xzfrEZaJvv9a-11" style="edgeStyle=orthogonalEdgeStyle;rounded=0;orthogonalLoop=1;jettySize=auto;html=1;entryX=0;entryY=0.5;entryDx=0;entryDy=0;" edge="1" parent="1" source="-UijNQ77xzfrEZaJvv9a-1" target="-UijNQ77xzfrEZaJvv9a-5">
          <mxGeometry relative="1" as="geometry" />
        </mxCell>
        <mxCell id="-UijNQ77xzfrEZaJvv9a-1" value="&lt;div&gt;&lt;font style=&quot;font-size: 20px;&quot;&gt;&lt;br&gt;&lt;/font&gt;&lt;/div&gt;&lt;font style=&quot;font-size: 20px;&quot;&gt;&lt;div&gt;&lt;font style=&quot;font-size: 20px;&quot;&gt;&lt;br&gt;&lt;/font&gt;&lt;/div&gt;&lt;div&gt;&lt;font style=&quot;font-size: 20px;&quot;&gt;&lt;br&gt;&lt;/font&gt;&lt;/div&gt;&lt;div&gt;&lt;font style=&quot;font-size: 20px;&quot;&gt;&lt;br&gt;&lt;/font&gt;&lt;/div&gt;&lt;div&gt;&lt;font style=&quot;font-size: 20px;&quot;&gt;&lt;br&gt;&lt;/font&gt;&lt;/div&gt;&lt;div&gt;&lt;font style=&quot;font-size: 20px;&quot;&gt;&lt;br&gt;&lt;/font&gt;&lt;/div&gt;Data Collection&lt;/font&gt;" style="whiteSpace=wrap;html=1;aspect=fixed;" vertex="1" parent="1">
          <mxGeometry x="30" y="100" width="200" height="200" as="geometry" />
        </mxCell>
        <mxCell id="-UijNQ77xzfrEZaJvv9a-12" style="edgeStyle=orthogonalEdgeStyle;rounded=0;orthogonalLoop=1;jettySize=auto;html=1;exitX=1;exitY=0.5;exitDx=0;exitDy=0;entryX=0;entryY=0.5;entryDx=0;entryDy=0;" edge="1" parent="1" source="-UijNQ77xzfrEZaJvv9a-5" target="-UijNQ77xzfrEZaJvv9a-6">
          <mxGeometry relative="1" as="geometry" />
        </mxCell>
        <mxCell id="-UijNQ77xzfrEZaJvv9a-5" value="&lt;div&gt;&lt;br&gt;&lt;/div&gt;&lt;div&gt;&lt;div style=&quot;font-size: 20px;&quot;&gt;&lt;br&gt;&lt;/div&gt;&lt;div style=&quot;font-size: 20px;&quot;&gt;&lt;br&gt;&lt;/div&gt;&lt;div style=&quot;font-size: 20px;&quot;&gt;&lt;br&gt;&lt;/div&gt;&lt;div style=&quot;font-size: 20px;&quot;&gt;&lt;br&gt;&lt;/div&gt;&lt;div style=&quot;font-size: 20px;&quot;&gt;&lt;br&gt;&lt;/div&gt;&lt;span style=&quot;font-size: 20px;&quot;&gt;Data Cleaning and Preprocessing&lt;/span&gt;&lt;/div&gt;" style="whiteSpace=wrap;html=1;aspect=fixed;" vertex="1" parent="1">
          <mxGeometry x="310" y="100" width="200" height="200" as="geometry" />
        </mxCell>
        <mxCell id="-UijNQ77xzfrEZaJvv9a-13" style="edgeStyle=orthogonalEdgeStyle;rounded=0;orthogonalLoop=1;jettySize=auto;html=1;entryX=0;entryY=0.5;entryDx=0;entryDy=0;" edge="1" parent="1" source="-UijNQ77xzfrEZaJvv9a-6" target="-UijNQ77xzfrEZaJvv9a-7">
          <mxGeometry relative="1" as="geometry" />
        </mxCell>
        <mxCell id="-UijNQ77xzfrEZaJvv9a-6" value="&lt;div&gt;&lt;br&gt;&lt;/div&gt;&lt;div&gt;&lt;div style=&quot;font-size: 20px;&quot;&gt;&lt;br&gt;&lt;/div&gt;&lt;div style=&quot;font-size: 20px;&quot;&gt;&lt;br&gt;&lt;/div&gt;&lt;div style=&quot;font-size: 20px;&quot;&gt;&lt;br&gt;&lt;/div&gt;&lt;div style=&quot;font-size: 20px;&quot;&gt;&lt;br&gt;&lt;/div&gt;&lt;div style=&quot;font-size: 20px;&quot;&gt;&lt;br&gt;&lt;/div&gt;&lt;span style=&quot;font-size: 20px;&quot;&gt;Data Offline Loading&lt;/span&gt;&lt;/div&gt;" style="whiteSpace=wrap;html=1;aspect=fixed;" vertex="1" parent="1">
          <mxGeometry x="590" y="100" width="200" height="200" as="geometry" />
        </mxCell>
        <mxCell id="-UijNQ77xzfrEZaJvv9a-14" style="edgeStyle=orthogonalEdgeStyle;rounded=0;orthogonalLoop=1;jettySize=auto;html=1;exitX=0.5;exitY=1;exitDx=0;exitDy=0;" edge="1" parent="1" source="-UijNQ77xzfrEZaJvv9a-7" target="-UijNQ77xzfrEZaJvv9a-8">
          <mxGeometry relative="1" as="geometry" />
        </mxCell>
        <mxCell id="-UijNQ77xzfrEZaJvv9a-7" value="&lt;div&gt;&lt;br&gt;&lt;/div&gt;&lt;div&gt;&lt;div style=&quot;font-size: 20px;&quot;&gt;&lt;br&gt;&lt;/div&gt;&lt;div style=&quot;font-size: 20px;&quot;&gt;&lt;br&gt;&lt;/div&gt;&lt;div style=&quot;font-size: 20px;&quot;&gt;&lt;br&gt;&lt;/div&gt;&lt;div style=&quot;font-size: 20px;&quot;&gt;&lt;br&gt;&lt;/div&gt;&lt;div style=&quot;font-size: 20px;&quot;&gt;&lt;br&gt;&lt;/div&gt;&lt;span style=&quot;font-size: 20px;&quot;&gt;Data Online Loading&lt;/span&gt;&lt;/div&gt;" style="whiteSpace=wrap;html=1;aspect=fixed;" vertex="1" parent="1">
          <mxGeometry x="870" y="100" width="200" height="200" as="geometry" />
        </mxCell>
        <mxCell id="-UijNQ77xzfrEZaJvv9a-15" style="edgeStyle=orthogonalEdgeStyle;rounded=0;orthogonalLoop=1;jettySize=auto;html=1;entryX=1;entryY=0.5;entryDx=0;entryDy=0;" edge="1" parent="1" source="-UijNQ77xzfrEZaJvv9a-8" target="-UijNQ77xzfrEZaJvv9a-9">
          <mxGeometry relative="1" as="geometry" />
        </mxCell>
        <mxCell id="-UijNQ77xzfrEZaJvv9a-8" value="&lt;div&gt;&lt;br&gt;&lt;/div&gt;&lt;div&gt;&lt;div style=&quot;font-size: 20px;&quot;&gt;&lt;br&gt;&lt;/div&gt;&lt;div style=&quot;font-size: 20px;&quot;&gt;&lt;br&gt;&lt;/div&gt;&lt;div style=&quot;font-size: 20px;&quot;&gt;&lt;br&gt;&lt;/div&gt;&lt;div style=&quot;font-size: 20px;&quot;&gt;&lt;br&gt;&lt;/div&gt;&lt;div style=&quot;font-size: 20px;&quot;&gt;&lt;br&gt;&lt;/div&gt;&lt;span style=&quot;font-size: 20px;&quot;&gt;Data Management&lt;/span&gt;&lt;/div&gt;" style="whiteSpace=wrap;html=1;aspect=fixed;" vertex="1" parent="1">
          <mxGeometry x="770" y="510" width="200" height="200" as="geometry" />
        </mxCell>
        <mxCell id="-UijNQ77xzfrEZaJvv9a-16" style="edgeStyle=orthogonalEdgeStyle;rounded=0;orthogonalLoop=1;jettySize=auto;html=1;exitX=0;exitY=0.5;exitDx=0;exitDy=0;entryX=1;entryY=0.5;entryDx=0;entryDy=0;" edge="1" parent="1" source="-UijNQ77xzfrEZaJvv9a-9" target="-UijNQ77xzfrEZaJvv9a-10">
          <mxGeometry relative="1" as="geometry" />
        </mxCell>
        <mxCell id="-UijNQ77xzfrEZaJvv9a-9" value="&lt;div&gt;&lt;br&gt;&lt;/div&gt;&lt;div&gt;&lt;div style=&quot;font-size: 20px;&quot;&gt;&lt;br&gt;&lt;/div&gt;&lt;div style=&quot;font-size: 20px;&quot;&gt;&lt;br&gt;&lt;/div&gt;&lt;div style=&quot;font-size: 20px;&quot;&gt;&lt;br&gt;&lt;/div&gt;&lt;div style=&quot;font-size: 20px;&quot;&gt;&lt;br&gt;&lt;/div&gt;&lt;div style=&quot;font-size: 20px;&quot;&gt;&lt;br&gt;&lt;/div&gt;&lt;span style=&quot;font-size: 20px;&quot;&gt;Data Reports and Analytics&lt;/span&gt;&lt;/div&gt;" style="whiteSpace=wrap;html=1;aspect=fixed;" vertex="1" parent="1">
          <mxGeometry x="450" y="510" width="200" height="200" as="geometry" />
        </mxCell>
        <mxCell id="-UijNQ77xzfrEZaJvv9a-10" value="&lt;div&gt;&lt;br&gt;&lt;/div&gt;&lt;div&gt;&lt;div style=&quot;font-size: 20px;&quot;&gt;&lt;br&gt;&lt;/div&gt;&lt;div style=&quot;font-size: 20px;&quot;&gt;&lt;br&gt;&lt;/div&gt;&lt;div style=&quot;font-size: 20px;&quot;&gt;&lt;br&gt;&lt;/div&gt;&lt;div style=&quot;font-size: 20px;&quot;&gt;&lt;br&gt;&lt;/div&gt;&lt;div style=&quot;font-size: 20px;&quot;&gt;&lt;br&gt;&lt;/div&gt;&lt;span style=&quot;font-size: 20px;&quot;&gt;Data Presentation and Interpretation&lt;/span&gt;&lt;/div&gt;" style="whiteSpace=wrap;html=1;aspect=fixed;" vertex="1" parent="1">
          <mxGeometry x="130" y="510" width="200" height="200" as="geometry" />
        </mxCell>
        <mxCell id="-UijNQ77xzfrEZaJvv9a-17" value="" style="shape=image;verticalLabelPosition=bottom;labelBackgroundColor=default;verticalAlign=top;aspect=fixed;imageAspect=0;image=data:image/png,iVBORw0KGgoAAAANSUhEUgAAARcAAAEXCAYAAACH0wDUAAAAAXNSR0IArs4c6QAAIABJREFUeF7sfQecHWW5/lennLa7KQYDQmgiVZoFEJWOHaSJXhFsKKJYsN2rf7FhwYLXggiXKoqIKGIH7xUrAoIgokjvBJJsOW3KV/7fM5mJm7AhW85udpOZ32+zm91z5sx85Zm3PO/zUvIUh7WW4s+UUvtUr5uev+Gj18PHTs/NzMGzluM/Byetx5c8tTWQgcdGcUxtnDaKISpvshyBXo7AxgMuvRy1Xp+rBL5ej2h5vlkwAiW4zIJJKC+hHIENcQTmOLiUj/wNcVHOqXsql+Bap2uOg8ucWoblxa7HEZiLGICEyvpJpvRmouYuuMzF1dKbOdsAz7LhTOZcB4ReLq65Cy69HIXyXOUIlCPQ8xGYk+BSPh0msw42HOtgMnc/G96zsc3AnASX2bBQNq5r2Ni2xcY1u9N1t+sJXMrFOl0TWp53+kegtJzHN8brCVzGd3Hlq8oRKEdg7o5ACS6zfu5KK2/WT1GPLnB8FtH0r4defUIJLj1aGOVpyhGY6giMD1ym+ikz9/5ZCS4b2iDP3HROwyf16jE2DZe2MZ9yLuyRWQkuG/OiKe99Lo5AicBjzVoJLnNxLa+vay730Poa+Tn5uSW4zMlpKy+6HIHZPwIluExyjjbKh/hGedOTXCDl28i4wKVcUxvaSilndEOb0dl4P+MCl9l44T27pnKf9WwoyxOVIzB6BEpwKddDOQLlCEzLCPQWXEorYOqTNNfHcK5f/9RnsLdnmMPj2Vtw6e2wlmcrR6AcgTk8AiW4TNPkzQUG5TTdennacgSyESjBpVwI2QisBoZz2BQvp3P2jMCUwKV8Oj/1RK6vPbq+Pnf9L+u5cudz5TqnNqNTApepfXT57nIEyhHYkEegBJcNeXbLe+v5CGwcNsfEhm1tY1KCy8TGsXx1OQLlCIxzBEpwGedAlS8rR6AcgYmNQAkuExuv8tXlCJQjMM4RKMFlnAO18b2sjC5sfHPe2zsuwaW341merRyBcgTyESjBpVwK5QiUIzAtI1CCy7QMa3nScgTKEZhBcCl9+HK5lSOwMY3ADILLxjSsM3evZQnGzI11+UkTG4ESXCY2XuWryxGYwyMws97DegOX8ok7h9doeenTNgIzu/2n7TayE683cJne2yrPXo5AOQLrewRKcFnfM7COz9+oLLwN6bE9y9fVTFxeCS4zMcrlZ5QjsBGOQAkuG+Gkl7c8fSOwUVma6xjGElymb52VZ94IR6AEl39Peo/ApXSW59A+KiYL3/HFCCE+IYQTQkT+JfPv3Pd9/J5aa/E6fBlKqcH3OI41IUQRQtL8O37GV4y/5192Vepg5U/lsZGMQI/AZSMZrbl9mwWYAEAAAPg/QKROCNmaENJPCJlHCFlECNmEMfY0xtgApbTOGPMppQCgirU2IYS0tdZNY8yQMWYZIWQpIeQxQshyIcTjSqn7CCEtQkgn/6wNFlZgqWBZUEo32Huc7LIvwWWyIze33gfroxIEwfwoiraUUm7PGNvRGLOtUmqRlBJ/96y1QmstrbX44pRSQSnFd1gslDHGjDHWWot/NL4opYpznnLOFX621qo4jmPP81pa6westf+glP5Na317DkBtQggsHhyZJZR/za0RLa925ePpKSC1BJcNd5Fg427u+/7OWutnG2O2ttbCCmlYaxcSQvAFy6SSuznUGAP3h9hsweTeDKV4Kq9EAsaIMQZtSLKv/Imd/b54TTGc1lq4Sk0p5TLG2BOdTgffW0KI+621/0zT9G+EkH8RQmAJAWw2+if/hhavKcFlwwKXmu/7mxJCtlRKbWat3ZpSupO1didCyGZ5HAWWRwYiAAQAA37Ov+NvWQ+j4ncZzIwCkuJ9xe8455lLoLUG8FCcE7/D/3FOIeCFERLHcfF5jxJC7tJa/50Q8s/Q8x5W1t6fpum9cKs2LJCZWCyyBJcNazPOxbsZvWLxM3ZvFbESzvnWUsrnWWtfmKbpswkhfXkgNtvYhXUB6wObOP+/NcaMeJ4XUUojY0yqtdbGGCOlzNwc/DdDnZUHFULgc7kxRnieB9dJJEkSGGMQlwkopTUADUCmsHJGf/4oyycJguAfKkmuT7X+AyHkVkLII4SQFTnI4EKLz93oLZvJLtaJQdxkP2WNxnp5FgBPm3LiJj+mM/lOOCjcrnQjioDsAkLIroSQt0gp95ZSzgcQdLtdjs09+kC8REppAB7FptVaI+j6B9/3ER+5X2uNwOyQlLIZRdEgIWSYENKt1+uq2WzidDhpQAipCSEGlFLzEQAWQmxGKd3UWrsVIWRPpRQXQjJrM1eLeZ7HpJQ0SZLMqgHAAOTCMCRpmhKtNDHW/JUQcg4h5CpCSJQHhZF5wr0WcZqZHO/ys6YwAqVbNIXBW09vzawVz/O2NsYcTgg5xlo7gC/GGLI5vNi4AJfcSoG/0hFCPAx3xFp7kzHmnw6QHiaEjCD7U6lUkk6ngzgJvoogKzb06inllRu9SGEDaIoUtgzD0DPGwIKppWkacM431druLAR7ru/7u0VRtNAYswrxCksKAIPrTJIk0loD0IaCIPittfZHcRz/Gf/fsNylmV0568vdKsGlB/M8A2ZnsYnhdixijB0tpYS1sqPW+plSSoGYRh4nsUjqIJNjjHnQGIOg6W2c8zuEEI/GcQyX4wlCCDYx0sUAk8xN6tFQjE55w12bL4RYFATB01qtFqycnTjnu3DOn2mtXQSwQWwmM4k4J1JK0ul0LOf8YWPMvUqpmwgh1xJCriOEIO1dXG8PLrc8xXSOQAku0zm6vTk35giggoDsnoyxvT3POxj/11qHWmuGoCme/FrrlFL6OOf8LsbYHXEcwzq5ixByJyHkQVgovbmkSZ0F9xFSQraRnrcdY2xbuFDGmGcppXZkjPXBbcK9dLtd4vs+UUrhaylj7CbG2J+NMdcqpRAIRuA3CxyVx+wdgRkDl/Vlms3eoR/XleGRDmLbtoSQF1BKX0YpfWEYhoibsDRNEV5BQBab8WGQ17TWCIr+EXGUPDgKwtxsPACYTw+C4AVJkryEUvpMWGXW2qdZa71arUYRi8EXYwzuGUh7PyGE/FwIcX0cxw/kaWyMEayu1SyvubDe5sI1TmXhzBi4TOUi5+p7p+AuFcHaPs75i7TW76CUvogxls0XwATuA+e8Y4xpxnEMV+F/CCGXEULumIPBTzCFn80YQwzpcMbYM6y1QR4/ytLiOHDPlNJ7CCHfS5IE9/tQvjYAoGXAd5ZtlDkILlPYsrNs8Me4HMRWsJMqDih2YIydGIbhC9I0xWYLC5chd4OQJr6JUnqpMQbZFcRSEEMBKW2uHZhUjxDSkFKCn3OA1vo4KeW2nPMA2SVkmfJ0Nsy1YWstLLSzCSG/zDNac+2e5+b1TmD7zUFwmZtzMs6rxnwgtnKgs0COZYztxBhDqlkWQc98k/0vpfS3xpjrCSGIQeAJ/iTXYJyfOZteloFMEASbRFG0nRDiRZTSg507tGdB6gPAIKUOiw1BarhKxpgfgpBXBntn01SWMpezajY8z9teKfUSa+1hlNLnU0rhLhRHh1J6n1LqN4SQ/yOE3JynksEHwTGBZ8qsuu21XQysOMRh9iKEvJgxti+ldHFu4azKjGmt/+Usnd/l3BhklcDL2aCPuTLRpeUyO5ahL6V8lrX28Jy7skuGFitrehCzXWqNvY0y+r/GmAvzVPLGkpINUbXNGHutMeaFlNIdKKWoiVrFOEaWjBDyK8bYt7TWv82rsfG7XqTXZ8cKmYNXsVGDyyyI1mdugOd5W1JCP5Gkyf6c8/lwgZAlAXPaWruCUvojl7q9RCmFJ/Rszf7MxPJ/uRDibdbaF1lrqwhwe563kuGrdcoYu9mxgT+htQbTF5wYxJ9KgJmJmRnjMzZqcFlPYz76Y5GO3dtlfT4gpdwnSRJsGBzgd6C8J2KMfVhK+bM4jsFTARV+YzwyVnL+hbT8GxljJ/m+LxGDAsAgDhPHMcDkQc75h7XWfyKEPF7GYdbfctngwWW6rJMenLfmeR74Ha8nhOyrlOrzPI8iM6KUWm6tvd5a+y2wa3O+CmqANuajWKuoa1rCGDtASvnmJEm2Q0apKJJMkgREwtsppZfkWTQEemfl0YM1NCvvq7io3oLLXIk0rZ8pKWjxMNNRG3SYMeZ14K9wzvtB3wcr1RjzUJIkCNp+1xHnrskvFRyOksfx73kDcQ4iVwchRmWt3YsxtghxmKIoUghxM9L0SZL8gBBy99hTXi7Y6dwKvQWX6bzSuX/uTM0tN+3hCr2XUgrWbX+uh6IYY48YY67WWoMMB2Ap4wVPPe/C9/1D0jQ9FjITeTYpK9zMdWRuTNP0kmq1+t12u416qrJkYAb3UQku0zbYqz0VC6sFwdslaZp+lRDyXM/zGjDn0zQFsDxqjMFT9pI0Tf+SA1G5GdY+PxjTTCZTCPF8Y8xx1phXE0qh/Zu9K9eN+ZuU8rNJkqB0ACTDckynbc2vfuJZDS4bkNEKvoqtVqvQrf2oCzYeIoSoKqWoUgpVzIPGmPOcFOXFOX1/Yw3cTmbZA0nAidmdMfYGSunbEeBdKVmTAYxK0/R+QshxrrTglvVcvDmZ+5uz75nF4LIBQctKdwi1M69xbNo356r6LI8P3O0Es1ErcwkhBKr53dIdmtB+KtZwDRIUjDHEsV6PKmtYLvkYJ0IIBMZPVUr9vswgTWh8J/3iWQwuk76n2fjGp4ME5tKkb3JFd9uPigk8oLX+idM7OStJEhQczlJi3KwH+uICM4BxKnYf4py/gBCyIBcUT6WUt1lr362UQrW4HsVnhlUJV6kMmPd455Tg0uMBXeN0GF8UIR4phHgj5/yFABaQvoQQyyilqIu5SCkFOn95TH0EMN7gDiHFfwKldG+IVVlrhqX0PsMY+24URQ8MDAz0JUmyRR6zeazdbqNkoGjkhqtg1Wp1IaUU4la21WpBsW90S5SpX+lGcIYngcuGnnufwTnN2LdSyl2UUp+XUr4YkgFYrJCTtNb+3KVTzwJtvXSDejYrRTYOLObXcM5PIIQ8x1p7t0Gwd6WsZzUIgj0ppa9Gozel1C+SJLlhtPZNGIabMsb2y7WJVRRFv9VaQyMHIDTxDN6sN/x6Nv6rnai0XKZnXHFWIAm4GB/jnL9Ua70Y/j+ah0HUyVp7Yi7fWJrja5mDKXQzzETE8/gLRMsviKIIjF00a3u1tfYdSF3nTGjIgX7IdZw8s7iMer1+RhRFeN3mbv5QgR0bYw5M0xTFoiXnaJx7Zs6Dyyx+KDxdSnmYUup9lFLosUCvBB0KkXJ+T17ZDLnG8uj9CBSpf1RRo00tSifQusAMDAx8OE3TD3U6nQZIiyAvMsau8X3/akLIo0mScCcSfgrnfHtGmW+JBWMabViO1lr/uhQLx2SNb9fNeXDp/bqc8hmRGkXbjedxyj+qrX4OFPHzBmSQoQQtHTwXFNaVVsuUh/spTwALBmsc44zaJF2pVI53Pa7fbYwBLYCBZ8QY+yHiXxDcQn0S5/yt1tq90Zky79eEh8IhTg4DnQiQzZsUV2Z8W3J6B2Qmz16CS+9HW0gpn00sQXboJMYZ/Hr0hnpcCPGrKIo+l3NZpiMztJI9tpJchkAyNgH0XjbmSuriUQs3FePwYs/zXodC0TiOI8/z0AHyB1rra9HrOooi9Gg61MVZ9netTXZFSpsQglqld8ZxjK6QiLlMClx6v9Rm9xlLcOn9/NSllP/h+gG9V2u9DYK4ULE3xlzDGPum1vrKadzs2EBwv+YJIXbARuCc3xvHMboYTovy/xx7GkPlbl9UogshYNUs01rf0O120X4FwVr8Lq3Vak+Loghzh9ftEMfxNUmS/CJvx5IF5Xu/bDa8M5bg0uM5lVLubow5GalQ1LcgiJvrspyZpukncp+9x5+62um2Yoy93Fp7kud5fZTSKymlF3W7XWQ7NuaDBUGA9PMxsOqiKPpkzisavQdg8a1yVQEy1trdUQNmjPlGp9MpYmSznkE9G7K+Jbj0drvhyfdpz/OO45w/HXyW3Gc/j1J6Xu6zj+5/3NtPR4okCI7TWn8Eot6MMRTxDVNKv1mtVr/SbDYR59lYD/R3AqCsEEJcEUURSgIQh4GrhDnB3MHygxtZEOsgRvUs128JruypSZKg/9OqVrjrcyBnA3is6/7XAi5zzNhd113OzN+xePd2Ik//T0oJRTmeJAk6H6IH8385vsVPZ0DfFfGet2utP2mMgdWS3bm1FgFkbCxUBq/HY72tq0oYhq8ihGxurf1zFEUoAQCoAFBMpVIB7wXqdpszxpYppS4E2S53fxYJIU6w1v5Da31jzpXp9RhmTe88zzs6j5X93fWouiGO47VIRfT646fnfKXl0ptxxTiGUspPKKWOoJRCzAiNy1rWWhQjgiwHlf7pPvqEECcBzKy1COhSxhg20RddY3iAy7TEXXp2U9ODPUG9Xl9ijHmrKwm4xhhzQ6vVggW3Km5SrVahz3uitfbZQognjDFHdzodcFpwVKSUO2itX2KMAeERGaMnHVO5dAizM8b+A216tdbVvJ/3ZVrr7+W9vHs2xDN5ohJcerNMfN/3l1hrv6eU2sFaKymlkRODulMI8XalFDRdp2tjF3M4gM6Mnue9DK1J8oZiXEqJXsyXQby62WwiZjCVfTCTa7MXn4U4yzMIIYdQSqtQphsr41OtVt+QpunJLti+m+/7TWvtId1uF21bcMC6qTPGPuXKCX6ltQbAFB0XenKNnucd5bRovuWkIYIkSaTWOrHW/sAYA4sXxazrPqyFYvmsCjSX4LLuaVvnK6rV6ibGmGOstR9M03QT5J2FEI9EUfR959d/Kue0rOM8k97zCEJC+vEQxtj+lNK/uOb03yGEAGwg/7iTEAJB3ie63S5EqIqg5aQX4qSvdJ0j2fMXwHo7wHFTPohygJzi/6Q0MuJUSimAyx6U0g7nHGzc1SyUSqXyNmMMLFG4Kygy7dUBl+gYSuk3IDqey3WCFXypc6NBtlzaqw+a6fOU4NKDEZdS7qa1vpQxtoXW2meMQYn+BjBBCSE35a0u8s3c060Z+L6/hTHmECnlQjRqj6IIQlNIqyJYaWu1GtpwvNRau2Wr1UILVKSlN3TeC+4dwt2vIIQ8nzEGftHKaugxKqA556+F4DfnHKUCMaV0v5GRketGL41KpfJ0ay0a1Q222+3ze7BsilNgQezGOYfg+Otzy+VRa+0FSA7ka6eHHzdzpyrBZWpjXZDV0BkQKnJQmsMZH0vTFBXPH8hp59PBxEVG43kosENJged5/+Cc39lqtdDWddXnUUJEo69vsziOX+i0eV9sjMFTHK8pyGCTtmCmNnTT8m6s5yxISwjZxff958MS8H3/u4ODg3BLx7znIAheb4xBvRHUAVP05x4ZGSksl2J84GK+w2Xi0Jbh3F62zRVC7MMYg87PA+BEKaVQYImHUlHLNC2D1auTru1xWYLL1EYY47cdY+xYt6E/ij46nHMsxj/GcQzl/oumdvq1vrtKCHkhIQTtXiMhxLVJkoAIBtavDMMQvY92zk3se5vN5mNQzBdCvIFzfjel9KejsiEbCrhgLvAFwEdwHYJRcE9/22630QGgSCE/6X7r9fqbkiQ5WSm1SxAEEef8gDHABZNxKOd8MWPs72u6TVOY5wGAGawlpdTXcmAcya3Pudj3e9VQlOAyhVWRL+SXu+Dthyile4GNq7WGv3yRMQbZmV6mEvFEhlkUBkGwU5Ikh8AC8X3/sm63i8K84qjWarXnOXP6A9ZaZKx+YK29No7jR4MgmO9axMLURpO1329gotUFuGCc9hdCvIAx9pckSX6c81ZGN0gDAOErcw9rtdpbEXNBML5SqUBn9+CRkZEioDt6hSzinL/YZQC3dvVin+1FGYDrSfVcY8wuWmsUVl6ef9gGUWJQgsvUwAUWBKQTPkMp9fJm6R1Xj/Jl8F16sfjyy8M8QWVtU8751lLK1zDGvtfpdEBJxwYZbZnWa7XaS/D3drsNdvCXXSzo/CRJ/gZwajQau2utoW1yS7vdxsbDot5QDl6pVJ4WxzHasnxda/2zUVm6wqoRAwMDQZqmfuFC1uv1E3JwebbneS1jzEGjskVrjs1hsGDced+fn3sqdUZSSnm8tbbf9a368oYWC5scuPQ0Jjl317WUck/wIyBfyTmH2DYIa1dZa7/p1P2xsHtzbEN8b6m3JUvZPlrr5xNCzk7T9B+rB4qzj0Igs8Y5P9jJaX4PlpS19kuwpNI0Bc8GrkEQhuFLKaULnDt3R6vVQm/lqWyQ3txjD85Sr9e3Q4GhUuoWtGiJouihUZYAKqIhN7qX62eEvtwr0jS9Oo7jh6SUaE1yMkS+6/V6RCndf8WKFWvGXLJTeZ63i7X2+dba+3PJTFg6kz1eBLfa6SrjOiEetqG4qNl4TA5cJjuUG9j7pJSQUnwrMhI5sMBSOM0Yg0g/6OVTPbJeR0KIg/KU8vIkSeDvAyjG4s1kcg+c80PBucmbtX+OMXZhrtGbLd5KpYJ0Odyqp6VpelUerykAZk4u8CAINodr6nnenlrr81qtFlzFQuw8uyeAT7fbfbMx5pWU0oe01m8HjyQIgmO11iejjqharcac8/1WrFixWrZo1ESiKHR3pRSsP7i+qKqe7IGygnucePsP89azkz3PrHxfCS6TnxYphEAhIqQUF+WCQksZY6dqra/IF/Zkz17EBBA/eDljbFMhxAop5d/a7TbaY6ztwHzW0SbWWovUOCyXzxNCAC6353EG8CrSSqWyq7X2BVrrSpIkF+alAestgDhJY7h4W+j7/oGU0uf5vv+bIAj+NDg4eJDv+9v6vj+YJMktIyMjt0gpd9VavxecJNdvGvR+AOw9QRCAoXuyMWb3Wq0G8uP+a6aiRw049zwPFtK7jDGwIMF5mWirXfCS9mCMgfX7O0LILye7UGbz+0pwmdzsYNwWcM6/aIyBSZ0JEYFe7nRZP6OUwoKZqKsxen9h8SF4uKvVem9KyI2akGvHeLoVQUw8mfEFUAK4HIpWpqjKhn5vHMcAjwJcECcCiPAgCFDxC/LfXzjnv2i328gqrTomueEnN6KTe1e2fqWU2Kj7gZWcJMkXMfau+dwFvu+/ytUFwX05PwiCbz3xxBM758S0o8YBLkVA90nziGppIcTLOp1Owhj7QxRF42PR/ttTmC+E+CBj7I9CiD93Oh1YP7PXYpzkQpgT4DLLKkCLwOCuLs7ycULIS40x+B1Et8HGBTv2rknslYKfAaB6OtKTjLFPWGtfq5RCwVxBABt96kqlUunrdDp4r160aNHI0qVL8WRFwPF7ecdB1DuhvgkbIKhWq2jGVvM8b6jZbLY8z4Nuyde01p+OogiyDHOtb1I9CAJwd9pCiHPzuiHP931Ybgi+3uMqxP9HKfVVdLtMkgSB2NevBVx2yy0XpKLBM8G8jiWvEDqawVa+759IKb0sJ+iNBxyyjJ/v+5tprT9HKf1Emqa35hM60YfRaktslu2R7NrmBLhMYqNO+1s45280xrxdCLEniHNpmiZa6zdordHjedLSBpVKZTcwbrXWWwghTu92u4+PImyttoDDMIQU41vTND047zAIRvBPfN9Hz54rcV3YVN1uFzGgxznnLxFCvE9KiYppSDCAVyHxeq016pH+L8+w9NQ9muSDbzxziCpwNEFbhLRzFEVo0YJNigoMpHWh8P9PKeVXYb2h7atS6l2OoPbKHFwAwnCLjh3DLVoV0B3j+vGrCuf8C9DLyVvDjFfjBbwoPJDAlEZ1NqzF6SBZjmf8pvU1JbhMcnh930eqE2X8m4JPYq1tGmNAN4eVgaf/RA662WabBStWrNgfEplOjT5CO4s0TfH0XNsTjaIJO2I8IH0xxhDgfevIyMiVqI1xEo0/AokObhoh5GL3xMbfD3PEso9TSvudgNXHlFKn5xfZCILgCK2VSFOFz4RLMJ4n8UTusZevRdyogfqpRqPxLmsthLN/12w2h4p0rhDics45KtTvhYQCUr1Syq3SND2VEPK6cYDLTVLKnYUQBzLG5qVp+tfcBUKsBofwPO9VjDEUNd7W6XQw7+s6KtBWppS+Mk1TpJ5RNzSaf7Ou98+pv5fgMsnpck9BcEz2NcZUrLUdIcQ/KKX/MUpQaLxnZo1Go7/b7b5CCIFMxAowQIeHh1FJ/VQ1QACXgyil7wPpS0jZ4oy9aXh4GOBykAsYXoVUtDHm9CRJwPvoSilf6uIycLWgiP9JpRSAB0DIq9XqDkqpvY0rxU3TFNozszEOUKxXuI7bOm2Vt9Tr9b8zxn49PDyM7FxhZBiXXbvcBcCPYIzdo5S6IEmSMz3P21Ip9X5jDGRIARJPslyQLXKkQ9QW3ej7PpqrfdAYg+4NSBWfm6ZpASIUFdfGmNc66/GRNE3hDq+rZmt3zvnuUkpo9aKIdK65oONd06VbNKGR+veLs3oiSulvUHCGICrEtz3Pu9JlZ07rdDowd8dzYCPA/97cGJNxLzjnN1lrb4qiCLUlOJ7K1KbVanV/pdR70jR9GaQCoFrfarV+DHBhjP0oZwx/3hjzndyyeSXn/P8pperGmC8opc4ghECGIVNhC4IA/I1nK6VGtNZY/MiCrDsWMI1+zxoDibG31Wp1URRF+2qtUXaB+i2knTN3KL8XUPghMwFwuYsxdla32z0n12UZnS16KnC5LgzDI1yl8hkum7YlYwzdAc5QSoEXVBzCFTKeAuujUqlc2mq1IMa15mgU/6+7+UUKfDMhBDo/ArzHiqONZ+1M+jUzN1VlzGUyk4RMztYImLpgHkSwMV/3YhHid3lR4HjOi4pmPPmgv3IkpfTtSZLgadrvAqwLUEDXbreR5izM5jUzQ7A24P4AXA4OgmA5pfSUkZER9N+BRXNJ3s4k47kwxjpKqdfiSYz0szHmzGq1+sV2u12U9BdWATbcSY46+umcTwOS2GxykXwErK21kFJAHCXrMufuq8s5b3W7XTAzi63/AAAgAElEQVSOR4Ig+I7W+khr7T2c82/mtV47QTjdCXcV2aLR4PIOp/eyxyjL5bparXaEE286w8VrAC5XOQ4RAHk0uKAt7/5OK2ex7/v3N5tNxGmKrg4YsyL4b5HRAh/KyWW20jQtqqqLbg1Ftm8862Y9vWbisFS6RROfqj4EQOM4/oKU8pnWWqaUQpoXgUIQr8YjCkXzwO2rsdHTNP1GTrrbnnP+bsbY4a7I8N5ut/uGPPME8xlxBgAbrAmY31YIgQ32Pifd+JIgCPDkPq7dbqO7AArsvh8EAdyiM7TWF7nzDimlXqmU+nTuFqE8AXVGhWWSSTTgc/JYA2pnPtTtdlGZ29MA78SHfLV3wK3Yy/d9DgmJWq0GASfo3N7med4lw8PD5+Sb+vthGL7a87z7ut3uRUhRSym3SdMUbiTavqzpFj0JXDzPO9xZqZ+31m7DGPs+Y+zMMYTOIaEJSYvdoyhCVg7nhcVZFEpmwV/G2IcRVDfG/Ch/DW6q0OLBzxPlykxxGCcOFhP9wBJcJjpihDwNdHEsUpi4qLyllN6ilAIQwNIYQ6Vs1UTih1oYhgeDiAV93TiOIT6UNTpHOYEy5oOUkiMoJXfpVCNG8gAYoYaQVxmt9yLEGmLJSfgsEQT7E2PeZ40+1PeDhFH6hlardRXh5FBq6eWMMgR0z2CMXcA5byqljkzT9GOEEPTiAQEQAV1shNFPUFqr1eYrpZDR2MwY83+5sPgkMxo9XcTIpL/NWuvD1Yui6LFGowGeyS7G2ps9Kc/tdDqoRke+6HK4RZyzuymh5yZJ8nUi5bZEp+9b2VOKPkCkPZQk5J56f/+xaRy/I02TPWr1Wmwp329kxYrrwlrtCGv0F+IoWsK4uIxae6ZSCm1hRx9VxtjbLB4ulD7GGe1aY7+itf7fPKayhFD6eULsblJIzPEPO50OQB0PjM8LISBQdW+apqjzgus1yXEe/0KeqbR1CS7jn5PilYs9zzspSRLUE4FGDxbsjXnmCD53ZlXkLx49vrS/v39zpRRM+iqldB5qSrTWtyDo2G63h4mUuxCj3k8JPYJQcqdVBgzSh7nvH0q0OlEb81JiLc6+FyHkBhEE+xFjTjVGHxL4QcQoPT4Hl5cQSy8nxqKbIBbwhQAXMFPjOP5IDi7g5ABcIFC9i+d5m+LnNE3vhURBpVJZ6DIkhxlDOpzTG5MkuW3iQ9XTd2As3+55XkNKeUO73UbMS/T19V3b6XSQvr9Z+v65UacDrZUMXAhAmpC7PN87O+7GZ68CF0JXWi5CHkqS5J6gWj1Wpwm0Wvao1KoRszRj6Ia18EhryBeSJNmCMnolNQQFqUgf/7uDg0d2JIq8k1F2ovQ8WIqES3GupPy8ptb3yzR9mTYGrukAJQRZRRAsPwLAdpmjn1tr0XztVmMM6tFw7WMEhdcN0DMFGBOZ0RJcJjJa0DsIw2copf4TVgDnfAHAxRhzndZ6/9x9yNpU1Gq1eUqp7dI0XeB57OE0tcLFQbYNggCFatdFUQRG6Rac8/uDILhqeHj4BiLJDkTRUwklR1JGV4GL7/uHKqtPNNq81BqzClyCINjPWHOqNuYQ3/MnBS79/f1+mqZvNNbuyyjkaPgvR0ZG4KYBIOGCQL6hnaYptGOLFrQzHYMBaW1bzvmb0WM779kMzZOgUqn8Lk3TZyMQLjxv3OBCCX3ACpGBiwyCY63W77DE7lGpViPK7P4jKzJwOcpoizjL5kLIn1JrvwSKQA4ucCNTEYj9rbInUcZenTOiUdx4qxD8R90ouZsY83JL7MsZpaE1FpIcf3Pr5mtpml4kpURWDuBys1Lq666IMcvqEUossesGlNFLd1aCy2y8qAnu9xl9ue/7W2utv+gIZy9yQdF+xhhiH3+A0lt+Idh4CyqVygucQtyJURTtzDn7vdYmsta2XIHdeZ1O519gdjLGEBu5Q0p5TrvdPovI7Cn4QULpWODyVqPNy3oNLrVaDVIOH4+iCHGeCuIWIyMj78zBxatUKgcppbZPkgSpXgQ14UZNa++lNSYUmSy0/HhbtVr9nZTylhUrVoB4hie87yQ8r3fxpR1dI7gbmRDnrMVy+Vbcjb852nKhhDxgjc0CutV6/VgNDV2js6poYmxWFV2r1Y7S1nwhiqJn4AHAKftCq9X6PVmwoFqLIjwYOi6lvANl9DXG2sPSJAkpY2ng+3cwxv6VaNUxqd6MMrq70bpOCUXP6b8YY8CRuhyiXWhDkxMA0f4F4wvQnHbXaCY2zayxXOYIyGVNshhjF6dpuj04LrBWnDD2b11bUGR9ACzaKcPtJ6VEx8NXtFotobU2lNIf+77/tSiKYBY/vVqtot4HspN/VUp9KU1TpH53JnSt4PIky8X3/f0tIadqo5Etiijjx7eGhxFzGbdbVKvV6tbaz4HTgT5LSZIg+PmfefA4S4VzzlHo93qtNej0eGLj9+vidEx1/RZrc57v+/ugKRm6SCZJAqmJoo6KOynLXxhjnksI+RuXEuACneA13aLR4HIqpexYxvkDmqRZzIVLfqzRWZfM3au1ekStzdyivr6+I5RRX2i32ksoo9dYaj9DFPlTvV7fXXjyo6lKPRWnWR0Z5XxfY/ReQRDezwj54ODgIGIuNgiCRZbRM3WS7kspfYJS+u0kSZBZxBiCzQ1R9RullGcmSYJs43SP61TnZdzvnzXgMu4rXr8vxHjtTClF4A2FhZ5LIaMS+icuKPuWwnLBRnVtW99trT0oTVMEfBH7uFII8dW8IRd64VxmrT3Qlf/fJISAX49K6l2gVE8pYi70TmtWxlzgFmlrTzQrg6z4mCzmAnDBpjPGHOz5fiQ4P34Y4EIIyF+X5+JVq2IuqTHHqCfHXKA4/zFkVowxQqf6sjiNT8vbzuLDoNW7Cef8OSCfWWtRYoDaqYJXsm4ezOTnrME5xxhAcuK/kySBPAGyKkVaPmw0Gr9JkgSs5puFEOd08phLdv8kj7l43rfiOP6mlHJb10vqVEvsscQSNKvLLZcqAvQn61Tv3t/fn5HoILnAPe9oSsmXKSGLpSd/ziz9fKvVuq7a1/cCweil7XZbUsa+Ixm/ChIOLjNX9X0fFup9w8PDSOFn+8ure1vZyIJRjD5Sy/L2Jj7n/OdSyhdxzm/WWn89iiI8cEpwmfx6mdPvxGLZ1VXgXksphdWCGMWDUsorXEAWbSCyWAS6AbhCweONMWhHIUHDh7WD5mSF9IEQAqQ7VC/fhMplrTVSlKvAhVJ6p4vlYPE/BHCx1p6YZ3DGBBff92PG2PEjIyPIOmTgklsdnwfPBQFdgItOko9Ya5EtygK6cItc29nTXFARdTiWEXZJN+4io1SkRos2p4uFEK/nnA9ba3+VJAl0aVdJRfZ4VjOyXL1ef4FSak/HqkXMZ2UW6N8H5iKo1WrXJ0mCXlE3yJXZoiygm9//EQBCz+PfimO1Clxcpu1YSukDWusMXOr1egYuLmOze6PRyNT/AS5hLTzaGvLlNEkWe57/U87YGa1W68/c9/fjxP7E9f5mjLPvUC7PUStjMaP5KpkWTw7C+BkgXPwObo8Iw/AXADJr7W1OVuOcbreL5nkluPR4Mc2Z0+WN5v9MKeWohqaU3u37PiQnkYXJiFP1en1+p9OBqQ6aeR98c8bYL6IoAgcFjFj0E/ohnsqU0r/GcQyZAPQ4mhC4eL6/P13pLhzs+37iUppveCpwQbYoGQNcnDV0WhzHh0NNj3N+YbfbhXUyOqIIgIFmyiJK6fF5yv33URSBGTsd8QG2YMGCTVybFNRqSaXUVXlv5zXBJaxWq39K03Sn8YKLMWYVzwWiWrCGisJFBLArlUqE/k8Al76+vqOUVl9qt9ubAVwYpWdEUfRniElRSjOlQUvtpdTSb+XFi2OtY4wjtI8LgAF4ZGMWBMHVTs/lAGMMgrxn50S/ElwmhAYTC3xP6NTT+eKx4kA5uKA3UJZ2hE4KpfTiXLAZ/y84I6D2I72Lmh0wNFtSyseazeZdyCS1223UooAEd6srjPtvrfUlucsF+QAU3I3bcpkKuNTrdXQi/M8oio5mjAWugdpFjuWKDZjJOKzJznWbGRXb4GaAnAYraZX53yMmL1aLyNmxm7rWqrfHcYxM1ZoglnGGGo3Gr+M4hlv0VwTGx7ZcPGzcs+EWgXSIeiCt9QNg+gJcXFAd/YhOxtwidoU4CMAlC+hq/cVut/sM3/d/IqXMLBff96HWXwg8ocPDObm7O4ZxZf1KpbKDI+D1a63hcj08Cih/nTN8/2Kt/e80TbEGpgOsp3ObrPXcZcxl4sMOgaUMXPJG73APLnHxCrgZax4hFq0x5k0gzXme96tWqwVTHelKtOs8GJYL5/zLURRB83YXpVQWc2GM3QlOTOEWaa1PNMaMGXMBuARBABbthC0XVy9TlVIitX60EEK64r4L2+02AA5PW1DZi7TzqvRzrVaDu7dZkiS/yHkfiMsAaaeSRSpAGd8XOAlOpMPRCwobbm0WQaVer/8mB5ebHFcH4JIFdFd3i/4NLgVDF26RlDIDl2p1ZcxFKZVli8A9QUC3v7//1XBZW63W1rVa7Qop5ZcGBwdvcOlwaN/+Ckp/lNLzHZnyXDdXYGevGX9CO1nUEl1ljNmOc/4YHkQjIyMfzW8I1dzIFt1crVa/1mw2AVSl5TLxPbmOd8wN64ahRsRt8utzqwWLC9kLWC6oMH4SuIRheLJzH94UBMGWlUrlp8uXL3oNIbcHnud9H+ACFX4hxFeiKPoOYjVopGatPdxae7eU8hVJktzruBwHJElyotb6FQjSFgFdFC4iQJkkycGNRqPrgopvHhwcvMrzvIOttZdD19f1H/6s7/uQHICq/RFJkiC+klVFo2tBnor+BDJBTryIcc4vajabABd8ENLU+A7gWgU0YRhuapU9RBO9Y5qmX8hdvQJYJvPkhZWELBQ24yKt9Ycg/6i1RiYGrlfxEBy9efG7erVavTZN051dCQTclbNzCj7oAZfjfq21d3neKnBBhu+91tpjjDGg6SMg/gCaolFKT3bFnpDBzGIu3W43qy1C+YQLtG7p+z6qzb8My8VleaCXc3UeqL8QoNbtdtHR8UlHrVZbqJS6SGu9F+f8UczF8PAwSitwZOBCKb01v0bElWYMXKZ7y5WWy8RQEuCyu8te/MHV6KAtBGIud6GVq9vIyLCsubFCz/PepZR6o1tUWKA/HRoaOjrnZ/yAUgpwgeWCVPT3Ybnk4IJFjYxMRv9HlTOEwJ0c5SuM1tjtSM1e7/s+3Kr3g8BXrVZH3OI9ccWKFT/PMyyXgdSV18Z82+m+oM/xq5yo1Gmu3QjEoj6RJMln6vV6zfVagrbLEZ7nVRyP5+Lly5ejTgrVx+9LkuRZWusVQog/JUmCoHOm7+v4MNsya/dinD9DazufGEMMMTenWmPDFJonTzW6mfuDuptqtQrxJsSbvDRNB40xqEVEDOreHNiKdVqkoIvz1hzA/tYBKQoSb0Az96LVKiwXIURWFW2tPSdJkrPCMNxRa/0erfXRzpp8UAjxCmjgVqtVuD/ouPgc3/c7aETfbDaLwsUvgufiVP+v8Dzvy81mE5bLC9EiFhfBOf+Oa5T2LUeKhAzpkw7E3wgh58dxDN7TUkrphVEUAVyY6610DeI3jLFbKaXf7HQ6qIuaMXCZ2NKf+KtLcJnYmNFczOlqPP0FSnI5x5P1h91uF9W2TwKXMAxPMsa8WQgBhulPR0ZG4BbhfdioCOjezBhDKhr/38kFfyEhkIFLnip9EIHHHFwyEp2xFk9OgMt+kBxwT/gDpJRooP5G0P9z9f8fQHIBlbyuidfFjLFmDi4fy8WiPpkkyekAF2st6OhHgUTnivu+PTg4iMyX6u/vx30d6FwytIv9bqfTQRYpy+QAIAMhnm8oPcsau1mWb6fkFkrYJXEaw6VZ14G1Bz3ffTzPO4Ux9hzGGC74n0qpz7nWs6D3D8Jq6evrg7jVC5vN5tM8z2sGQfD3wcFBlCNU+/v7/5gkyY4I6MI96XQ65+XuSabnIoS4K03Tc5RSAJedIFFhrT2KMfagY/VCtOmOer1+jFLqHXCLwjAECL8E4BKGIaqqwcrdtFKpXIV5arVafxJC7AuBKlivQoiLOeeIucDKGhNc0A1CKQVwAflvNXDJ2/FC6vKsOI7XQv9f11DOzr+X4DLxedkRT0XO+RIXxEXWZ3kYhj8fGRk5boyAJjRrT0QamXO+nRDiZ4ODg3hKc8/3rsoZouBnfKHb7V6JamRrLTRekRbGpkDM5cFKpfJSpdSJ+H/u5++jlLqh0WhkbpELJh4opUTq6vXdbveKvG/RlXChhBAgbKFwEczPI+EWIYPlsl2f3GSTTT4zNDRUk1JmbpHrEsldBfC32+02SHTR/Pnzr+h0OgcqpR6RUl6cF9wVI4Yq7RcxSn9BCQV/A+l2Qxn7ox/4yChlB4Livu+vsjzieJVEDe12u/NgMUDWk3OOglCLcghr7bsdc/W3w8PDABdWr9e3ZYx9tdlsPi8Mwwed63TW8uXLv75kyZKg2Wze2Gq1dtBaX+95HsAFkp4A+e9DiY5zfpcxZhW4JEnyHkrpUVLKB4wxB8ZxfH+tVnujc+3ASkY/I2jBIOZyfa1Wg4WDgO6m9Xr9ariYy5cv/x26OVprQZKD5XIewAVu1FrAZUGSJN+G3IIQ4hEhxAXDw8PoyID3/hrxHQT1HZfom7jO0nKZ+IbcYN7h+/4z8wAeuCx46iMO8Ie8tmjN7ArconenaXq80xd5ZhiGP1uxYsXLMRjIPrgNAbfnFvdkPnNgYOC7999//45KKbSGPUpwfifj/ECICtVqNcRewHNBABib+DkQdu7v7z/UtQF9n1LqhdVKtUMoedOyZct+wTl/aZ59KgoXL0BPaVcgeVyapu8VQjScpfHxTqfzmQULFsw3xnx5ZGTkAM/zoKd78eDgIBqEIVX6szRNwcO4y/f987vd7pfyiQRYoLXKPtSSnzPGPKUVhYodY+zhWqX6M8YFvBtGGeOSC0ayCm2rldZZuh5A1o2igSRJDnLtT8AZygK6lNKHXTr4Q0jdN5vNFfhdo9HYCtmUdru9T71eH6lUKmc9+uijp2+22WZhq9X6Haqi4V6GYXju4OAgnv74jExDlzF2d71e/x+IkIMPg/tH8NrVUz0AEiIq0iuVyglBEJwEy6bbzRRK9wH9f/HixbBozli+fPni/v5+gP+Zjz32GALHGJMfQaOYEPJtrTUsl9V0XooFj5iLEOKKJEl2o5TCFbtoeHgY/YpsGIZwIWF9ookbNGdKy2WDQYpJ3AgCs1rrz7puewd5njcA68AFVKGaD1elyKgUZKkwDMO3gr3rAqVbSSl/1el0Tujr69PoFQS3BwFhz/P+e3h4+BLEXKwyH2CcwZy/W0XdVyeE3DcwMPCyNEnfkiYJFjVq2vaC3GIQBPtSa09RKtPy1YTYE1Ktr8CmYZR+L0nTgFL6WcYY9FygM3OM1vojWus+9DNC+rxWqyHu8bFutwvtE2jVfGdoaOgdOYntB0mS7O+6SiIQCaU1ZDkKt4g0fH8bTdlH4yR5pbEGSmu3+553pSHkCkEEp5JaSimEnLQkkhpu0PIWHpRFUCVJEtbpdHYUQnzAGAPhLTzN/+l53v7tdhuWFgLJul6vP1Nr/T9pmoLA+HCuLPdNB3gQMf+xk5h8pjX2L5LLCzpxJ2O5hkFwodEGjcvup5zBuvgfKMoZrU+x1r4GHRPtyqzPwwMDA29Jk/SdcRxvT6CHTAnIe9f39/ejnxHiLPN93/+lEOJzGYmO8/2cXOWPtdauQUM2tgAXBHTXLOhkDgghHv5NKOcxxhA8Pn9kZOS/MY5hGF6tlMKcIqBbxlwmsR83qLe4p+NmSilYC6+FKZ9XRf/JVeruOyoVW7gBXrVa3dcFJ+FKIbB3bxRFqHwF+xRl/2iu9RjUzTqdzq1VUp1vvHR/wtgujPLHWbd9UZOQkYGBAWQ5nmeU2YYYQxUxUPR/pF6vQxFvb631lkQZTq2+vJ2mf6/VattySl+fqMya+I3LOv1FCJEqpXZFPZPTzvWh9B/H8bWLFi0ScH263e72nuf5YRjesnz5cpQQ2P7+fmgCbwHxcc/zoOub1cvkX7zRaDSoUltFqd7DEBPC6vA87zZ0O1xIFhK2iFlsQHwheiIWilUxKbhxjzzyCHRoIe3wbMbY5jk9/h5cV66Lk/XBrlarC11h4sudhbAppRRkwT+jDW1fX18jSRJkehYSTR6zzN7c7XYRcDWNavU12pCdiSVDhJMbarXadUuXLu3zPG8vtlKetCs871voF93X14f+UM9TSj1dGQNrD2DxYH9//67GmJc7IXOUeaCLwB+GhoYeRPEqYwzZO7CYIdyNzgOFhm9RFpGt+4GBAVwj+kHPc+7eEOf8r61WC10KEL97Mx46GDcX3P9jp9OBbvJ0llPM6F4sYy4TH+5FQojjlVLvdLUsaAwPMt0NzpKAuwMzvoj2e0EQbOJ5HgrW4D4hRqGMMU9Uq1WkXpFy9ZwbBB+/KYRw9YIJY4T0U85Dqm03MeoJa60MPS9knFeUMQEjjDPBHkyjrGipKqSAHq6FLAth7AmTpiNGGZ9wvpkyGXlvCMFcSikWLa6jjqempXTQCU010ZAd54HRgOZulFK4T49TStGHaQkezUqpOEkSpGhHGpWKUYpwpRXuAYfROuFciCrlPCVat5S1UNDSnHBimRXMMvBnrFJx3E0SxFWYZJIRTtBfG58Jjwrjg0LEOIoijFMUhmF2Td1ul4dhCLIfYlwVrXXbNY5fhgAwNHVw/9baWFDahVh65l4xNp9SGhpDlLU69qQcIZxToknNEl0Fhqg0HhTCjyk1gVI2tMwicgTXbJBYHRHOobszHxPj+z6uG2UIEN3CdUGdDul9KPxhfNGL2o/jGCQ8jBnOAzcRJSJbZj4iYxQxHRc/e9TVc1lwhXCNuOY0TQE8GPvfjIyMZO7gXD9KcJn4DMICQXXwRzzP2yJfMLfGcYwgJjgviFhCzQ1EMAALOjKi7gcFji3XDCusVCqQq8TPMRYqYwzFg6C5W05pgkWGhdmJojolBFq7WnDZRW8kSikyTVKlCUfogksRG60SwlgNf7OpTnFewhhJkoj6Ychd29mCoIZNm+Suiaet9XWaCjxRpZShMWZzay1iBG1r7e15NgSfK9I0nccphSmvV163Sam1qBeYHyfxCk96COpqY7W2xjQsIYIxroglMWEk8T2fpWkSpnGS1VoJIRNDLVqnQoagAhlcxpCdFTJN04fSNPXCMESWKNuwvu+vyIOtuAA/STBM6P/mpWibQi3VjDPPGg2QpZzQNuMMhDieal0JPM9nlCljSWK1TgwhJkmi+cioMcqsSlWUGNX0pc8ZI32wYAAYuKdWq9WGOh+lVDqqAIAAGSWJvzkXOchBTyBwnabp8lwpD6CBuFQK8lySJBpjTCn14jhGJT0sF8yHTZIEIIv7QQX9N8YodZj4Kp0F7yjBZeKT0I9sAuIVrnweTy/EEP6BQGHe5AoRQQAIskNvjKII7g/MfEgZwK1oDgwM1AYHB6MlS5bQ4eFhSDay4eFhxBhwZGSywirILaGseHDBggUMck3LyLJ08eLF2WseeeQRs5gQ9gghZtGiRSutiaVLSTIwIAYHB0F8K8httPj70qVLzcDAgJd/blZl7Hney8Iw/A9Iakop4b6dZoy5FTVLrjUJGnk9l3OedrvdBGzUOI6XVqvVJZ7n7ZO3s70Vze4zDQpCdpO+v4VWqpNojZ4+/2o0GgAVtC7ZlFnWZoTdqZm+Q2sNcIV4NYAN1tE/hoeH76jVauiKsDXnHGCHJ/pNaZouxfUAHOFqDQ4Ows3qLliwAOAEqyddunSp7evr8wcotYnWwlSrsBY6qAPLQFoIW6lUzO23355us802ACeb3H479QixtxNil/QvqXb9LgDBdrtdWalUYFl1HnroIYxsIbqN75koGOJbUkpYeMNpmv6r2+3e4XpaLYQ0B6UU9wSA+0mr1cosqsWLF8MdhHULgiJKJ3B4AwMDfHAQybHsd5MhIk58JU/zO+h0s/Qmdv2z62rWcu1IEaCA76euN85OQBZjzL1aa2RSLgVb1SmMPccJbL8BNSudTqeBBYb0tVOJR4Hb36vVKsoCVslhcs710NAQrB1YEUUweM3gYPYgGKveqfgdvq95zQiejtoUq/486rW00+lAcvOLyP4IIXwXYAWR7BZr7SmdTgdFda9xSZsvIZjs5CQQ0PySK2PA7w9GF4G8w+EZvu9/F09xxtg7lVKvyLsMoPnX5+v1+jxKKfRsnsMZe1x63mV5YNN3qeZLkiRBeh1tQC5N0xQVzLtobd7NGD3IdVVEndUb4zgGpyizDIuK40WLFoVLly5dlIMwlPIKRnFBuMNri806ekwLoHjSkOW/wN8L5nCRPwcPB5YrXEugDSxSKMihFuw+ZNQ8z0NAHA8dSHAcDhczL+NAK5FifnA9xWLHOQfyL3TXHC0WNdOKfxPbrut4dWm5THw4seDgi//S6brsmVsaIEeBzo8SgEcbjcahSqlT0jQ9JAgCCm6HtRakt2sYY4/gqZi7SHiqwtQGTd9orZ80H3AhRi3K7GdwSkZlJtY6h3mJwlgLFIHW4s5hkiPo+HZjzDbZB1CKpmJtxtgh4G8EQfA6qKelaYrOjL93cYRPoiYKjdy01pnEAXo2ofm7tTaw1n7QyQgc6Yr+EA+CGPVH6vX6AshOtNvtvbDhoOub82bQIuUXyEo5Vf5/VSoV0OPRWWFXpRSyU+i19HchxCvzfk6jN/o8Nz6wsLbMUJewW8NqiCrmZYsWLQowpg899BBiIJPZpLAgC2CClbLQZZ5OALcH/ouU8gncG5jZlKJVCb3PBZa/7iQxzwMTOI7jd6LMAO4w5/zFLvB896h4XHE9/ZVK5VhIaaRpGoRh2EU/qSiK0PWysGomvnZWLZAAACAASURBVEJnyTtKcJn4RBQcj0tzAhS0UWB2347FlOuDIFX8FlcUd1wQBDzfyL9CF0DO+VIhBOIMWeAXsQYs4jwwnPFkckAZfWWrzVNO61/nlSOouJZjNXBBMNXFNVDPg2pnZEZalNLfG2M+jN5FQRDAcvlaHMd9YRj+HgQ8cDOSJAF9HsQvgMvHXQzqfICLMWYVuDjwXAUurp3qRSMjI3sDXDzP+3ar1QLfI6nX6+i3DCvo7jAMzxsaGvoq2p46bs6HHCijbcdt6BbZ7XZhmWTdFRqNxgBYr3Ecn8kY28Iaw4yxd1aCyteUVbcFItAiEIxbyzCggQx01G1xTTOpSaTHbdpN4YRSIcRKS0gpkA4xJ1atnJMsMDs8PNzs6+vbo91un6CUApMYtUttrfXb8qb2KOO4x1r7VbBxhRC7WmtByns14i3oiJkkyb/WbNGCOjX0kQIQAxvx0HAxGJRiIKN45zoneJa/oASXSU6Q53mf01of5WpFtsQpXLEdfGuko2+B6cw5h8YumJ/gf8At+lGapnCbYPoSsEvvu+8+gAniIkWdzejOAZO8skm9DUHf9zHGXiiEQBUvApVnIo3d7XYfg96JtfYbaZpWYbkAXHIdmlcopc7NFe9Ggwt4K0caBHatRbX4R2G5OFbzBa1Wax/O+eNhGF7i2MEoeuwODAyAZHaIUupuxti53W4XSvg7VqtVbLo9tNZwOT48MjKCuEVWQBmG4dMZY8dEUfRuZO3gTlpjVnief53R5hrf8wfh4hFKKpxx4klB4jhmhiCAzFNKqE3TCMQairaJGbFPa8JWZnEgpoEUFFwW0Ww2n6jVai8BVyVN081yME0BBC4NDc2ZvVBoKoQAAKOyGZq/L3P1RwDSwVw2FJ04V0N7qP8lSQLC4n4ANVi4OW/mLMfGHpPxO6nZXU9vKsFl8gMPISjoruIJi7OA8HVcrkyPJyxiMwNhGC4BM7PT6aDtSAEkkzHTJ3+l43snBYcHQVf0T3IuEQoVr202m8ur1ep/IIvhGovVC3ABiELMCezUUZYL3CIEqD9AKT0S7lYuRZGBS5IkF6Rpuo/TF348CAIwVWHVkHnz5v0cXBv02ZZSnhfH8VcwVttss40/NDTkLVu2DCBcKONl1ZgYW875y1y2Ca7TFoJzIoW8lzF+qTLql2AkZ5kgxhLUIyXtpIpskeetZAfnXd7Y6DgVgrudoSHte54RUvLYWviksF4wb/tprV8HLRsEk/Mg8Qddj/BjOOcoZLwPLmKSJKhtwgME14z3Yx2s6Zpl+65SqbwS4OKsxANdm10TRRFiOGfD+skfUuObuVn6qhJcJjkxiAk4fdyP4wkFH5wxBl4Igpdoeo7maMXYYoFlwt2znCCFpzSuGfndbV1KGoHK96ZperPneWC0Ip6wKubSbrdv4ZyPBS5wqz4QxzGKA1Fm8CnEThYvXrwAm8a1m0XgFpvvQhROYvjnz59/ZRRFsFwQ0IXlAumBjIc/6sAYFl0hNcow4Iph82qtn4Px5ZT/UHji9GaziZauo3VoiuDumMHtMZbAk4K9jUajniQJGrJBR3gTxtj11tp3xXGMNfAadMhE21jIL+Q1UTgtxhNPntHZn8JKxe9rbu3AxXybtWTImKyiHGsI1u94OndOcvXOzNvWG7jMEbX/p5oFZA3OpJS+FkQzay18+f+Dy6CUKipkiwU+F9JgWOxZ9HjevHnIvsCd+RZaeQwODqKoEe0w+oqA7trARUqJzf6Bbrd7lMsqNRx35VOO4wHLBTVMF8ZxjIzU0jAMUcOEADha2/4IglfW2jtB02+32wC2sVrIZpvV1Wg9l1KKmiSQzW5CnIcoYg0zj0L/JgfxXruY0JrZAtwlY8zOhBA0ivs5RK2EEK8TQtyD3kNKKVgdQ6OYzGPNfWbqViqVtyOj5iQ5HtCaDhKikCn6J6FkhNi5z9QdF7jMhZ0xM1i82qfAVf+oa8n6RrR1RUWvtXap42ogCAoFNTw959qRabWA1o+Ws0mSQLH+j+12GwFKgEtmuRQB3THcIgR0wbSFDMRRTq4gi7nAdQG4KKVGgwvcokw0qdFooD7oIK01BLLOb7fbeHqPFY1m8+fP3yNNUxRuQpLzp81m8741gGg0R6jn7qfnedtDpD1JEujt/MPFfuDGoAbpXmvt2UopuIkZYeUpslTIDKGRGwD1pjiOIS9RtNUdrf43vvUzSzfouMBlfHc4h17Vo8lASb8x5q0QfULTd2QWjDGnK6XOz9tvzKFBWXWpGB3UGM1HRTcz7LetqLUoz4QEQRD8ARINSqk1s0VFKhoxl/dTSo9eI+ayynKBaBIU76IoglvE5s2b9+NOp3NQLjl5QbPZhGB5AS6rOC21Wm17kNZAvEuS5PedTgcp26nMJiw1sKXx5YeZ5RbaLunCjRkeqzl8Xle0S14GcEO1Wj1Law2ZzPtQwAhRqlHgMtb8yyAI0EnhzU60ChlGdN9EXRKuBcCywRwbJ7j0bvrQmvVthNJTOGPZWDqT+QeW2LOJJVf37mPWy5noQN/AB7TVD7Raradba9+LjgdhGKKB1xfTNP0HUtF4UufZolXgAnU8yBqsmS3KhZKQQcnABZIPYB5Xq9UfOrA4ENIOYRie32w2UTVcuEWwROS8efPQdvbt2IBO+/a6FStWoEBxKpsxA1FCCCyRLRkhCzljAeEclPxlrskdzo8+SasdObjskSQJUmpox/p1uEVSyrvhOsZxjAcL3KI1j2Kvgb27j+/7h7vxASfnb3OJkTuRcEYJLlPbtyj4w4LHJhHIToDCDjYr+klP7dQTeffYD++JLISxPm3+/PlwP/bKyXi3UUrrUkqk1W9DcWHBc8mFoj4GIaQs/kHIBxw/5iiASx67ybJFAJdut7s3UtGjskVZzCVNU7gI0I1BzAVxC7iVWSAU75VSvgpdLl1q+qpWqwV5g7FYtxMZNLwW9T1f1lq/3BgD1jWVQhJt9Pe11mejp/eaJ+zr69vK9ZhCtbTpdDq/hvyDixW9zvFd7vY876nAJQvsCyEgTQq9mnfnrtWageuJ3sOsff3sAZepGLfrb3jxVH2FqyT+EOf8+bnlgm/n+b5/WrfbBV19zh4LFy6sGWNOQBwF+jOc84x8NjQ01K1Wq2iVATmCcyE74QoEEci+CLINrs7mPUmSrIq5FDyXPKCbgQsIda1WKwPlvr6+n+XNwe4Ez2N4eBilFABptEPd3Cm2Qbbi+ZRSdEj4Z7PZhMsyFasFcwJhrC0RhJVSQosnAM8EfBOnGfwuY8wPc4r/mpYLqP17oGQD3RyGhoa+4drAvA6iVIwx8FyKgO7o92X7LAiCF0GnVyn1sNYabVmQEep5XGi2LLjZAy6zYUQmB3DoHY0nF5qiZQfYrZzzs5IkQW+iOX0MDAy83GnwQjfmlqGhIRRgZpsBAdooitDq5KK8xcppoPQbk+m6QNg7A5fRlstocKlUKhcNDg5mMZdGo3EepfTF1tpHKKU/GB4eRr2Smj9//qZJkuwJiyVN01scmN2Yx0JgtUy1uK8PynzW2pM559vCaknTFLIIqF4/zjGGIQCWsYFHHxALY4w9G7+rVCq/HhwcRIwF8480OnoPobMmwK9IZxeramG9Xkc/8QXNZhPtUsDc3WC0W8Za5CW4TH3rwzV6MaUUC6aOtDSl9HFUwjYajfcODg7CvJ+riwhiTkuklLi/rUZGRv5fPlwQu1oQRdHLkHrNdX3hFhXggnYnYC9n4JJni9bmFrFqtXqMs0rg8rRdDdFNEKWq1+uwjF4AISzG2EPdbheylXC5EOidqkI+XJRnUErh+jwPmsJ5yxaAwk9hdcZxjGwQjtUsi/7+/iVJkiAVbTudzrVSSgR0UXsFcPmKMQbroAAXvB/WLXRoDnNu08IwDP++YsUKVMdPFRynvnKn+QwluExtgLPxcz2IdjTGfA1kLogZ4Xda65t93z/FbUAEBp/0BJzax87Yu7M4QaVSeQkhBLyVU3OXRIVhuNgoc5gy6mtwJVBDlCTJRbVaDYWY742i6EiQ6EbxXBagrUan09kb4Au3qNPpwHJZJTo1qp9ypVKpvBBWi0v1o6czyiYyN6lHd94QQiCWdCnarMDYzLWQUXz4XqeHDD1cAASO1XolNRqNrSmlu6E+wvO8a+AW5ZYL0uhFzKUg8eG9kG3YOYqiU9GLCd0Zx+pk2aP7mlWnKcFl6tOBMcRTGVW9qJXZLH+SP661Rj9hNBjL6onm6IHe19tprV/MOR8wxoCH8hhKBZzeCzoSfiVvYQLSHXguaOYEhm4GLgVDF5YO3KIoivYWQqC26OKhoSHEXPAEL3R5AR41AItS6s3ouJgkCSwWZI7Azu0JMS5vbIf6p1chngShbQecLejUOEYy9IgRZB0TyJAON8bsheJH18Pqx+12+2tobM85vxelCwjwDg8PrwKm/v7+/pye8LNOp/OnPJOEe8E99QosZ+XSKsFl6tOCMQR1HiX5aCW6l2v72RBSQGXuXmvsu5VS6NI3Vnpy6p8+/WfARggqlQqaoyGu9EGnuncftHeHh4fBXYHsBNyVm51W7H2uHSwKOfGURuEiJBdWFS4iWNvpdLAxn4AKPiQXINh01113ATQM1PuclAUsitcqpS6O4xjjVkg+FtT9qd4xCkkPQ6kGdG0Ra8kD0qDco73HUyrwwy3SWu+MIsgkSf4P/acppc9AFg1yG+12G+19M+DIOlNaexBj7BnO/UL9FCqjAVyzvRRkqmOcvb8El54MYzaOnhDiFEII5C4R5MXotlSqEIdArczf52jsJWO8ogrZGPMeKSUyO7e32+3luB+owC1btgwAhMxHmls570dtEeccMahPRVGUpaIBLu12O8sW+b4P+QUAT1EvBIIeaP2QWPirC/CiIntpbq1MLtT+5LnFvTzXqfCDVQ0xJ7hz+IYG8Vc5Ua8PoVvAU7ktiEExxnaC9k7OrAUwioULF9onnngCJwN44J5CdJF0WjRHOVbv97rdLkCnEIKaqzG4Ce2WElwmNFxP+WK0kcgEjrTWh1hrQ0gXpGmKzokIhP4y527M1YXV8H1/b2vtLmgIlqYp2LFr9m5GFumZqIrudDpHwoIbDS5owg7LBW5RtVq9aPny5QAXHKDyIx28ByqY88Zm2KhIN081eFtMGmI7iK8cJ4RAk7pn5Xo36HUC7ePzHaMYKXDsiUIadM0Jh2wEZDUOCIIA7WEuRsfGNYoM/Uqlsr+1drs0TRe5WBzcwVNH1Rv1bsXN8jOV4NLbCUKyCB0ToVi2HUSfsICttfDLofOB1hFT5WdM+oqnSKrD5gSJDsWaV7lg60/yIGtxPZmF4/v+NgCXUbVFq8SikFGL4xidB5cioDs0NARwQd9ptFl9PcTD3cYGEPc6k5JZlnBZOefvEkIcjiB0p9NBrAW6veh1dHYOmGsdXyEEmtCd6LRsDguCAMLgX1NKITsEYadME0ZKCe1kBKrBaXnCNaD/ZZqm/5WnntdsmjfpuZwLbyzBpfezhIAueh+fWoALFO5d4BDBy7Ga1ff+CqbxjJVK5W0QQEKvnpGRkSJdu+oTfd/fFn2drLUQmEJA99NF4aK19hJK6fOhxgf6//Lly0+HBu6yZcvOgwxoX18fOiYWwdBe3kXmVkGfV0r5SsZYCMJc3nPqsdyyzHRpnuqAHIS19k1wpbLW2JkCNTmdMXY1rFRYq1prMLN38zwP905y9xGiYcgUFQWN6/qoDeLvJbj0dhrha0Pe5TCkNKGYj9PrrNuGuRZCQHlatbefOoNnA4kMdUP5UxnCSKsdeczlg91uFypyELLOLBdYDo1GA7R56A9DzR/tNtAfBJ0f/+Ba0v4vxKKQEs5FxXt5V+iHjQ3+NkLsdoxxNBMiaN0KZjEhBNYH3JunOlCCgGzgsbmGTBavEUKczTm/Dn2JtNYmCII3RFGEFDqCxXjNoOuDdAosmDmeNZzwfJTgMuEhe+qHW55eROP01zjSJ8xhadDClJDllNJfuUAgBI5GizX39gqm/2yeU5I7CS5AmqZwJ8DpWJUiRqrWWvtfrmIZFgL6MYH/ctqSJUvQAI6iRceiRYvYihUrtqeUvsrzvIcQvG02mwikTgcfCACHPs1oBQPyWw3BdkiPJkkCLRgAH2qI1lrjk7uTIWPyOErtCZQSBJ4hc3k1pDud+v/fAIiwhoIgAD/nHQj6MsZGoP/rLBaItSOgu8HWEY217EpwmZ7NiEzBno4L8RFr7QuklBVCKdFK3W+MQUnAV0dJIU7PFUzfWcHaPQDMWWvtva7XMUoCEADNgqCuvQha1CJdfaRAF0ZKAS4f32abbcRdd92V8VWklDszxhAYBUv267mq/1jiUFO9C1AE0KQeFH9YW5XcpYGw16Po+e20WX6E9k9PxTkZFat6FtjYjLHnoKGZtfZnSZIAmAoeE/bTpowxZMqe5XSJm8isRVEEEuCcV5ab6GSU4DLRERv/69ELCI3OT3d1NFtZa9FpD5IMSOFCNR79gvHzXDuwZhpoFg9FNtdHOasPyoOwmfyk6x5wqpNkQFuNLOYCJbqi19DCBQu2GWk2kW5eEIbhFcPDw5A1KKyfXo5FVrqQpMkxxJJPo+tk3oUBol4r4Io5UIAFhjkAsI03iweZBrCwkc0qKreLfVSQ4hA8xmvw++I1GzRhrrRcerl0130uLKyKCx5+Dua/lBJ9gaHwDnMaGh7vhsrbNGRG1n1lPXhFo9FAun2/XNgJPXay7o4DAwM7OiA9vdPp7M8Yw/1/qtPpfJRQwvoafX1CCBDsOkmSXNVut2/twaWs7RSh7/vHYZwdzf9ZkI3IdWcQ50HHyDMIIb9ai5xmLy4L2TWsgV6l0ntxTdk5ppg1HPd1lJbLuIdqUi9EgHdHdByklKI8AB0VkbWIjTFXgFuRt3pdb+npSd3VyjamS4QQiD1AMOsbrVYLFoBtNBpbKaXehZ5NUkoU7J3earVOX7BgwdPiOEYbDfB+rm+1Wsg0TUeMJbuler3+BqXU8UqpvdBbGkqBueX4R8bYBXlgHaA4nRZFr8h/k5ymsd9WgktPh3O9nQyLC/GXV1JC3kQZO4Bzjj7HcI/Q3hN1M+C//GXStTPrZ/lm9xWGwS6ci/enafqfcRzDvdH9/f2NOI6311qDEg9yHESmluedAga01v/bbDYR5JyOlDMmGjot+7lmZG8zxrwoTdN5sFpcpTOydmj/AcY0xvxJKnPrbZVsoB9cWi7TP7GIRyxghBxOOT8BfY4ALjlH4g5jDAKKxWLvZeXvtN9Zf3//Flrrkyil1xpjbmy1WujNxEYFb+XChQs3B/PW3eeuyJZ1u92idGA63AXEObYNguD9cNm01psYY0BsxHiDDgBhqwtc+9TrZ6O7Mu0Ttq4P6PGDaiMGlx6P5NonrqidQRe+Vxlj3ufYoE/3PI8jBoBePdZaZJAAMFlz83Wtgdny9wULFtTjOEZ698Xu6zewDMIwRFxFtNvtpWg+VqvV9nLVzTuDJl+tVq986KGHpisdC10duGhHSynfYozJLBaAuBAicYWUsJb+UykFOYXpuobZMjWz4jo2YnCZ+PhPAY4KgEHFMKQE3hQEAUhWWS9ipdRyRziD4v338sK5InMxnfGAiQ/A2O/w8mZg6OcMevtzgyCA+3OZUgqSl32c8weWLVv2/TWD11MYzzWvBOOLlDO6YL4HgFL02wa5zRgDuVGUZKAeai62fOnVXM3oeUpwmZnhLsYZKUr0Yn4HJAnA88Am8DxPK6UG0TJVKYU4DIKdyDYg4DjbDymlPL5arR7l+jXt3Ol0QFJj/f39uPZrlFJXhGH428ceewwu07QcQoh9rLUAjyNcj+t+jGkeYyFJktzs3KLTnB4NegPhmsabcp6Wa92YTlqCy8zONsZbep63XZIk7xFCHOzo42jb8f/bu7ZYSY7yXJfumTN7LsY23o1YJ97EGAxYUUCCBCVYRIbwEIQjQRRLrBNHJgKJ8JAnUMLtAR5CghJbG4LwUyQnL+EhFwgWIhK3KCASWYCwIcb24oXIyDYK6/Hx9HRXVfrr07WM13v2zKUv1d3fSKM5l56qv76/+uu//r/q/2HBwCfwsHPun5EkqXTygmCwTAr5hkAlwmudc3cZY96CseBQIF7luaJ7sa2/ppA78PmtyWSCNJOvT9P0JIil9GnB6vuyMQY7aJEMG/l0Qsax2ZnYQG/9JpcV7O4VLq1CLbgpfjOO47dJKd+U3wBIQFRkns9r4CAD/heTLLnPzA1qHy1miA9tmQTY8IbX9GNKqT/QWh/H71mWwVL5k4Us91Xg5ttA3t1r0jS9JU3Tt8JyyTPAoQStL0yHvRxfKM8M3VeeSF6p/4bnw0qydeXi5smFWise6uWu1l/HQTgpJcqTwMlbRDbypEw/RQH4vHwq8osgTI09JMUmtcAmlh+H0Vpjo+CtOL+TpikOHyKz2yfSNEWaiSpf2CEL5zjCze+QUiJx0wQWS5lGIUXfSqm/NKYgZ5/JrkoZ2NYSCDRPLksINaBLsH64SWt952g0ui1NU+SoLaJIWEbkVQ7PK6Xel+dsxYla7ItZvY5wg2CixpAQ4iX5SWOdE8390+kUS5EqZR6Px2OEv293zr0nT1V5xfb2NvwqsFgAWmKMgfP23UIIhJvr2kvTIKrd7WopcqGxUauCCyevUuoPtdbY1YqncnHDIP1AlmU/dc7dm9+0CFfDGggxjOqniK+7jD0sPsl1VblvoYQ3SCn/GOeatra2trMsU7PZDJYesJpKKb+utf5IlmWw9rCcDM3Sq3UiLdN4k/fyUuSyjNBDv2bDLdWeYN6klDqttUY95WK7OjLrSykfc859N/fP/OdsNvubMhdryMukw9JErjpN5IkTJ45Np9PrkyS5NcuyW3CiWkp5VWndiXIZedZa+/l8ifRpZPAnsawKcz3Xk1zqwXXdVq8VQrxRa/1WpdTNxhhkqkdbNk8ejXM45/KzMlgi4cAdDj8igXXgm+7WflaOxuPxL6CMKyJC2NnsnLtOSgmfS2GtKKVMnt4Aic//xVr7uSzLcBCyC+H7dedHp75HcmlBXUdYOVfm+0OQrPp21CR2zp1EatoyqxmkxTLjn3D4r3T24oYCyeDl9RlaVOkolH3dIlwHP9RV4/EYhcde45y7RUr5uqL+x0FWPyyBcPjzPBy31tp/tdYi1Iy9QTUsg9Ymx6PG3Pv/P4dcCGMw+obv4rq8uDmSVr9Fa42dvUh0hFKxReoA3GC5D+KrSql7jDHIzwrnJawb5CapOsF13cBgWRjt7u4eS5LkRcaYV2qt32OMQfoGHH4stvGnaYpxY4wY6/15zto/F0KgouXgEjHVrZAq2qflUgWK1bbh947gE0uAm3FcIC9u/wZsfC3MEym9ryHNsgw3G7a0wxeDNA54gtdxKLDaUT63NZwcf8XW1haWg6f39/dRAgThZQ2LBdZK6VtByPtrUsp/yHcDY6MhwsyVVGGsc3BDbZvkEq7moZuinIcQ4hTO7OTRENRsvhV+GBgucPaiFOn58+fN3t7eo0mS/G+eXhIH9L6yvb39xTLzfOU335oW7uLXsAw6tru7ezJJklchCmSMeRmOQ2DHMsLxZU0hkAoc18h/A6vtHqXUfaPR6Fv7+/tYCnbNQgt3ttUgWRDksuZkrRCO9iU4ZDAgF/gR8Plzua/lV+CP0VrfnIenXxxF0QuUUjHCsdvb23Y+x+Ffi1KpD6Vp+oDW+kFEmbIsQ+6Sx4UQ+wt+ibr9M0Udo4VkTAWh7OzsICMfahsh58tNaZqecs4hNy18TREsFLyzLJtjv4yUEgm8v2qM+a8ysRaSm/tC7xXOATZVNQJBkMtqgwqWCFYbxupXg2Dgi4El89ta61cjlUGe8PslSilUAiycnfjEzZmXUDVRFH0/L072Ha01wthn0zRFMbJzaZoioTSiKt5Hs0gCK0l2kTYuXtIhA9xefiDzeJqmP48t+nlJ119SSr1MKfVyRH+MMZ6ECmusjALh5weklI+itGuezPvfy1QJVYW4VxojL14PgQ6Sy3oD7dm3NA4Lzmaz1yml3hzH8auttVeUoWukQAC5+IRUnnBmaZr+COeWnHP/LaX8gVLqKRQ4Qx2h2WwGRzCWIFhqFIXhFwqm+yjMInmAFPwbEZ7o2LFjsbV2C7WJrLV7+WHGK5VSN1hrX2Ot/Q2l1ItgjfiiYljWaa3hmJbWWpdl2TNIP4ENeHlpjk9HUfSP8/kcy7waokCXmxGDfYA9D5RNkOgtuWwCSkeICEPEzb0jhHjxZDI5jY1mzjlEli74ZMqUmt4J7MxBCnwbRRHCufvW2h/m5U2/aYz5Md5Syh9HUfRUkiTYuo8KgSieDgsHNzhIBNYTHLDI+rYzHo+R1vIaWCVxHF+tlII18lpr7dVSShAJsu7jzBROS0sQH6I+eCM73Hg8Rj1t+G7nURR9aT6ff7zcCIc+Pcl1RCX9E3OTzaG9JZf+qfnQEYFgtsbjMZyj2BNzPerqIIQtpTxeRlyKL2O55IkHyw84aKSUcJY+gyJfo9EIG/LmSZJk4/EY/8vSNAUfWVgYSikUQkO1QhXHMfwh6tlnn9WTySQ2xqDoWZyXrUWCqF0pZYTmyxSTxWll/yqtFUS6zu/u7v7PbDb7nDHm/slk8sh0OsUZKr9ca9hiGdCsaWCorZHLJozYAC7BdnEZ3OCTQREwhKtxgBBO0mvzioCn8gLwNzjnrodTGDc9liHlXpkLpFMuVQ5OTB74bop9a74kB/7u99j4Osn49H6exfa832TxO+W+HOxHeURr/T0p5UNZlv1gb2/vceTVRaSrdDj7KNmgirYHO+E2EIzksgF4bXx1CVKGeQK94qmPCMx1JdEgv+wpIcVVUkg4gF8In4hzbhtZ+lFqFaTgCQE/wyfinazeT+LH7H/31pCPCkE++E+klM9orX+Sn15+KsuyJ0vfDnw8iGA9mGUZEkjBSimWaTWXIvbzBwAACv1JREFU+GhDVYPvszVyGTzyzQMAi2WvtGZulFK+HBZNac1ck2WZttZGUso9pdTV1toYtX5gmZSVCotl1ULlggtEVJYtfSpN0/2ykDzCyI+PRqOHrLUPIDm3EOLRMi8Nljzcn9K8/hvvkeTSOOTBdIhlVCReKEbiSXHVaDSaWGuP52VO34gk4lrrE/CZwILB9nts1sPPnmjKMz74u03T9EtKqXullN+Yz+dwAiPisxh1CmbQFKQ5BEguzWFdT0/rh8W87rGMAtHgE2d6fl9KeacxJoal4pc/IJjybE8xDkR98MYSSCn1mJXyo+lshgOE2JLv/SVdO0BZj44G2irJZaCKv2jYIBecY7pDSvlOpdQvL2xm8zWWC8vFHyL0DtyyNtCzeWH5M9bavxNCIAVCDa/1WbQGYdjkEgiQXJYAaQCXgFxwlOADIBcpJTbCFcNejAKVBcaKqJFfFnmLRgjxWaXUJ40xn6VzdgAzZokhklyWAKm+S4J6Gp/Mo0MfxpII0SYsgTy5+NCzXyL5LHBYFsHpu7+PI0vi23kE6kxe3uOewZJLUOqsb9Yu2zLJZVmk+n/dTZPJ5L3W2tuSJCkKD5X5mYooESwUTyq+TKpPxVn+/2yefvLuJEn+qh6ojrhzeWPXA/sRrV5ua8Tm5LKCUle4tHqgWu28+uHU0OIrlFLvlVLelhczw47bxZKoRXd+U50vleqXRmXI+pwx5q78TBHKodCRW4OCutbk5uTStRFT3sMQQOa7D+anp+84OClQ1E+6cK23Yvw+F/+7/3TOPeKcuzsvAH/35ciFHN/BCbim0kguHdR1TSKDXD6Egu1Y/mAZ5Pe0LC6RFgnnwlmlAxJ6WEjpyaUmEdlslxAguVSlrTXZvaruK2gHeWE+4Jw77R23C0nBL+x38X6Xxf7K/TCF5ZIfObirAlmCbmKJIxiNyx+iTCSXxqdBsB2+VCn1fpJLtfoJ8aavdoSHtxYkuQxZIU0p/hL9kFxaBL+PXQdJLnUC3f3VS23okFxqg3aYDQ+OXIap5qVGTXJZCiZetCwCJJdlkXrOdb20f0gua82FFb/Uy6lzaQxILou4DEjxNfhckKkfkaLeR4tWpJPBXk5yGazqnzfwTS0XkAtC0X+9DqTD5vWjEOsmOsMhl27q53mzrsZIWqvkctTtxf93D4HhkEv3dNO0xCSXphHveX8kl5YVXJtBtXrDJJeW50Lfuie59E2j64+nOXJZnfjWHxW/2RoCJJfWoA+u4+bIJbihU6A6ECC5rIBqzx+4JJcV5kIrl3ZsApJcWpklQXZKcglSLd0ViuQSjO5afyyRXIKZC/0QhOTSDz1WMYpN87lstImuigGwjbAQILmEpY82pSG5lOjXuFGxTf023rckkI1j3lqHR+ia5NKaZvrZMS2Xfup1nVFtSi5ny4OLa50tWkfgfnyndV9bbTCSXGqDtisNX5jcG5OLlBKlRUguXVF9zXKSXGoGuEPNk1w6pKwDUcO2ekgunZtQtQlMcqkN2mE2THIZpt4vNWqSy5JzgUGQ5YAiuSzi5JwUUg61FGkvyOVnC4WwlwzL3Z5VX9UsJiQXkotHIFxyafaeqPqO7nl7hyuH5NJz1a8wPJALiqLdvmbFxbOMFq2A9gAuHSa58El4qal9Q1nOdV1yeVQe1IpmKHoAxLHMEA8hF959y4DXs2tILj1TaNvDqchyIRm1rcgK+j8lhPiQ1voOrbVI01SgEH0URUURevyOF4rO+wL11trib1tbW8IYc84Yg010H69AFjbRAwQqIpceIDHwIYzH45dmWfZ+KeVpEAiIA28QDcjEGFMQCz7xu/87SAcEZIwp6hZZayusW8SHVpenJcmly9qrUPY4jl+ptX6fMeZ3syyTcRyLLMsKqwWkAjLBO0mSglxGo1Hxd/wOwhFCPCilPGOt/dvcAhpqOL9CjbTcVAW8TnJpXIdHaK0Cpa45pBtHo9GfOufeboxRsFoWl0AgGRAKLBUQD34H+cBqwWccxw/FcXxmOp1+QgiRrSkDv9Y0AjXON5JL08oMt79rczL5sJTyTpAKyMOHpPHpl0MgGPzs/4efd3Z2QDrfN8acSdP0jBCiMGW69qrxPusaFJXIS3KpBMbuN7Kzs3N8Op3+WRRFfxTH8cQ7cL3zFtYJXuPxuPgsl0KFNYOfsyz7jDHmU0KIf6uHXHjrd22WVUYu7au+fQm6pvyL5N0RQtwWx/E7oij6VZCLd+h6SwZEg7/5T1gvIJv5fD631v6FtfbvhRAPCyHmHceC4leAQGXkUoEsbKJdBLQQ4sYoin4viqJ3Oeeuhu8FROJ9L3DozmazQsqFKJKRUn5TSvmx8Xj8haeffnoqhEjaHQp7DwEBkksIWghHhjiKol9TSr17NBq93hhzRZqmoyzLCpIBoZTLIbe9vW0mk0nyxBNP/EQI8ZHRaPS1+Xz+mBDi/8IZDiVpEwGSS5voh9e3EkLsCSF+USn1Wufc72itX1VaMYW0URS5PGQN8+Wczex/pCb1SyGQyj6XROEptS2JSC6rIt9v1w5Gh+XRthDihBDipNb6SvhxvQNXay211lgK7SdJ8qQQ4mxprWALL6JE3OOy6pzq6fUkl44p9tKJiiplPDQGCyYu8yji98W3Jw984o0zAHDgHpwF4IsIlAiQXDo2FVrKgnYxuXhiaR69Snm0efGH1CPJZUja5liJQIMIHJALnwYNQt71rjhZ6tRgn9Cl5VLnTGHbRGDACJBcNlZ+n541G4PBBjqKQB2zmMuijk4Gik0EQkeAlkvoGqJ8RKCjCJBcOqo4ik0EQkeA5BK6higfEVgCgZb2P11WMpLLAjwhKmiJecVLiECQCJBcSC5BTkwK1RwCdT1USS7N6fASPdURAGx1QJfsfBijDA93L1Fb+JNcwp0TlIwIdBoBkkvj6mvrOdL4QNnhUBEopzjJZagTgOMmAjUjQHKpGeAhNU+bbEjaPnqsJJejMeIVRIAIrIEAyWUN0PgVIkAEno/AxSFtkgtnCREYDALNLlxJLoOZWBwoEWgWgYrIpVlGbBYi9kYEiMA6CFRELut0ze+0hwAfBu1hP5yeSS7D0TVHSgQaRYDk0ijc7IwIDAcBkksAuq7rVGoAQ6MIPUVgmYV1d8llmdH1VLEcFhHoAgLdJZeQ0a2A+CpoImSEKNsAECC5DEDJHCIRaAOB1siFfoY21M0+iUBzCLRGLs0NkT0RgdAQ6OKid3WZSS4hzLvV9RaC1JSBCFwWAZJLnyYISapP2uz8WEgunVIh2SN0ddGX+DMNkVxCn62UjwgEjsBhj7xgyIWMH/gMonhEYEUEgiGXFeXm5esiwJXVusjxeysiQHJZETBeTgS6i0CzTxaSS3dnCiUnAkEjQHIJWj0UjggEgMCaBg/JJQDd9UqENSdirzDgYAoESC6XmAi8P3h3EIHNESC5bI4hWyACROCQhzSBIQJEoG0Eemgu03Jpe1KxfyJwOQQ6TDoklyOmdpd0y13Oy/BUlzS6zHjCvYbkEq5uKFlTCJBvakGa5FILrGy0nwiQhVbRK8llFbR4LREgAksjQHJZGipe2BkEaGAEoSqSSxBqoBBEoH8IkFz6p9PejojRsG6pluTSLX1RWiLQGQRILm2pqvQL4MM6J6WUri1R2G/HEQjUxzQIcgkU+47PaIpPBC6PwCDIhZOACBCB5hEguTSPOXtsCwGasI0iT3JpFG52RgSGgwDJpQVd8wHaAujssnEEgiMX3niNzwF2SARqQeD/AUqGXVEFpx/jAAAAAElFTkSuQmCC;clipPath=inset(14.87% 14.52% 20.97% 25.99%);" vertex="1" parent="1">
          <mxGeometry x="60.91" y="110" width="138.18" height="149" as="geometry" />
        </mxCell>
        <mxCell id="-UijNQ77xzfrEZaJvv9a-19" value="" style="shape=image;verticalLabelPosition=bottom;labelBackgroundColor=default;verticalAlign=top;aspect=fixed;imageAspect=0;image=data:image/png,iVBORw0KGgoAAAANSUhEUgAAAYkAAAEWCAYAAACT7WsrAAAAAXNSR0IArs4c6QAAIABJREFUeF7sXQd4FMXbn929nk4SICSA1FDEAvnTpAoKAgoCiSBdlA4WwC4EKZ+iAgIqUpUOEVCBoIQqVYpICR1CCS095HLJ3d7ufr7LTRzWC7lL7i5Xdnl4Lrc3O+Wd2fnN2ykkX95MAWr9+vV0dnY2fefOHQohpPD399fRNK02GAxo1apVioyMDGWNGjXCw8LCasN9mqYpk8lEcRxHsSxLFRYWoitXrgSnp6crEUJmhBCHEKqGEGIRQjxCiEYIMQghf4RQEEJIgxCCtuA3/B+ewWVTEELZ8IxCoTC1aNEil2VZFBgYiJRKJWIYRqAoSjCbzWxWVtaV9PT0DH9///y+fftC24jjuAKTyVRg6Qs/efJkDsp78yTKY5MpUJ4UgJdZvtyVAjA7dmx/sbGxKoZhKuXl5b1I03TAuXPnNFevXtUplUoNz/MKpVLpr1KpqlMUFa5QKOjc3FzGbDYrBEHwEwQhGDZuiqIQAAXHcfApUkYQBEoQHuqItV7htWRtTRU7Ckt7sPkj+Bs2fEtbPEVRuTzPGzQajcnPz48TBIFnWfYOy7I3OY7LEwTBBL8//vjjBREREYU0Td9Xq9W7lErltYSEBAAmz7nsnOvyHpiHdbe8yeXR7csg4UHTt3v3bsWdO3eCDx48qPrjjz8q+/v71zx//nyg0Wh8QqVSdcrNzQ0WBEFL05SfIIgnfHF+eR4O8UjchB98UOI9+JRs/kXlGIZBZrMZKRQKsSyuw5HkwgCB+2IBJBGccHvk37ivGEgsoILHAhwILwhCvkajyVEqlak8z++qW7fuRY1GU5iXl5fSq1evW3Xr1jVHRETktG/fXuRMynLJG2VZqCc/6ykUkEHCzWcqMTFRvWXLliZ5eXkxu3btqpiXl9eB5/mg/Pz8EIRQqEXUQ8OmDqdxvLnjDRQPjwQFDA7kBkwCBr4PdeHN2hqYlJV0FtASxUwmk0kEB7Id/F3aNnzHz1rrA/wO4Ab0AO5DoVAAF5IZEhKSaTKZckNCQnZ37tz5HkLoVnR09LZ33nkHxFfyJVOg1BQAbttbxZ4PQEI+EhWzOFxDmM2bN+vmzJmj/euvvyIVCkUVlmUrMgxTRafTddfr9RVzcnJCaJoO4nkeOiSKfshTNGyycOqXbp54s8ebJuYM4DtsoMVdZN1QhgSTUr9FxTyIwY1sB7dPggPBRRQBCZTDQIbHDqCmVqsR6DnwPfwsfFpEaKLeg+O4wvDw8DsKheKeyWT6lWXZVK1WexchdK9Dhw63evTokR8XF2dy9Jjl+mQKeBIFZE6inGZLEARm0qRJTe/fv19n6dKlbQsLC580m81RCKEKgiAosKioOJEQ2e1HiY0cwQHY0odSk/EROGyt3dL0xdZnLGIsIyjW1Wr1JYqiDjVu3PhMhw4dTnz66afnQJxV8jhdc7AouR9yCZkCjqGADBKOoeMja1m/fj0TFRWlmjhxYvjx48drR0VFPWEymWJv3bpVh2GYEIvyuKgOR2zsLhiWVzaBAcUizhIYhmE5jkurWbNmCsuyuw0Gw+4uXbqcHjduXEGTJk0KbQMOrySVPCgfoYAMEk6c6FWrVlXfvn17zPr16yMRQs04jmtpNpsjgYtQqVS00Wj8j2wdK5Wd2C256hIoINXVgEgLLrPZLNA0XahUKlNomj7PMMz2vn373mnUqNHlypUrX4iLi/Msiyp5JcgUsIECD4GEzCjbQLFHFPn++++VK1euDLt8+XLLyMjI2PPnzz+h1+vr0DStIC2MSPk6KYsvLw5Cnvd/J1XCSYggTir9AUCIe2Cua6Io6lZUVNQWk8m0qVatWhfffPPNezJglO1dkp92HwrInIQD5uLYsWO6GTNmxGzbtq272WzuzvN8JM/zatHcgfAvIBXLUuUz6S/ggC7JVZSRApibwFZUeB6xoh3fh3IWIwBOq9WC38YNmqaXLly4cEf9+vVPx8TEgNOhfMkU8FgKyCBRyqkbMGCA3/79+xtrNJrHCwsLX75+/XpzQRD8wRQOqiStdkhuQdqcdBOyVclaym7Lj9lAAam4CT+CAYG0qILfpNwHTdPgPJhRp06dQwihLXl5eWeqVat24dChQ1k2NC8XkSngVhRwA5DwHGEHAMCKFSseGzt2bN+8vLxeFEXV4ThOjRBSudWsyp0pNwqQgAGyKIqiTCqVyshx3OXAwMBv58yZs3ngwIFp5dZBuWGZAnZSwA1Aws4el1PxTp061c7MzPzfqVOnPjaZTPVoOC4Kwn89lj0H88qJkr7TLMklWsDDHBAQcKR+/fprK1WqtGbz5s0ZvkMNeaSeSoH/goS8yRXNZXJysiopKanGzJkzR+v1+hcNBkNFjuO0OLSFVZDw1JUg99thFCBFhhLOAnuVF/j5+Z1XqVS/PPfccyvXrl17jaIo2TLKYTMgV+RICsichBVqtmvXTqHX69tfuXJlcE5OTndBEHRiwKMHwe4e8vJ15GTIdXkPBaRcBNZnkOFEIOKt2WzOjIiIWNmmTZt1a9eu/dOe0A7eHArCe1aC549EBgliDuGlu3btmnro0KEf7dmzZyhCqDKEwpBauuCwEdZCW8iKZ89/KcoyguLmn7SKwuFBCLNoTq1Wp1WrVu2HkSNHznz77bdzytIH+VmZAo6kQLEg4WNSJ6p169aV09LSBly+fDmW47jGljwJjqS1XJdMgZIowDEMcyImJmbjY489tmHdunUXS3pA/l2mgLMpIHMSCKHnn3/+8SNHjszNzc19BiyVysupzdmT7fb1+9jJxNp8WCLfsmq1+uQvv/zSs1OnTjfdft7kDno1BXwaJEaNGuWfmJj44vXr17+DrGpYJCCDhHuveW/HEizOpCjqzj/OeB/169dvw7hx4+67ala8nb6uoqO3tOOzIDFhwoQnvv766w/MZvNzlrwMSKVSiSGmnZFgp+QFI7+aJdPI+0tgxTYO/aFQKPQ6nW5Lt27d3l+9evV1x1FAXm+Oo6UTanKj6fE5kADldNeuXVvv3bv3W4PB0ABSdcIUk8AgcxIOWvRutNAdNCKXVCOxgIKwH1yVKlX2KRSKd4YMGXIyPj7ehpDl9nXV3abK3fpjHzW9q3S5gUR5LYKpU6fWmDp1KiSYaYhzNsig4F2L2htHA6axCoXiQnh4+Ku3b98+4Y1jlMfknhQoN5BwNTni4+NV8+fPf16v139kMpmaWWzMES/wCEGkHfmymQLlBfA2d9BFBV1JB4tpraBUKk+HhoaOGzFixIH4+Pgy5+l2EankZiwUcOWacRTRfQYk/P39e+fn5y+hKCoQOAdI+YlTXDqKmE6txxNXFyaIJ/fdqZNqe+Vk/m+apm9Urlz5lVu3bh22vQa5pEyB0lHAJ0AiPj6+wpdffrnBYDC0w6E0sAVJ+SipSzdZ8lO+SwGpQlulUp2MjY19o06dOsedoaPwXUrLI5dSwOtBYuTIkSHLli1bYDKZelpyR4s0kDPAyS+Dx1DAwokpFArIjofUarWYJU+n053q169fjwULFlzzmLHIHfU4Cng1SMTGxjLbtm2Lz8/P/wBSPJAZ4XD4BFlp7XFr1ic7jNcrGd4DwpDXqFFjwpUrV+b5JFHkQbuEAl4NEh9//HGtOXPm7NPr9REuoabciEwBF1IAgMPf3//Opk2bnu7YseM9FzYtN+VDFPBakNi9e7eiT58+s+/duzcSuAg58J4PrWofGaplTfORkZE/vvfee2+50ivbR0gsDxP7CXgjJf7RQ1QePnz4FrPZ3ERWTj9qhmXTI09d/zgvuiAItxo0aNDlzJkzpzx1LHK/3ZcCXstJzJs3L2bs2LEHaJoWA/bJugf3XYRyz0pHATCLtXATxtatW7+xd+/eFaWrSX5KpkDxFPBKkABHuZo1a/ZOSUlZRyYLctRCkJ695bO4oygr12MvBbD/hE6nW5Kfn/+6vc/L5WUKlEQBrwSJ9evXM2PGjJmfnp4+Qs4kV9ISkH/3ZAoQ6VHzBEEI9OSxyH13Twp4LUiMGjXqu4yMjDekOYbdcxrkXpWZAj7KzhGmsYWW/OtlJqVcgUwBkgJeCxJjxowpAglraUZ9Yxn46M7pG5MrjpI4BBkFQdD40NDlobqIAl4JEoIg0KGhobOzs7PHyZ7VLlpJXttMcUDrHgCMQYKmaT3P8wFeOw3ywMqNAl4JEkDNWrVqvXD16tUtFEXRsnVTua0vr2jYPeDAOikJcdN8juPGegXBvXEQ7ryISqC314LEN998879x48Yd4HleCaEMIOaNfMkU8DYKgHUT5Mxq2LDhm6dPn57vbeOTx1P+FPBakFi6dGn4G2+88bMgCC3BmU72uC7/xSb3wLEUwOavGo3mfJcuXV7asGHDJce2INcmUwAhrwWJ+Ph4ev369UsuXLgwCHwlPISTgPRHnjcnHsxKe/ImAFFheZ4X6tSp89WCBQs+aN++vcwue/KEumnfPW9DsoOQXbt2fXzv3r2JBoOhqhyaww7CyUU9ggKWAH+7evfu3WfZsmXpHtFpuZMeRwGvBgnwvA4ODn4vNzd3hkee0D1uOckddiUFFAqF4amnnup77NixX13ZrtyWb1HAq0ECpvLzzz+vMnv27Knp6el9eJ7XYZNYWUfhWwvdG0aLs9PBWARB4LRabeLjjz8+7OjRo3e9YXzyGNyTAl4PEkD2Fi1aaJOTkzfn5eV1ID2wweoJ8lzLl0wBT6CAJSOdGKzSz8/vj9WrV7/w4osvGjyh73IfPZcCPgESIHZq2rRpv+PHj39LUVQA9puQI8N67sL1tZ5bTF0xQKS1atXq1d9++22nr9FBHq/rKeATIIHJOnPmzOcnTZo0x2g01pc9sV2/2HyxRUcZfmk0GtHXh+O4rI8++qjftGnTfvNFespjdj0FfAokgKOYNm1avSlTpiwTBKEpx3E+NX7XLy/fbNFRwEBSDw41Go3m7+eff35Sv379EuPi4jjfpK48aldTwCc3yYEDB0auX79+FcuyrTmOE11W5UumgDMpUEbg4P38/H5fvnz50F69et1xZj+9ue4yzoEdpHFdS3Z0qtRFfRIkgFpvvfXWY5s2bfo4NTW1iyAIEeBHgT1Ysa5CYk1SaiLLD3o2BZz1ypNGFFj8CcYUkggBmWq1ekvDhg0nHT9+/IZnU1LuvSdSgHLWC+AJxIBosX369Om/YcOGzwVBqMTzfBFokjoLDBayotsTZtVz+ljcugJPaojHpFQqrw0cOHBYnz599sre1J4zr97WUztBwjshZcCAAfUPHDjw8bVr12IpilJiMJB+etvky+NxNgUe/b4QYb5F7gFzshRFmXQ6XULHjh0n//zzz1ec3Uu5fpkCj6KAz4qbpES5ffu2rnnz5gtSU1M7I4SCBUFQ4jKyJZQdL5F3niPsIEDpilpMXFmlUplRpUqV97Zs2bKpYcOG+tLVJj8lU8BxFJBBwkJLIAQvCFT37t0rZmZmtv37778nFhQUNEYI0e4c90nekx33MpS+ptLPgoV7YCtVqvSXv7//wrp16yYmJibKHtSlnwz5SQdTwK1BovSvXtmoBKay27dvj3rrrbcGXrly5W2WZSvAPWuKbOk9OdxH2WjvDU/jNaBSqUSPfiy2BKW0JJUuDxnlYmJips+YMWNJx44dM71h/PIYvIsCbg0S5U1qQRCYxo0bR6enp79579695jzP1+J53g+Ln+AUiC1RyL46WsFdXmBZ3vT3xPaxXgH6TlovYZ2D5Z5JoVCciYyM3KPVatclJycfoyiK98Txyn32fgp4BEhYTvGQa6FcLmg/ISEh7NChQy0XLVo0IT8/P4ZhGLXZbKYwUEDHxA2C51G5dbRcqCM3KqUAcAywFoBrwCFgKIqCZVFAUdT5bt26fdGrV6+kQYMGyZyDvHzcngIeARLuQkUAi23btgUMHjy4hZ9ON+ja9evPIoTCAR9wilQSNNyl33I/XEcB4BTwGrCIl0CkdLtmzZqH9Xr9vOXLl5/s2LHjfQtouK5jcksyBUpJARkkSkk4AIyZM2c2+/3335vv378fRFHtOI4TAcPR4qZSdlF+rPwowDMMk8EwzB+dOnXa17p16z8MBsOp+Ph4WaRUfnMit1xKCsggUUrC4ccALPbs2eP37bffVt62bVvHgICA5zMyMtqyLBsCYml8qpTqLwBISGcqKQciO/CVcWJK8bi1+SANE4g5/0/OdNApMAxzLzw8/IRer980dOjQHd27d89o165dvltzDbLCqxQrxbcekUHCCfM9fvz4VkePHu125MiRF00mUy2GYVQsy1Jg7WIymYpaxBsQVnDKHIgTJuMRVUqBGM+DUql8KM8ILoeBHAM8TYN1NG9QKpW3H3vssd9fffXV+fHx8RddOwq5NZkCzqWADBJOou/u3bsVmzdvjvjpp59aGI3GCIPBUImm6fYGg6EWy7LBCCElaQkDG481bgJvSDKAOH6iSOsjqB1oDHoErGzGLVpAAmygBY1Gk6lUKk/xPL8vKCgojeO4S3PmzDnn7++f0aVLF6PjeynXKFOgfCkgg4SL6T906NAKer2+T1JSUjuDwfCM0Wj0RwgF0DQtiqbAIgaDB5hNyiDhvAmSBnSE76R3vQA20AxToFAosgMCAv7o3LlzCkVR369YsUIOtOegaZGlXQ4ipBOr8VqQKG+z2UfNGRD9x+XL/f7+++/IjRs3RkDI8szMzBYsyzYVBAFCgjAWcCiaH5mTcM5bQACFYOHkIG5SDsuyu6pVq5YcGBh4vm/fvqeCgoJuDR8+3G1ThUKwStnXwjlrxNdr9UqQgBemS5cu/UNDQ8/Url37fHx8vNu+3OQC/P7775Xr16/vajab26ekpATevXsXACOCYZhqRqPRTxAEP4QQ4wyvbnvrtLe8m71oZoZh8lUqFSiIbphMptuhoaG5derUyQgICFj922+/HQPpk5v12Wp3JkyY4JeRkdHgyJEjr509e3akJ/RZ7qNnUcBBIOFeTOP69euZkSNHLsrJyXk+IiJiz4cffjhz1KhRpzxpauLj4yEZkspkMgUZjcbQLVu2VA4LC2teWFgYevLkyeYIof9xHMdgk1uch0Cq18C6DvI+GYsKb/YQnho7f1mz6IF7WBSD65TK7h/JPVFUkegMlyMtvMhni7uPy5BiIhKsCIWyWJQQ1/EURRXQNJ0UGhp6vUaNGrcZhjnUtm3bbJVKlRUYGJgdFRVlcodsb/a8Se3atQs7f/78l+np6Z14nocDhdaT1rjcV8+ggINAwr0GCyAxevTopVlZWQN5nhfUavW94ODgV5cuXXrQG5SLEKH2zp07yg8//LDi0aNH31UqlRHnz59XCYIAllQhLMtCuHP4r8M5MkD8Rs4SVtCSCW5KcgQkAQXyLePrUea6JLhAnubCwsL/mI9aWz34OcJjuUixLzEfhhM/KJXztVqtWRAEA8uyN2mazoqOjjbRNH0iJCRk+bRp0zKfeeYZ4CgBMDyCSyjurZo1a5Y2OTn5fytXrvyU5/nWLMvSNE2beJ5XP/pNtAeC3OuddlVv3FlM7SoaSNvxWpAYM2YMBgnxRKlSqa7HxMT83LBhw0WLFi1KLi+CO6tdAMZdu3ZVFQQh6MyZM9q7d+9WjoyMbK5UKjUGg4E5duwYAIYOuBOO47QMwwRzHFeNYZjKRC4DygIq/1kXllDWRcHqrHEsMDYpF0IGtyM3fOBccPA7EmQsG7i4idM0LXAcB34GsOln8zx/n6ZpQCdTUFBQboMGDQrVajVnNBoNN2/e/CMyMjKjYcOGBoVCcbtSpUp58fHx/yKZswjv2nqpsWPHRv7555/v/vXXX315ng/DNGUYxsRxXAkg4drOyq15BwW8FiTGjRu39O7duwNJG3eO4yDbV2alSpXWRUZGzh0/fvz1uLi4fx0XvGNOrY4ClOHHjx+ng4KC6PT0dDo8PFxJUZSmoKBA3FhSU1OZ06dPM7/99ltocnJyDQAUmqb7QBImjuMoOGHl5+fTJpOJAVCBTd5sNoN+pCjvBmCEpfGH1pUgCLBZswzD0CDSCgkJMSsUCo4wOQVDogs0TR9GCKV169bt6vvvv68vKChASqWS02q1BQUFBWY/Pz9zVFQUf/bsWaFBgwZmX1HUwgFg2bJl0adPn377zp07XXierwS6KTzRFlGjDZyEFy9weWhOo4DXggSImzIyMgbi060kWitYslyrUKHCunbt2n2dkJAgx++3YYmBnmTPnj2gKxEvrVbL+Pv7F4GE0WgU1xM4DuIy/v7+8LcJgOHmzZvis82aNWPlEBU2EPyfIvHx8VVWr17d4+bNm5DfpDrEq7fGxSmVShPLso7jJGTJlG0T5AOlvBYkQNyUlpYmgsQjLnNYWNhffn5+b6enp6f88MMPmb7CWbjl2pY3JnFa4uPjNfHx8eF16tR58u7du/+Xl5dXDyEkJr62dlm4ZaMgCBq3nFe5Ux5NAV8HCSxDB5PIlMDAwK3du3dfsXTp0r99RZTh0avXyzoPnNqxY8ca/fHHH28XFhZ2ZFk2AhiH4qzIJB7j5QYSMrZ72UKUDMexIFHOqwVbJoAM10ZO4qGwzhCIh2GY2/Xr199mMpm+Gj169LWsrCxZNOLd70C5jg7W7JQpU9SbNm2qpVar3z1//nzr/Pz8x0APJM1sJ2p8rNhlWcRPhSABLNfByI17JQUcCxJuQiJsAot1EiV5K2NzS+i+JR8AmEneValUhwVB2DJo0KAz7dq1OymLotxkgr2gG8uXL/fbuXNnvcTExFoIoZdzcnKeZVk2DCv3sTUZtjyzlmed9BGhadrI87wsbvKCteFuQ7AJJDzNdtjiTLc0Ozt74KMcviyAUOR0hR3KYJII5SCc3bKCgoJ2P/744xuDgoJ+27JlS64sjnK3pez+/QFx0ubNmyuoVKqa165dGwOWShRFhUCEAHxAIUcB6xMsl8BU2LouAoISPjjYUBTlA9ZNrhRVuLIt9167NoGEew/hv70jQcLaCexR47HmGEZEATWo1epkQRBO9OnTZ9XEiRP/bNiwoU+Y0HraGnCn/l66dEm9Y8eOBuPHj+8pCEJXjuNqmkwmf4qicIyuhwI5kroGW7hgGKsgCLAOHWfd5E4ElPtSrhTwZpBYlpmZOYCiHpy2HHGRnAZCKL9Bgwa/VqtW7e/r16/v8ff3T69evfqthIQEGTQcQWwPrmPYsGHKI0eORBoMhoq1atVqc/HixcbXr18HcAhgGIYCb/WSvNttHT4GFNs8rm2tVS4nU+BfCng1SGRlZQ2wnLIcMufA+uP6CM9iAIU8jUaTX1hYeFKr1SatXbt2a8OGDW/XqFEDlIk2XZ4m0rNpUD5UCDzaL1y4UHnEiBE9CwoKWmu12ify8/MDBEHwFwRBBeouaTIjR5CH4DpYSzuOqFauw+kU8BxxlteDREnsuj1rgYxdhMVYuH4iDwE46uUpFIqtLVu2PBgeHp6kUChyVq9enebpMYPsoZUvlH3ttdcCUlNTIwMCArrs37+/aVZW1gtms1nMDQKe5RavdKRWq8WMhHj9YE9zKFPWSwaJslJQfr4kCngtSIwaNWpZRkaGyEk8KgBdSQQifwcRAbz48MJbi0RK3oNgdiaTqTAkJCTTbDbf0+l0f/n7+/+mVqv/fu2117KbN29e0LJlywJ72pfLlg8FgMu7du2a+tq1a5opU6YE37hxowlCqP3t27frMAzTwGg0VuQ4DjzPwSFa7CQ+NJCJpDAXai0LYWlHJoNEaSnnjc85hzvxWpAYN27csrt37w4gzQTLsixIGbLE9LAo6B2unwxqR2aXs2weHASqoyjqWP369XfXrFnzFs/zh+vVqwcZ0HJmzpyZV5Z+lsuzzlmb5TIUaBQMH/74449KycnJATqd7umUlJSa586da8swTIzZbA4ChTPe8CUObWKfpdwrTVGIt6Snxb85gsOVrG0wgQKxlnzJFHAoBbwWJMaMGbMsLS1N5CTc9bKY0RZqtdp0jUZTwPP8+ccee+yyn5/fseeee27b5MmT9bKprfNnD0xQExISFF999RVkBnzhwoULoUqlsrlerw82mUyhCCGIoFsUs8r5PbKvBQtYyNZN9pFNLm0jBWSQsJFQzi5mJX8Cp1QqT5vN5o0dO3bMYFn2al5eXhrLsqZ/PHMNlrwYsDHkeGFIbIeRG7iCK1euBBqNRvWff/6puHDhglalUmmqVq1aNSgoqOqhQ4fCb926NZiiKAizLoqMMNfoKDGlwwZTTEUySDiOwl7GFDuEMF4KEgnMmDGjy5+TsGPFkbJscmYt0Wt5QRBARAW5EjjIHaDT6Qo4jss0GAwnoqOjM6pVqwa/7QsKCjq3YsWKfIesDg+sJDY2VmsymZ5mWfYJlmUD9+/fH65SqRopFIrwwsJCncFg0EB4c7A6QggFKBQKCqLWYmDAGf5IvYGjRJbOIqcMEg6grB3vaqlac3b9peqUbQ95KUiIsZucChLknJdl/q1wEEWOVXjjItOFwrSSVjIgAreUg08IzWDUarUGrVarN5nYddWqVb1WuXJlEGXxJpPpTkpKyvX69eub+/btKybk4XmeM5vNhRzHsY0aNeLS09NFrxLI2TB58mTI+OYgLxPrC9ISu4hq0KBB0VoMDw+nILdFcHCwQq/XqyAcOYQhz87OphITEzVZWVkVwsPDa3Icp8jPz2fOnz8PgfBe4Tgu3GAwBEIMI+AKAAAgBhKQjLRCI3VGYGEEwACfhFnzQ8mV7EnTattr59hSMkg4lp5ybQ9TwJtBwpZQ4eW+HjBISPJdPNQvvIlh00lr5rfYioYEEcvmIab3VCgUPMdx9zUaTRYkAdLpdGYADkj7ybLsNZZl71EUVWg2m0EBCvkw4Tdj7dq1C6pUqcKBbiQkJISH9KPY3t/f3x8CIkLWPzEpETb9tPRBMBqNYA0GzmO0Xq+n8Tj8/PyolJQU5uTJkzSIgRQKhcpsNlOWsgxN00qGYfwUCkUITdOVKYoKp2kaQmVG18lMAAAgAElEQVRDPWqWZf0EQQiF9iwhLcT2MReAaVAcTQlzZZHOUk6hpO/lvmgkHZBBwt1mxLv6U04gUZazd8kTYAnwt+SfHBGDSi4tl7BQwBrHIAIMEXu0JK6CXE+4rLU1hu+Jp/xHzEA5rU/PWBMSnYmsuPaMafO4XnrlS2iJ3bQ4MzNzMMyIo0IgeNzsyh32GQpAgD9BEOTYTT4z464bqDeDxKLMzMwhMki4bjHJLZUfBeTYTeVHe29v2WtBYsSIEQuzsrJe8/YJlMfnuxQgxU2gP5LTl/ruWnDmyL0ZJL7NysoaZk0x6UyCinU7V+Xi9O7LDXgGBSQgUSgIgpyZzjOmzqN66ZUgAcld5syZ83FOTk48BNNxRAgEj5pVubM+QwEcLwwhlC0IQgWfGbg8UIdQwJbzrFeCBFDPz8+vU0FBwTYwjQSQcHeHKIfMuFyJT1EAAwTDQO4i4UeO40QdnHzJFHAkBbwWJD766KOmM2bM2A/etThya9kIVxzm2oLFZWtZflqmgDUKAEhYDj/mmJiYsUeOHFkgU0qmgKMp4LUgsWbNmqp9+/ZNpCjqcXzisjeVqaOJ/aA+GVScQ1ffqxU7YlIUldqiRYse+/fvP+56Ksjr2fU0d22LXgsS4Cvx1VdfLTt+/Hh/cCx299AKrp12uTVvoIBFcS00a9bsm86dO4+Pj4+XU+d6w8S62Ri8FiSAzi+++OILiYmJaziOgxwARYlgyBwAslLbzVakk7tTWt1UaZ9z9HCk+Stoms5+5ZVXnl29evXfjm7LtfU5lyOR0wOXfja9AySKWV/x8fGqxYsXL75161Z/iPMD4ibS+xpi/UBSet+7nPtCuiM9pWG/8WaLRZE4nhMZ7A/fIwHCWvhw6e+koYSjvP2l4AA0FgTB2KRJkynHjx//P3ekudwn76CAd4DEI+YiMTExvE+fPj/k5+d3YhiGAVDAL7F76Ci8YyF5yihgs5VmGSwuECC52Us5UQAT+B3nqSZBBx9GrOQ/LxOZCHNXkStWq9UnunXr1iMhIeFGmSqWH5Yp8AgKeD1IwNhjY2Ojt2/fvlOv10eS6URlUZP7vxuO4nnITR5GjfOVsywrbvYkB0F+9/f3R08//TRq3LgxRLsVI+AWFBSgy5cvo/379yO9Xi8CBdZ5QT1QNxxGsPURrLmyHkhIEII2WJYtePbZZ8dDZIG4V+I4MQyjfMkUcAIFfAIkwKTomWeeiT1w4MA8mqYrwguH8wcUAxTwyvkKbZywrEqo0lE7vx09l4qXMJcQHByMoqKiRBB44oknUO3atVFISAiqWbMmioiIEDd/kvPA3zHQmEwmEShu3ryJrl27Jn7u2bMHJScno8zMTJSVlVXEbdjRXatFMdCFhYVdaNiw4ejdu3fvLGud8vMyBUqiwIONsBxe2pI65ujfwdpp+vTpL505c+Z7nufDsby5tO34AMlKSxq3fQ6La+AzOjoaPf/88+J/4BQALMCfBv5bS1AEg8JiJPGVoagisaW0PIAGgENKSgoaP348OnHiRFGdpSUOFm9RFJU2ZMiQvlFRUXvi4+P50tYnPydTwFYK+NRpGcJ1rFu3Lu7ixYtfQxYzCNmBCYVfelkEZevS8axyeKpxYqL3338fvfvuuygwMPChDZ/UJ0gV17gOKVgAJUj9BV5DAEZ5eXmiWGrRokXo8OHDIncBIi7ywgmjrCnTCdNtgWGYu40aNZp34sSJzyEJlGfNgPv2dv369aqCgoIArVabExcXx7lvT53bs0e5Czu3ZTerHTKZde/evcOBAwemZWZmNoXukfJoMsObm3Vd7k4ZKADzii/YeEHXEBsbiz777DMUHh5epDPAIh1pU1g8SVpDScO9YFCRiqjgPugxzp07hw4dOoSWLVsmcheYIyEPKgBAwM1gPYYFOPhKlSpt6dy581c1atQ4LPtDlGEhSB5dsmRJwBdffPFOSkpKm9q1a89JTk7e7LjavaMmn+IkiE2Cev755yNOnjw5LycnpwvLshq8iWBrFe+YXnkU5AZMcgKggIbvEyZMQJMmTRIV0tKymCPA1k/WzFlJ01nSYZM0lYW/QZENmz9wEffv30cjR45E27ZtE8GDVGpDGUm+7cLAwMCDjRs3Hrhr165b8ow6jgLLli2rPGPGjA+uXLkyFMK9CYKQ1apVq7hPP/10b/v27Z1sG+85AmufBAm8zObOnRu4cOHCmcnJyUMFQVBgoCirJYrjlrFck6MoQG7a5Em9Ro0aaMOGDeipp556CCQwQMAnKKO3bNmCQEkN9Wi1WlS3bl1UsWJFVLVqVVFkBRcphoKNnjSTtVgkiRZS8BvoLdatW4fee+899E+0YrFeACqoA1tLKZVKY1BQ0LzevXt/sWDBgjRH0UKuB6Evv/wybO7cuctu3rzZFVRMmCv08/O7269fvyHff//9b75GJ1ncVMyMJyUlBb3yyivN1Gr18LS0tBcFQVB6LEh4zuGk3N4/OAiQ/gYw17DRw2b92muvIY1GU7TZw2YNZUGP8Omnn6IlS5Ygg8GAdDqdWE6tVqOAgABRdFWnTh0ROOCzffv2KDQ0VCyDRU8kl4E5Erh37Ngx9MUXXxSBkIUwbHh4+PGCgoLPdu/enRQTE2NwBsF8cbns3r1bMXjw4O45OTnjDQbD/1iWVeBDA9AY5iSkQsidoMCg6YMGDVoVHx+f4wzae1KdPsZJFP9avP3229rk5OQpO3fuHAzWT0WiKSu2sLJy25OW+KP7Cid8uOATdAV9+/YVv4svhsWCCea7sLAQzZgxA3311VciR1HkFwHiIbNZfB4ABz7DwsJQly5d0ODBg1GzZs1E7kG6ZnBZuA/K7enTp6OZM2cCR5HWtWvXpVqt9ouEhIQs76G0fSNxBoAlJyerXn311X5nzpz5kuM4q7k3CFuWwpYtW67dv3//aIqinALS/6GIMwZtH9mtlvYxkHg0xeCUsWTJko6JiYmDcnNzX+A4LoBhGFHjCS8zlk0TC6nMTlIOmEO5ijJQAFsUweYOZrG///676B+BdQ1EOG5Rf9C7d2+0ffv2ohalymu8VuCzQoUK6PXXX0cDBw4U/S+A84CLVEpjrgZETuvWrTMcOXJk7LJly36kKMpnrWzKMJ3FPjpy5MiQnTt3zrxy5UqsIAhBJGdHPkS+24IgcE8//fTKTp06vf3ZZ59lO6NfrqqzLPgjg4RkliAQ2JQpU5Tbtm2rp1QqRxw6dKiXxa9CjP2ET52wqcCJUr48mwLYsu0B40CJJ39QZIP/BBYVkQrrS5cuoeHDh6O9e/c+4DgsVtRQFnMlWB+BuQUQST333HPo7bffRjExMUXl4FlQZGOlOcdxbFZW1szw8PDJMkg4Zl2BNeM777zTeO7cue8KgvAy1j3iyAvSVvBcw9yAGMpsNhsff/zxhZ988snUuLi4dMf0yrNqkUHiEfMFDnhJSUnNVq1aNdxgMPSmKEqHT474MVn05FkLXtpbbPJKcgQgLjp48CCqVavWQxwDBo07d+6I+osdO3YUcZgYbEh9B+YqsINelSpVRN0HcBcADKS+Aj8nCEIGx3HvHThwYLnzLWw8e+5K6j1IBvr3798jNzd3Vn5+fhT4RcF8Y12TNd0j6SRJHAJ4hUKR1LNnz8lr1679s6R2ve13GSRsmNEGDRqolEolmL/MSE5OjuE4DsxZ5NzZNtDOnYtgLgCbpoI4CE72sHkMGzYMzZ8/v2gzxxsGNmWF2E1NmzYVLZNgs7ecOouGizcb0Edgqygc16lly5ZozZo1onUU6b+BQYXn+TRBEPorlcokd6afO/cNDnijR48ek5mZ+X88z2uxaTHp52LN3B3Pl5XDhKBQKDI/+eSTnpMmTdrnzmN3dN9kkLCDot9//70yMTGx+cGDBxtrtdrWqamp7RBCoVi+KbWNl3IZ5ClF5kDsILyTipLzJQ0hDyKiAQMGoIkTJyLgAKTOeNAlMGEF0dTVq1eLFNnSOYbvpDUTfAewAN3GW2+9JYYEwYpt4lmB47g/eZ5/U6lUHqUoys7wfWWRQDuJ2P/ZdUHR5/i2IKrCjh07Gt25c6fbvXv3xhYUFFQqLlKvtdZJnQQGbXKdaDSaPU8++eT/TZ48eW+XLl2Mjh+B+9Uog0Qp5gQWYkREBJOQkFD76tWr41NSUl5SKBRhLMtSpLgBnzAxW0uGfMBmd77mvOfu2xch9hE39169eqGVK1cWRY2FOQRuAjZ2+Ny9ezfq168fSk9/tLgaAwBebjD/QUFB6IcffkAvvPBCkXUU3pAg7IbZbD7H83ycWq0+W4pl6pOP9OnTp8rGjRt/MplM/0MIKcgNviwEAbNnMFwQQKmhUOiDg4MnpqenL/YF3ZEMEmVZOZZnY2NjG5w4ceK1+/fvP5GVlVWB47j6FEVpIdERCQKi/BtRSIB/woNjlMxROGACHFwFyQ2Ao9yUKVPQG2+8Ifo9WLN62rRpk+hBnZ2dLQKHtTmVci1Y0Q2BBXfu3IkaNGhQ5HxHcC0cx3GbGIZ5i6Io2dv6EfM8d+5cdUJCQqsjR468ZzabO4LyAXuuO8LvCTtGWsLAZ0dGRr6Tmpq6QgYJB7983lwdyED37dunMBgMftHR0Y/Nmzevd1ZW1rD8/PxgMKPlOI4CmbfR+IBDxTJSm0HC3Y/gnjC5NtBQYgIpjgrAYfTo0ejzzz8vyhFBKrphM4IAfiA+Ks7iDSvI8YaF24HNB8KSg9d3vXr1RKCQ9IHleX45wzBvUhSV7wlkdnUfL126pG7Tps269PT0dpCqGOuH8Bw5Kh6bxRGTrV69+seLFy+e5SuGBTIn4cQVHRsb63/z5s0uV69ebapSqZreunUrmqbpMDDLK85O24ndkau2kQKEyKcouqufnx/68MMP0bhx40RRE/bcxiJEcLYDZfdPP/0kiiX+I4K3OOaR4iwSDFq1aiWKtcD7mxRNWf7OFwRhAk3TIN5wckwhG4nkJsXWrFlT5cMPP5xx7dq1gdiYBNMYW5zZfBArZkyksluhUByrVavWS+fOnbvjJiRwejdkkHA6iRECHUZgYKA6JSWl3sKFCzsKgjDMZDJVQwhBVDl5DlwwB/Y2gZXNlo1GAB0BTdPsL7/8crVLly4NoD4sesJcAnCJnTp1KvKhINu0JhvHbYA5LIipunfvLgIFABIWRRKir4ssyw4onSK7pNHbwGKVVEU5/N6/f//ahw4dWn316tXG4DRPBukkOTepPsjerhJgLqhUqrcKCwvn2xOq3TOp+y+VvHaD2r17d3D79u3dLu4KOOtB9sy4uDjtjRs3IgwGQ9PCwsJGZrP5mdzc3LDs7OzHKIpSg0yV5DbwhkSGNZduJPAdvyhFYSMs4SJwWfIka+/LUp7lYfwgrps7d674OXXqVNGqCO5j2TO5GZD+LNJNgnSYIoPygVISIZTPMMyNqKiotNzc3ANVq1a95u/vfyw4OPjuxIkTMypUqKCOjo4eqVQq36VpOhyfUvH8HD16FHXt2lXUT+A+FCcTJzcy6BNwKHPmzBH9KODCoT4scybwPL+dYZj+FEVlSOdi48aNoT179swszzlyVdvvvvtuwPLly/unp6dP5DiuRllB4FH9JgCCj4qK2vHxxx8PHj58uEdwEY4CJ68ECRDntGjRYvi0adPWd+zY0e1fHACO4cOHK+rXrx+mVqubTZo0qVF2dvZgjuMiGYZRS/NyS/Mx40VOmnHixY19AEg7fme+VM7cKCB4XlJSEqpWrRr65ptvxDDfOI6StF08XlJUQOoRMA0s8mozwzC5KpVq2VdffbXr5s2bx9RqdfbkyZM5a+angiAwLMt+rlQqx0vbzc/PRy1atEBnzpwpAoniZOJSkIB5fuaZZ9CuXbtEnRXZR2jHbDbnZmVldalUqdJBst3x48eHbdq0ad7Vq1cfBJ7y4gu48rlz536i1+s/NplMCszRlVWkJOX6MOjj+zqd7n7Lli2779ixY48Xk9fq0LwSJCyONIv0en2t1q1bf/b6668fjI2NvW+/vXn5LAfYhNLT07WjR4/2P3ToUGOO46JgLAEBAQ1MJlPFzMxMf5qmVRzH6RBCYTRNK3ieF91JrXEK5IInxBfi4Bz5cjmTWjAuCL4HJqOwgWZkZIgB9GBDBX2A1PQYhkbTNPgbcDRNQ9wdA8/zbGRkZCFwCwUFBYeVSuU1QRDOVq9e/fTq1asNtWvXNtgq8zcajfWVSuXvFEVVlXJ0kFCoXbt2YjhwfBVn8YStnHBcMDgAfPnll+iNN4YhtVolPo4Bn+d5Li8vb2JISMhsuL9582bdF198Efvnn3++YzKZ6giCAOvBa6/333+/dkJCwpzr1693NJvNDwJhOfiydtCiKMoYFha2tm3btsMSEhJ8LhaP14LEmDFjlmRmZg7ieV6v0+n2durUacrGjRuPOnhNubI6Kj4+nvonUi1VWFiobtKkiQYhVCUgIKDp6dOnAzZu3Fhbr9f3UygUWpPJBLoOBmTd4EEslYfjU2px5pquHJStbUEOh2+//VYEBhwbCRTE8+bNE6ZMmSKwLAv/ARAgN2ihv7//+ldeeeVCdHR0vl6vP1tQUJCq1+vz09LS8hBCXEJCAgTiKrU7F3CrLMu+oVAoZkG4FnIc0L+hQ4ei1atXi/Qn40NJx0uKvjCnA/4Ta9euFfUbeKxQj0KhANDbsWnTpm5//vlnr6SkpO5nzpzpRlGUH8dxYDYHa8Irr9mzZ7/w8ccfT87Pz2+GuUTpunYEh0xyb1hk26hRo62zZs3q99xzz+V6JXFLGJT3gQSF0Pp1okv+4oyMjMGWU7QQGBh4U6fTLW3YsOGanTt3XvS2yYYwyPn5+RWysrKooUOHBmRlZT1RUFBQLSQkBO4H6XS6uhqNps4/OQo0eXl5Kp7n4SQG4UWAZYdIt6KuxEKX8l4X5OYt/h0aGkrt3LmTatSokcg14MB49+/f51euXHlv6tSpb+p0ur+//fZbfWRkJK/RaHLq1KkDp75SA0FJayQ9PT0gJCRkJU3TL+ETPxYNQqTYF198UQzxURy3hgGC5IJwPf3790eLFy9+SOwEazknJyd76NChp7Zu3drYaDQCR4nnysjzvNeBBEQ5+OCDD8BzGsRLwcAxk7TGc2TNMKCk+XvU7xgs/hEp5j355JP9jx079qtN9TlKEWBTY64pVN6bgVNGaRE3LU5PTx8MDWAFIGwYSqUyZcmSJZ0GDBhw2SmNu2+lMNfifL/22mt+Go2mkk6nayoIQrjJZFLdu3dPffjwYV1qamoFQRAg97cGxF40TYNOBDxXwcKHhr+BpAAoFuU6AAujUCho4EwstBbFXjzPiyIfiygFFPHixTAMnIihK2AxJHqxgl5GoVBwZrN5L8MwaTqdLvfll18ujIiIMGdnZyvatm37Su/evevi7G3YuQkqYVnWdOPGjddOnDix1tWJ7I1GYw+VSrUBOAss1oMxpaWliZFkT548adeKwJsTxIXaunWrmLyIvECEBVwKmNqSOhaEENjdep24qWPHjm/s2LFjHkLIKeIla5OD5wDWmEajOdm2bdvOiYmJd+2aSC8q7NUgAZwEPnVg1pGmaV6r1d7QarU7TCbT3ujo6B1Hjx712QVArmXYqM+ePatMTU0N1uv1sPFTSqWSNplMVFZWFmzGVF5eHqXX68V1wzAMlZubi37++Wf68uXL4CxIgRko/qxfv77QrVs3HudRgGf8/PyESpUqiSEp4PL39y866cOzEAXVaDQaY2NjzdjMMCUlJTgoKOjnoKCgNg9E9BQppxf/NhqNlwRB+ECr1f78kBesk092giAEmM3mnxUKRXuL5ZrYH+B0IK4TJCmyR6yHNyigz+bNmxEEAyTHC+sY6oS6LfQS6UhRVIG36CSAjk2bNn3y8uXLI1mW7aPX6x/kh3XBhTkSAHqlUnmhcuXKg1NSUv60rs908uJywXhtacKrQQJzEiQhsImo5R6cZPfNmTNnevPmzffExMSAPLvYyzeWhC3LxrVl0tPTowMCAraqVKpa+LROmCaSOpd8lmVfu3z58s8NGzZ0goLR+gowGAzNtFrtNoRQCFAGn/BBgQ0cAU4yZAvVSLl6bGysqJsgLbSgDqgX9BWgvCdMcAsFQdDa0oa7l+nVq1edDRs2/EZRVM3yMqxgGMbQtm3bN3ft2rXY3enl7P55LUiMHDlycVZWlshJwEKDF026wWCLEoVCkR0UFJQUFhb2XaNGjZLXr1+fQ1HUIwHD2RMj1/+AAnCq/EcE1V6hUCQIglCBlD1bU1wihIAr/AYhNIeiqH/Ni5xIUEEQQgRB2EpRVAsy7AZwWRBB1poH9qO6g0VpYOr7999/I4gfhS8YM/hgAEiATwZhrWYUBMGjdRLx8fH+K1as6Hn79u3hRqOxBebM8DvsxCksqhofIjUazd/PPPNM16SkpNuuaNed2/BmkFiSlZU1iAQJDArYbp10PMP3KIoy6XS6XV9++eXrI0aMuO0pZrPuvMjK0jdQYfA8PxYh9DmY/UJdWBmMM8FJZPMALMAhfvKPdOsLV4A9BAY1m81rFApFb3KsBoNBTFwE+onig8z9lzvB1jsgpktISEDdunUrqhYfePoP6I9Wr1qNgRTAwiQIgsvk9mWZU2vP3rx5U/vUU08tz87O7gXSM3gfcbRdV2aAhHYZhuH69Onz5ooVK+Cw4fNX6UDCzeUuoLgeOXKkaAJL+gVINxM8+1ixTXjpcv7+/hcrVqx4OiQk5Mc33ngjafjw4TJnUQ6vi2Xjm4UQGgmbB/aQluYbJ79bRBQ3TCbTMLVavd3ZQC8Igp8gCKAL6UieegEkwAEQMtnZepFKU+wzMWrUqP+InCAy7aeffkpWywqC8MCxwsOuHj161Prrr7/mpqamtocEQVJTVkeYtpZEEoIrFapUqbL21q1bsHfI77y3xg2ygMTSzMzMgaVdYJjLAAcmjUZztm/fvm8999xzp/Ly8nKHDRsGSlWnmVaWtKB96XdQxgqC8ANCKJYUL4GVD4TlgMipYPFEWhbhcizLHsjNzY0NDw+3fZcuBXELCwujVSrVToqiIuFxOPlCiA3IWhcVFYUALGyVrWOzWOxbAWa069evFyPRwgVWYVDXH3/8IYqc4LRtEaWyHMd5FEjAe3r+/PmYTz/9FOa3Hh7bI6fAQQdUWCNYrAecGxgBwHeFQnEuOjr65VOnTl0oxVJ4YD/oZTtD6TiJUlHPdQ9hkMjKyoLIkDa/oGQPpfJumqYNCKHLERERtxQKxYEGDRoc6tGjxz6Zw3DuvAqCAAL5BITQ8+Rcpqamisl6mjdvjqZPny6mAgVughRBPYhkYf6xoKDg3aCgoCxn9NQiapqpUCjGQMBGEgwAxBo2bFhs6JDi+kOYbKPWrVuj33//vQgksJVeSkoKio6OLsqxDU6EPM97DEiAt/jgwYPHZmdnvyMIQkXsee7KJFzYaoxQ/rNNmjTp2LVr1/3x8fHgbClfMidhfQ2QuR5IsMD3H8TeE4wMw/z98ssvT3rxxRdPajSaTFfb6PvCCgY/DoTQNkEQmpBcIbbwAdPc999/H02bNu0hboKgjYll2eWFhYXvBwYGOjyOF8uyHWma3kxRlIYUbQJgzZw5E3388ceI4zm7T5c4HzY4DyYmJoogiE1rgXO6d+8eatu2Lbp48SI2zDBZHCTdfln88ssvVV599dXNBoOhEQZWMhyGqwYgCcEBGecWsyw7zFXt29KOOzAmXstJjBs3btm9e/cGlIaTIF92/DwWP8FvZNRREEep1eqUsLCwraGhofvat29/ief5C/PmzfOJ/Le2LPSylBEEoTpCaCdCqBbh64IOHz6MunTpIop0IiIi0NKlS8VNE+d6wPNmmUvIwZBoNpunK5XK447IJgaWN3l5ec21Wu3XCoUCUmWKF/QR1gdYNnXu3BkdP37cLk6W9IkAoKlevboIEsA1kL9lZmaKznpg/WTRpXmMdVNUVNSiW7duDcX5H/C4HJFBzp61hjk2y0Ewp2rVqq9dv359kz11+EJZrwWJMWPGLEtLSxsgFRvZMqkYJAi9xH9yEOMNQaIMBzfibJ1Od71q1arggLOgbt261+7fv1/Qrl073hNYWHc4uZBzJAhCbYTQHkEQIvG8AM0PHjwohuTOy8sTZfIQ22n+/PlowIABReHSJfWApPgCRVFg8Xa0LDol8K7OysqqHxAQ8ItSqQRb/odCRUA/ly9fDp7tj7Bqsr4SSW4JxgXc67Zt21D79u3FuuB3uA/RZiHg4ZYtW8SKaJousAR8tGWJl1uZWbNmad9///1jJpNJzMmBdS9YP+AqoCABVxAErn379l+OGDFiUlxcnBP8a5xJbue/sV4PEs6cnuLqJpyfWJqmryiVytMVKlQ43bp164ONGjU6U6dOnQzvEE05f4EKghCNENotCEIENv+EzwMHDoggcf/+/YdO2BAVFjgKfKLHmyrMlWUDPkxRVBxFUTftXRsABrNnz24SExPz7P/+97/+NE03wiJI+MQHBuBuQJeQnJz8UJY5W9qzZo0HOonnnnuuiFOBMqAMh2CHkPbUIlP3CI/r+Pj4ltOmTfvZbDaDGLHcLwAnlUq1f/To0Z2//PJLOT2slRmRQcLeZWrHvkhyJBDHCMIMwWm2fv3656KiohYeP378qEajMd++fRvu85akNxAjycvsI+wl8r/lBUGoy3HcboZhqmDzV7DoAUcyEOcAJ0Fycy+99BJasmQJCgkJKeL+sELbwlWaeZ7/4h8gjwffAmnPIF9BgwYNqG+//Zbas2cPzLYCgiS2atVq9M2bN9vWrFmz8YIFC4LDwsIgnlVRlFYMSlAfbN5r1qwpUqSXRhmLDxphYWFox44d6IknnijqKrQF4AiWT/v27RPve0pYjlmzZo1555135tA0Df4vD5Hfjler9AuKeNIC8Hn16tUbdO7cOVnMVAxVfQIkSiNyKssqtGI1UXSitGxoEPTOrFQqWY2zBHMAACAASURBVDjR8jx/iaKo3ODg4HSWZU8MGjToXL169dJpmr5VftZTrn5lrVNcEAQAh100TUeTYAAgASagcGonw1bAyRAsiiAfdY8ePUSgkIgWAFRyCwsLP8zNzf3hwoULpjt37oTm5eVVvHHjRsCSJUvAiqpqdnZ2IPg/IITArLV2QECA+s0332SGDBki6kCwBz8GAPgOpq9ffPGFmA8Cczi4z/aKUfABA+skGjQQpTNF3ASE5OjQoYPIrVjEUG4fluPgwYPaV1999Zvr168PJr2py/KulfFZvnr16gvmz58/8cUXXwTrRfnyJU4CFNd3794VFdeuvixem2KQN7hgo4L/2HMUb1rYyxusVbBtvclkAk4CEuPcqFSp0ukmTZqk0jS99/Tp03t0Op25YsWKhaDfmDx5skdxHLAplIZDsoS8gDg+EJm2iGuAzG8AEuCoRjhBFm2i4OkM+aKbNWtWdNqXWB/l3Lx5c9P06dP5VatWPWE0Gh/jeb4CiPdVKpUYqBBbv8CJExzXwIpKeuEDCIh/gIN59913RZt70qu/NABh4Q4QWDdBoL+qVauKYIAB8datW+ipp55CoMC2lLVbce3qY8D+/furtGnT5izP80FlsWZyRL9h3hiGuTN48ODOixcvPuXqPcJZ7TmCNv9Z487qbHnWC34So0aNWpaRkVEqxXVZ+443DrIeUiEpteYgbcTxJmB5iSCsNg8JZbRa7X2FQpHHsuxfKpUqi+O4dEEQ/pg6dWpaVFQUWFjlGI1GyMAGynPOO3QeCEHOhtDQ0F8pimpHgkR6ejrq2LEjOn36NN4kH9pEAZSHDx8umqBi81GSo7TMB3/+/Hlh5cqVzMaNGxGY0wIHAJnu4HkIiwGhuocNG4beeustiFhL+iUUARKUB3PXzz//vAggsJIZf9rqTIcPFdiCrk2bNqLiGhTzJEhcv35ddCQk0re6fdKhmJiY6BMnTpwAr2p76FHW97GY540VK1acdO/ePQjdIot3H0Fkp4ubnIFsJS0aEiTwicwNFmVJ3S7N7yDUBfNO+H+ZpulzCoXCFBAQoG/atGl2cHBwjslkSjMYDKdOnDiRqtPpTOHh4WAPLoq7oqKiTAkJCWJiB3e9kpKSgtq2bZuoVCpbYpCAT9BLQIpQsHIidT/iPAsQ/IcSN3QoA/mwwYQULjJeFwnmAA7nzp1DV65cEUVYwD1UqFAB1axZUzzN42x+OG4UrgfiMr399tti7gesHykrLcmDAug3Fi1aVASEmGsC6yYIzTFv3jycvtXt/SQYhhkkCMJSnudxcquyksrm58kDAuQ40Wq16/r16zdi4cKFPpltzmbCebMz3ejRo5emp6eLHtfkKd4e4nhCWenYLNY8AAKgCOcYhgFFLVi+GAMDA01KpRJk1zzLspC34ZrJZMpVKBS82WwGsAD5WA5C6AD83aZNm9w///yThzAkPXv2/A+YBAUFCY+KcEpkTRNJCXkpcHgJy+mbOnTokAZCbPA8X9lsNutomm6LE8zAhhwWFhaybt26Hv+YKPrjucTzMmbMGDGlKb4wR0aaigI9IH7SsmXLUJMmTYr0E/hULl0f1vRXmMb4oIFFSdeuXRPNXCFEBjbhxL4cpV07JOBBnQAEIMLCOhCyftBLQAY7UGwDed09wJ9KpfrEbDZ/WlYa2Utb0scJ5h0Sjw0dOrTHd9995zViJntpYk95p3MS9nTGUWUtmenKASTKg2+yjWpknmUpsODfsC6F4zhQIMCGCpniRN0HtryytIbZc/gs+tuywUJh3CmcFhUIg/9LO4zvi2XJvmGvY8jEBmBA6hRAHPPXX3+hFi1aiDoHfPomN3IMFtDgs88+iz755BMRKECMhMN3wHM4/hGpACf1HDimEAYC6AeIe9544w20e/dusX24SE9922al+FJYJAmmr+PHj0cgdoJ+S8cKznSgK9m/f78Jcp+XtV1nPh8WFrYlOzu7K4wNaO6qC+d6t6xzvmbNml9cvXr1vwomV3XIw9rxZpBYkp6eLoYK92ZOAq83qc4Db3L41EvSgdxsyefhb2ubLJQvzoyzuJM33Cc3afI0LtUNkO8M+RvmDB5//HFReRsZGVkkLoK6gYsBk1fYqLEPBW4Xj5cUL4FZLMR6mj17Nqpdu/ZDIcdJyynSHwP/DZsaDuG9d+9eUcQEITGwcQI+HTtirZE6K+g/cEK//PILqlu3rkgqPB+43M2bN9GECRP0CQkJAe66/8THx6tmzZp1Tq/XFyUScqUIGNOKpumLkZGRPa5fv37OXWnlbv3yWpDAocJ9BSTIhSW1HCFFGKSlDS5HWl+Rz+K/bd34pICBX0xyM7C2MWBRCpb341M53vDhme3bt4tex2SfALhAYQypPOHCp2xSWQx1YE4Jb/hPPvmkGBSwVatWkE71P5ZIGJxIMMUgsGrVKjRo0KAiMMXAIbVoK8uLTtIbO+kBNwWmtQEBAaKyGk7HeDzQVn5+ftrdu3djateubbeTYFn6auuz77zzToc5c+b8xPN8MIyPPLzYWkdpyxHhN/Tt27cfsmPHjg3OVla7r0zBfip6LUiMHj16MaQvtXWDs5907v+EtVN+cRwFeZJ25cikHBBuG4MJ3uBBVASWSrA5kmOAGE4vv/wyWEGJ96X5JkjuiOSagoODRa4CgAdEUMBZQO5tuLBYB+oC4IG6IQbToUOH0IoVK9Ddu3fJtKEPZTx05OmYpA1YNw0cOFAExMqVKz+kgMfgCImPVCrV2xRF3XPlHNrQFtWyZcvJhw4d+oT+JxtUaZwLbWijqAheM5LDkTkwMPCb+fPnfzRw4EDZs9oOgpYdJNwQMi06iUU5OTlD8Ivuy2Bhx3pw26Jg7gkhN8CRjXRgg3mFGEaQC5oED1sGgrkAAB4QJ0G6UHBQA6sm2Ozv3L2D9v2xD0FYcgw2Uu7ClnYcUUbUd5g51PmFzmj16tUoKCjoIXGZ5UAAhgeQk/ldV6VutWVsq1evDhswYMAGjuPaYPGfvb4jtrQDZbD+QdqORqO5MHDgwFYLFy7MsLUuudwDCpQdJNyQkgASY8aMmZ+WljaiuNO0G3Zb7tIjKABioZ07d6KmTUWfuqJNGzZzAAgI7GcvNyTlYrAIRLz/ABUeslqSds+RXMOjJh+vYSgDUW6BmwBlNvyNOSdiLIUcx32pUChmQKgOd1hUo0ePrrtgwYLjCCF/UmdUaqB4xMGUpBVBE55hmPdYlp1FUZScJ8LOReGVIAHgFxoa+lJmZuYmMMPEm0epF6WdRPXG7FT2ksDR5eEkDeImEDthiyTMCUBYbtAzgPe1vXMs1ZvgjYW0biJFXzAuZ4tLrNGOjJYKoifQT4D5q06ns8bl5JpMpg/UavUyi/e+o6fD5vouXbqkbt++ff/bt28vAAOwkvRTNlf8iIIYKCz6KEGpVJ6aO3du79dff/2yI+r3tTq8FSTQBx980Oyzzz7bR1GUmC3MVac+r1lAbiZGBGAAURBYOQE4YHNUTG/QFYwdOxZZfC5smgZSdIQfIOXYsGYw6JBlSSCxqaEyFiKV73gDBO9vAImpU6eK4jG4SGsyhFDaP34T/3f16tXv6tSpUy65TXbv3h38wQcffHrs2LE+HMeFk5wayVGUkTz/eZycQ4Zhcp566qnYo0ePis4k8mU/BbwWJH788cfIQYMGbaEo6ilsBWLvKdN+cnrwEy4GheKbs/4LvPgADpCnIS4uTtwQ4TueUwAHsAD66aefyjQJUssiV9rzl9RxbAWGQ3aApRPoJyCNK1zkCdqizL5bUFAwXKfTbXVEoqWS+if9vVatWoOuXr36PdgCSEWBztIRSnRGvFar3WAwGPrIYiZ7Z+/f8l4LEt9//71y+vTpS1JTU/vzPP+Qk1ZpyWXXPmpX4dL2yAXPudE4YAOAXBEABODzgE+mmKuAoH+QrQ1Se+JNE5fxRk4S6AERb8GbHMRtOHQIHis4QJrN5ossy77p5+eX5MqN8ptvvqk/btw4OL2LId6dQX+pibZEdChUrFjx+Ouvv957+vTp113wpnhtE14LEjBjHTp0aLFnz57NHMeF2n1ycaPN0f11HM4nFj4lAyBMnDhRFLNYQiw85Dfwf//3f+Jv4EuANxHYPLHTmze9yVgMBYAJodEhTAn2+iZDUQiCcMZsNveH5FeuAIp/wKHV4sWLfygsLCxKOetMuuNw8BiM4LtSqTRUqVLltStXrqxzZtu+ULdXg0STJk2U58+f/6GgoKAvhKq2eppx/v7m3evIRfTDIAGbX2BgIPr111/RM888U5TYB+sPIJLrhAkTRH8GUgTjjaJGUrQCJrGQyhR8P3DIEWLhQRyvE/n5+RP8/f3/cCZQzJ49u0V8fPyq3NzcGtA/ZzrN4TAqME5SpAztqtXqPwcOHNhNNnkt+/bj1SAB5Bk/fvz/vvvuux8NBgPENGDKTjLvqMFZe7uz6sWnRawjACX1jBkzRI9puMgw2pBjARzPwGTWGzkIvAJJc0+4169fPzHpEYRGB3pgMZyFqwDp018mk6mvWq2+7AyP4/j4+OA5c+Zsyc3NfcYVyn0sXoKxw1ghzhjDMOArcqVmzZrDLl68uN9Z69E7dgHbRuF9ICFZFcBBxMXF1dq2bduver2+vm1kkUu5GwVIkMDcBHALkOcaW8qQIUUgKc/rr7+OkpKSxKE4QyZe3jQiQQKHBQGnQ0h+BF7kmJMiLLQ4nueTcnNzJ1SoUOGsI4ECss699NJLc7KysiBemhpbWpEhUZxBLwsNwK0lv1KlSsciIyO3ZGVl/XT16tUbjhyfM/ruKXU6BSTcDb0BKIKCgibl5eV9CP5I+OWRhn7Ak+aNG0r5LUjnrQYIePfjjz8+5GBHKjMvXbqEevXqhc6fP/+QbwOOzYSthLDljTPNMl1Ffxh/69at0YYNG4pMY0mxG7h5mM3mJJPJ9Jqfn98dR/RrwIABfunp6Z8nJSWN5DiuTLkiSE9pUq8iicsFXBEHuVN4ns9SqVS75syZszwiIuJI9+7d8xwxJrmOfyngFJAoVwIXsyfVrl070Gw297x169ZHPM/XxhsECRj2euyW6zjlxkUlLaTwXLBggWjdg01EYbOH+YX/EGcJwoyD6SxYPeEDgFQcIjGd9GjqQlyq2NhYUZkdFRVVFEYd6yo4jmN5nl9tNBrfDQgISBPfASLmuz2D3717t6Z3796f5eTkjOR5XlXWAxYOD4/FhCR3qFAojDzP36hWrdr+3NzcXSzL3goODr45derU1CFDhkDKX/lyAgW8DyQeQSTgKKpXr97h5s2baxiGCQP5Nrk5SNlzJ9BbrtKBFMCKUci5ACdnMsUn2QyUA9HUe++9J3plYzENeSgg8204sIvFVFXaLbnknpHxqCAr3+LFi8X82HCRkQcYhjEZjcbv1Wr1JxRFlSo7W3x8PJ2UlDTkwIEDs5RKZaAj9D9YGY25PcidhRC6r1arT8fExCzr3r377gkTJlwrP1GS8+au5NktnxI+BRJAYojr9PXXX/c/cuTIFzzPhwFwSC0wynoaKp+pdGCrbv8ePOggVlzCBg8JgCD8N1j5wIVl4riM0WhEZ8+eRdOmTRO9tuGAIBUzkadWB1LTpVVhZTWMH2I7gV4G8mcAHXB4cXww4nk+32w2f5OTk/Np5cqV7Y6M+sQTT7yYnJy8hOf5cEc5rBLcDuQUzwsMDFxeUFCwdvjw4ckajSY3Pj5ejr3k0hXlpQH+SqLh7t27Fe++++4L586dG2IymTqbzWYt9uDFWchKqkP+vfwpgE+d8AkbIoSpgPhO+ORMnp7hbzjpWtKmiik/IZ81WEJhPwrXchPOpx+AAXhl4zhPME7scIdbFwQBAgJOy8zMnGMrUMTHxysOHz78/IkTJ+beu3evFp4HR+l0LLqIGy+88MJHW7duXel8SsktPIoCPsdJEC8HNXv27JAvvvjik7t3746haVpBxr4h4z15wwnT214DceFCtFbhAUcBn5AHAoACHOrCwsKKzGLx2HE5cLS7f/8+OnbsGJo/f75oASUNv0Fyk6R4SirGgu8W80u3yoBIOo+CjuLNN98UARQnMcKZ9izjSTMYDO/4+fmttkWM89RTT7U8c+ZMgtlsrkLSFoOyrWsNOwNCX3C4dsuz1zt06NBn2LBhR+Pi4v6TW93W+uVyZaSARaLgsyCByQfhO5YtWzbx9OnTg8xmcx2TyWTZfx6QBkccLSO55cedQAFrymaYL0gkNGvWLARpT7EYBJoHLpEMDAjP5+XliYptSF504sQJdOPGDbGnWExFhLgoSvQDv+MDBRm0DoOFE4Za5iohCOBnn30mhlQHMMVjJMZ3u6CgYKCfn9+eR8V5Gjt2bPiqVavm5+Xl9WZZtkyWTHj+sBWTpS9cRETED3PmzBkuA0SZp90hFfg8SAAVgX1OTU19cuPGjSPu378PsZ7UEGIcK7ad6TXqkFn00UrI0zK50cBmA34C4GwHsZ5AFIUtnshy+AAAm3t2dja6evUqOnDgAIKc0RcuXEAZGRkoLS1NTDqEOUsMOvAMnMoNBkMRN4PBw92mA3NCIIZbuXIlatmyZZHynhAVgVnpqcLCwtE6ne6AtTE8++yzkceOHftSr9f3FAShzJZM+BCG2xIEwRRSIWTeoIGDvp09e/ZVd6Ojr/bH50CiJJ3sV1999eSMGTPGZ2Zm9kII6aSu/yU976sLqTzGbU0MhDkAfNJ/9dVXxTAd0dHRovUTAD+p3IW/QfyEU5ZiM1oYD2kuCxwHFm0BOADwQNm33noLzZs3T/wNi0zc1fABaAOK/YULF6KePXs+FL4De6wjhG4UFBS8otVqj5DhO5YvX15x/PjxSTk5OU+AbocEaOtzX/KbgsVN0DbP82yDBg0mnT179rPyWEtym8VTwOdAwpbFEBsb63/t2rUBx48ff4dhmFosyzokiuyDtkt+eWzpo1zmXwqQQA53ceJ7bEYZGRkpBv0DwMAiIanYCdeGgYcECSyaIU68RQAC+a/Bgui33377j17DneYIjwvG/dhjj6FNmzaJEWTJsRHcEvggvKbVasXoqSdPnvQbPnz4nCNHjgzieV5ZnI7G3vGSCm+apo+0bdu2y86dOzPtrUcu71wKyCBRDH3BNHbKlClBK1euHHXv3r1O/5jh1YPEKXC/uFMUeb/kk5ZzJ9YXardmUEDqKUhrG8jg1rt3bzEfdoMGDVB4eDjSaDRFm6T09E/WA4VIk1pMW3wPcllA3KTff/9d5Epcddm6xvCmjukBn8BZbd26FdWoUeMhvxELt2QyGAzzz58//8nBgwcVc+fOHXDlypXPEUJ+pbVgesS7Ieh0uhPt2rXrmpiYeNdVtJPbsZ0CMkiUQCtwGEpPTw+5cOFCfY7j4uA0ZTAYAvEJDG8u5IZF2t9jWbjtUyKXdBYFYI4gIGDt2rVF5TYkKapfv/5DYiVrGy+ZRxp76pMcB/wOOozBgweLFlOkxZWjTt3WaCIR1zxUhGwX/sbrE38CRwG5NxYtWoQiIiL+Iz4SBCHv7Nmz77300kstbty40YPjuIDSzgvZF1LUB/ejoqLO9ezZs8/XX399qrT1y885lwIySNhBX/CvGDduXMsbN268zTBM4+zsbPDc8pdGl8VsNA6shr1g7WjKa4uWl7DNmhipcuXKYoBAcMQDkRRwG8BdYH8CUhwCGz8hty+ymsIWU/AbKLghVtTff/8tip5ARwG/OytMOQloWJciTfAjHTe5YcM4gaOAEOMwfmweC4sP+v/zzz/nDR06VJufn/9Qbmp7FyduE+hB6jPUavWl7du3P9OmTZt0e+uUy7uOAjJIlILWY8eOVV+/fr3q3bt3oytVqtRq27ZtXTiOe5ymaRqLICT5hr0yCmkpSFduj2CrJmnOargPytxKlSqJGyXI68FctFq1aqh69eqiYx7cBw4Eb/yw2eHTOQwIc5Pg1X3q1CnUo0cP0TIKK8kBKJxxPQoA4DdrXBEpVoOxw3+wdoLwHbVq1RK/g8XWmjVr0MyZM9HFixcd0nUSICzczO1WrVqN2rdv3y8OaUCuxGkUkEHCAaT95ptvqn744Yf98vPzuyiVyrpGozEUnPNgk3C9I155ndUdQEgnViHVVZCWSxjQpaElgKuArG+Q5AgusGgCj21I7AN+GKGhoQ+BP+Y8IOzHsGHDECi1MYg4y+IJjwu3bU23IiUrOXb4G6y+hg8fLoY1gTGvWrUKjRs3TvQhgfrLmucbGxJgWmg0mrxnn3126tatW2eVR+5tJy4zh1ftDm+zDBIOnNbY2Fjt1atXa/+TV/jV5OTk1hzHPUVRlA6U3eSJ04FNylXZSAGpIpp8TAoOUmspaRNQ1yuvvIJWr179kCiJ5FZgo4WNF7gL0nvfxu7aVAyHEcFjA9ER/MciMwC//Px8EayAwwEOQXrhEz6ImiAAInhlN2vWDJ0+fbooT4etCvKSOm05MPEdO3b8KCkp6XNbvLtLqlP+3TYKlAVsfAwkykIq2ybDAgZUQkJC2JEjR2p+9913dSmK6mwymWoKglCX53l/ixlhEe1JHQZWepKtSS1KXM+d2D72spd0zhzhjQ6faqUKZWt0h7GQ4AIRSSmKMqnVaqNKpbqyZs2aS506depK0/SD9HhEpFXYkBMTE9Hbb78tRp4lT++4rK26iuJER/7+/qhNmzaoY8eOCJINAUCAEhr7cECbwPmA9VVKSoroGAhe5aBkP3funChKws6AUBZEauClfvTo0aL+kkp4W+aWoh+IuZDwsJ+JwPOIpmiDQqFcsGLVislxcXF6W+qTy5Q/BXwMJFxPcAsXwXTp0kV35syZakFBQU0ZhumRnJzclOO4MIZhGBxUULpxkWw6meGLFDEUydhLmQ/A9RQpnxaxDkFqnUQaF2DdgfTkLAgCT1GUvmrVqvuCgoI2mM3mo2FhYfdmz56dX6tWrYnBwcEfC4KgwGCON1aoGxztJk6cWMRxkGIhW0VQZN+BegACYJU1efJk0UIJ1gZwD2B+C79hsJJSGtrD48/JyYGIyGLSJgAFcswkoEF/7dGp0AyNBP5BPC18iXThOCHAP3D+oCGDJs6bN89YPqtAbrU0FPBakLD4M0Asere7wErq+vXrTy5atKje6dOnO5nN5poWTiPYwmXQgiCIcXEw14BFIlJZutsNrvQdgrly2nqUyu7xRgqbKg4bDnYHHMdBnmQIR53H8/zFgICAG88+++yGF1544XZISMghaTyh9PT0gAoVKnxJUdRAiqI0pMECtAmino8++gj98MMPRb4WpY00jAEmJiYGfffdd6hx48YP+TiQpH+wSf9LUizyktIBkjIBWHz++ediUiaSG4Ky2HrLLqCg6YfMgCFsVqXw8FNDB7zx8vSvposOevLlORRw2ktZniQAgKhTp06b559//sK333571zkCjLKPEPq5bds21bx589S7du0K12q1YIseFBYW1tDf37/rhQsXIgsKCuqqVCq1yWSisdgBv+i2iits76m7Usr2ETyqpFRsAxwCTdN6MMWMjo7OM5vNezMyMo7k5+dDCsw0pVJ5Z8OGDaZ27doZHyU/z8zMDAwKCprLMMwAwHW8oWJOEE74c+fOFcECxwMr7rRfXP8xQDz99NNi/CUQL5EiMtI8lzzFk+3g+zgVKG4L+gRh0yF8OiRv2rdvX1FgS1u5HSlA0TSFIF+QUqkEZ7mfhwwZMnbWrFm3ZT2EY9ayK2vxSpCAxEJjx45deP/+/ejmzZvPGjly5Ja4uDjXucI6aAZnzJgRKghC84MHD1Y+fPjwi0qlMvifuP/BLMvWQghpKYoCjsMr59BBJMTVgC5BoGnaJAjC1UqVKqUXFhamhoeH7+ndu3dKUFDQkffee6+Y3Mi2Aader2+k0+nWcxxXD5TAcGETWNjACwoK0IgRI8RTe2l8J2CDB7PctWvXitZV1nQFJFDggZOAgX0osE+FNUso8GMYNWqUKIYifS5sPZDg9iygBkEDL0RHR/c/f/78cQfPqVydSyhAOY+9d0n/i2kEQOKtt95afPv27UFarTabYZh98+bNGzFkyBCPdPsHIDh+/DhYTtEffvghgEMkz/M6o9HYWKVSvZSXl1chPT29Ak3TIZBnmKIopSAIDBbfQERb0syTVMYKgpiWocg5DG80UvEEkJqUW5Obj9SkEk+LVMFu7RnYUC0B3h4yF8anfnwShjak1jy4foVCIVjMNAEMQH9gFgQhJyQk5F6FChXS8vPzE1iWvRgUFKQ3m823J02apA8ICDCfPXvW6KhMZxbxIOiZVtM0XYOkF9ZV3Lp1Cw0cOBDt3bv3oRwURUgGk4GQ6NQGF6YLjBv8NSCXd4cOHcRnpfor+A4KalCSw39QUkPCIcirAeACvh+YsyGtsDBdScAA01fgViZNmoRyc3NFUMO/S+NikXoccT447t+MgQrFmZiYmAEHDhw46TYchG2YX57bl9u17ZWnUACJ0aNHL8rKyhpiWdzmatWq/RoSErKmRo0aRzdu3OhVclEIHXL37t0wlmXrCYIQnJqaGnDw4MFAjuPUFEUFaDSaxxUKRRUAj/T0dAAQP5qmgwVBCLMAiRiPiud5MZUreeKUOgVKFa9S4MAnXHxfelolnyc9mq2Ak7hjwuZi2RALeJ5PValU+SEhISxCyFBYWHidZVkQpGfxPG9iGKbw5ZdfzlcqlQaaps/m5uZeTEhIcI4nm5VXGYCioKAgTqVSzWAYRgQKEgCAFsnJyeirr74SOQrgLvBmT+oKSEAHwABPcDjZg3c49t7HQAF1Qna97du3i1wGxI/C4IIBAMKQgP6iTp06Ygh1COwHDoI4hDou///tnQmYFNW59+tU9TbMAiOb4o5r1EQT8WpiNFHjRjYxj95EEYnGKAL6iUvAJcHojYpJropLMFEwmwYTzTU36jWKxl2MUUxCVBQElMAAM+Ps3V3Lx+9Mv51DM0D3TM9MT0/V88wzM92nTp06s6IxZQAAIABJREFUp+r9n/f9vwtjlfKhnIv56dprr9WpRsw++U7GIYAjYG5likAppVYd9LGPTX7j73+nPkVJcoMlJ41LdEBlCxJTpkzRIGGov5CSbbFY7N1JkybNPP/88xeNGzcOYTNgj21tijIJCmlijx07Np5IJCIffvihuuuuuyLV1dVDdtppp9pEIjGaDLe0ffnll4d7noeGcrJlWbsQDIjMaGlpibBbjEajdiqVIgOo2Nxxo4lLwsOuNA0zulkphZB3ERgZEj4NJ5BIJPzKyko/nU57sVjM9TzvLaXUi1VVVSsOPPDA+oqKCi1gXNdtW7Vq1apoNNryjW98wxs5cqQfi8XSY8eOdZcvX+4vXbo0+N73vqfNSv25oEEQRJubm4+oqqp6SCkFCOvDLHhENDaJBtEohKMwzUdmhlo+J/J56tSpOujNbMezjYsr2sljjz2mQUdAWUDXBF/xgiK5IXU2qH1NtLnJbYiwF9IaALrmmmuse++9N+vlZNahlnXPbhbQ+GynecLXTj3vwAMPfLBYmlp/rulgv3Y5g8TP6uvrJ5sxCLLroa7vnnvu+dvhw4f/6Igjjvhn6JK39dfgtNNOc2pra+2DDjrIfvrpp4duqoccicfjKplM7hWLxT7G7tl1XTQQCRhUIkRQTzK7YsBhie/7H3qeB1hDGDftsMMO6fHjx6fzrUA2UCwFaHZXXnnl+ZFI5AYcEWSjYoImO36qxFHsSIhk03WWc6hxQb0KzD64uOZyDvAH1K9GiBdCMMt1Pv3pT+u+CZ4DLEytx9RwMGNdeuml1vz58zWo5brFihlQg5vve3vvudd/nTFp4nWzZ892B7uALYf7L3uQMB98SWCWednYca4ZOXLk3cccc8yd999//4ZyWNDwHkpjBoIgGOK67hTHca7HNdbkeESzoLY2Uc4S3cznYu7DFESW2u9///uaTxCAMLmIF1980Tr77LN1RT2ebUmelyvsTdNfLgdEypETTzxRV/EbO3asPpWx0pfkqOJ/eA5SjaCxmP3RBu8tPuPvo4886vFxhx92xo033thQGisxQEdRQjuisgWJadOm3VNXV3d2V+6A8iIaL1yH4zhPjBs37uZJkya9MXXq1DAatE/frRJ6I4p435iefN//iW3bZ2O6M3f7QmYT+Tx+/HhrzZo12RxJPJ+k/cDEgwYhAGOarsjcigkK4U1fsrs3uY1c0xTnm9qMaSIElMjdhOmKnFS57whtSTEyc+ZMnQyQdB/iJSUc1oQJE4IF8xf4VmDNdX33e8OHD28q4nSGXfXTDJQtSEyZMuWe+vp6Xs4u3QVlvuVlsG0bF8n1o0ePfu7QQw996pFHHrmrn9YkvGwZzUBHR8dejuPcGolETgIozIhvEejUdMCcw46cHwoBkdKDWAhTsIu5dNGiRboa3vvvv6+/F3OPCRTy3G9rKg3zq35H4Dyos/H73/9en8b40DxMcxi8ByYwAEyAjt94Uj3//PM6rUcQBE3pdPoHsVjsZrMEahkt66C6lYEFEnluOPFumjJlyr319fWT8nlZRKMwom+TFRUVizblXHp5//33/8fUqVOfmjx58kf9TYoOqiezjG42CAJck2+2bXsSEfW5PBmmHTLHzpgxwzrkkEN0hlmAQgS1KYyXLFmitYx33303a4IyNQbT7djUoruKcxCQMk1Y/P2lL31J8xx4RJkgJH+vWrXKmjhxovXCCy/oMVAvm4htMVfRh1KqNZ1Oz/jwww9/vueee3aU0XIOulsZWCCR5/JkXGDvXb9+vQaJ7R2irvOCSYqGzIOOdtHmOM7TRx111FPf/va3559++ukfba+/8PtwBnJnoL29fQ/HcX6vlDrYjHMQd1d267jH8vwBFJnnL1vDgv7wNPrKV75ivfTSS5ldfGB1Rjb7mg+AX+A37QCeXE2hq1XJBQoBMAQ+mWz/4z/+YwuPKq4HjwI4YHaivvfBBx+c9eCS6yil1qTT6e8vW7Zs/oEHHjjgglnDp7hzBsoaJDZu3DjJ9BjZ2qKbOynamAQ3/2fU+PSwYcPej0aj99XW1v756quvfieRSGzM1zNncD1weap8g2BScBFesGBBfO3atbtUVVXd86lPfepoBCqxDwhbAAOBLs+cuJ6a8Qe0g3sgZoEgN7gB2dhw3sc//nFNYFPDm/+XLVtm3XnnnTrOQWpadJV7yQQIk9fIuCjr5IHwD8RUSPS4aDWMj+C+G2+80brhhhv0tQX8jDY4hzRusohdZ1nWnUqpMLHfAHzmewwSpZhID03iwgsvnL9hwwZy6WRttlvbSYktVwKE5IXJVdEz7UgA1xSJRFZWV1f/bsKECSs+9alP/d+UKVPqBuD6h0POnYEi4tv8+fOHPfnkk5Mff/zxfdrb248MguCAqqqq6BVXXKFTdAAUIlAlNsKMp5BdPVHPmHfYsQunIYFy1KyYNWuWrqwnnkucR/wEacH57tlnn+1ynXNBQp534TjgKCDVb775Zh21bbq60hbg4Lu7775b8xQXX3yx3lBl4y4o+Rqg7dhrW1paLn7sscd+F26qBt4r12OQKMVbBiSmTZs2v66uToOEeRRRBtAtwVvJqqqq9yoqKh5vbGx84YgjjnjjrrvuWn/AAQe0hhxGKT4dvTMmNkvvvvtu9RlnnDHinXfeOXTYsGHf2LBhwwHt7e17Z1J2ZN81zEJoBNj+TSJbNAvTAwktg+SAxDMg+A1TjtYgKHxE2nAO0mlALFNnAgBCWOOy+vWvf12n7Mj3EF5DgGvChAkW5PqwYcN0F6Jp8BuvLDQOeAq0DkxQmLxMMxppU4IgWJVKpabE4/H/C8nsfFeiNNoNOpAo5rSL3TjjohjE43HXdd2NiUTi9XPPPffBffbZ55np06evKOY1i9pXkRGzqGMbQJ2hMTzxxBPH/fa3v50RBMFY3/dHKKV0pDpHrhs2/2Nyoo40qTJyv5db53zqUVA3AiFvCm+C3/74xz9aZIUVU9V5552nQWH69OnaW4pgvA8++EDneyqkVrV5HcaAGy6mrssuuyyrJZgmWlxx8XaiPjjaDr8F/ARoMlrLP5ubm8+uqan5S7iBGjgPeNmChGlu6s3lEKAwd1gZweDF4/Hlu+222zv19fXPk1iuoqICF9s3Hnjggfq99947Fb4ovbkyxe07oynExo8fv3Nzc/PHOjo6dohGozuPGDHiqLfffnsXy7L2VkpV0C7Xeyk3dTgjY7ePTV9s+YYrthawaA3szAlyq6+v30zjgNi+7rrrrJNPPlnv2NnN33rrrfqHcxHS8BH8RhM57LDDNNGc72ECgAh5vK0efvhhnffJ3BxxPdKMH3/88Zo3IYqbsR155JFZgDTyQfm+77/m+/7UWCz2ar7jCdv17wyULUhgblq/fr02NxWSsqCQ5TB3gBLxap6f2T3BYQS8HbZte5FIpN513SW77bbbr2+66aZVkUjk76eeeurGQq4btu27GVi4cGGV53mfuPjii/eur6//hu/7h1iWVYumACCQFDEajapMFtqsOcbMbySxBphhJKMq5iPcTE2BK0n0aP/II49oMxFxE8I/8D2BbmggxDNwAAK4xKJVSMoMtBP+ByQ4B1fWv//973lNmglWEsTHZ/xgdvrFL36hNRS5Fp8zBoog4cLL9bg+yQbFS8vMH5XJ3fVsY2PjpB122GFVqMzmtSz92qhsQQJNor6+/qyu/MOLOePmSy5EoBB3QohzPSEVBbQ60xr5bdFo9K199933ncbGxldHjhz5TiQSee/VV199N8N3UCEtPPpgBoQ3GDdu3Dil1OiPPvrosOrq6n3/9re/7ZxOpw+wbbvG933Sr2+RuZXPTHfT3I2JPA9CUuMtBAggvBG2Yi6S2ySl+Ne+9jWdfVXOoQ/ieKZNm6YjoyWmh7QdeBeZSfoAnyuvvFJzA9S2pgY2v/M5cj39RCui/1GjRul4DjQT81mnDV5URx11lPasoi2uumS65d5ytW1lWenAsh5LpVKXJxKJd/IZV9im/2agrEFCvJvkge6/ad7yyjljwlXQo2xmEARtuMQHQfC+Ugq/+g8PP/zwjZdeemkLqbAPPPDA9/bZZ5/QlbCbiwkYPPvsszvX19cPv+CCC4Y3NDTs4LrurpvMIF9WSo21bXsHpVTMdV0AgRKyeb8j2xKwUocBgU2qcMhmqRthggpRy6eddpo2MYl2gtCtra3V3ASR1pDSaCRUkcOjiNoR9FVZWakBY/LkyXq3zw5fXFTFbVbI8Vy+RMCAsZgbKzM4j3v4xCc+oQFuzJgxegXke86Bt+D6QlozVq4P4W1q3RnNgkSPjzY0NJwxcuTIrRR86uYih6cVdQbyfgGKetVe7izXBbYUQaKrKchVvRk3niG+73tBEKR832+pqan56+67777Gdd0Pm5ubXz/44IMpu1kfi8Xe+sMf/gDA9NvRX6aDrq57wgknVFZWVmIiGrVkyZKq4cOH7zVkyJB9AYc1a9YcqJRCylUCGsU2R4p5Sez5ssuHrH7wwQd1NLUIUn4LWLAb/+Y3v5mtCSHggcBH2F500UXZ1OJ4G5FHCUJbnm+0CghryRh7zz33WJdffrkuHGQ7FATyt6oFmcAg5q1cIOFzxgoYcG3RnsRtl5oWcCwyJsYtBD0utCaoZM5Nep5H0Ov3dtppp/X99uCGF97mDIQgUcIPiLz8ZjlMhgvHQS2GIAhctA/btpO+79dBjCcS8ZZ02n20oqLihdNOO63pW9/6lue6bvNHH33UcMwxx5RN6uZ58+ZFP/e5z420bTvR3Nxsz5kzp+YPf/jDKVVVVf/R0dExtL29fbjv+8Mp8+p5HhoBmoFD+nIx4cjS52oAxXgkEIJyHdYPt1fs9HgamfEJAiDs+gEIQAQewjz2228/65lnntHZYDEhIYxJxIcGIQdEMTmdMENxPqnI0SjQSMSclRtQZ1aZM+MbTMAwN1i04RxIarQYQMCcu6VLl+o6FYASWhBj5TfeT9SukGA74TMyZqi067p3RiKRy6goWIy5D/so7gyEIFHc+SxKb7w8Erhk+qTLTsz0rTcjyg3hA4gQw8FLhx8mmeD+OWrUqI922223Ds/zAI6PGhoa3mtra2ukGBB1fdra2jylVOroo4+mBGhQU1MTeJ4XxGIxitnrYj4kQuQ3n/MDWLmum6qoqFjR3NzsdnR0qJ122gmf/SGVlZW7u66LgNZV7xzHydacSCaT+v9kMqnrdDc1NanFixc76XQ6EovF4ph52OXHYrFIRUVFbSwWG1ZZWbmL4zixxsbGIatXrx7muu64IAgAAse2bW0ekmR0CDoRmGISMU0euQtVLG3C5Ki4Bv9DNuM+SsCZCGzTvIOwx4sJbycRoIwHjYA03pwHCHAOuZsACFJ4ZDYM2v4PEY4Ji+eGnEq4w7799tv6fyGg5fkw+ZNcwDK5DZNwNucLDycKJgFaZvAf7rbETLz11lubJR2Ey5h15SzrrIln6SSCoukY42lLpVI3tbW13VZbW0uE9oA8+kuT7u3JCkGit2e4G/1L5LcIGRFgvFQi8ORlZjeHu6TsXGW3aP4v52mJvsl2nHk5ARGkvJDjCH9yVUm5UDQUMYvo74xb0X/Tn23bEPBUmfsXoAQYZMadcBxnJwAgcx6/zb91s8AKVKZnOtJtjHPkkjYV8Tgy9yfX2CJddWZcehfL7hyg4LcAbAbgurEqhZ0icw5AzJs3T0cuMxYO+AH5m/WgbsRvfvMb/bkJVtj/iZZGC+EgJxOE9nPPPZdtd8455+hYCu6X5wZ31C9/+csaIHJrTAAYAkJ8x5guueQSPRbAh0hwxiD8hQkYYoLiN+CASy1R3ibwMr7Pfvaz+tpyH7LZYXxXX311tkBSLtFP5cJ0On1VNBq9JXQNL+xZ6+3WZQoSDzpTp16oE/z1himh1xdFdS5L7u52a/difr61v7PSNiP4zRQkIgxyhUIuSOXcN0CxzeenK7PK1nbsXfFG/xZAyvo3lnXuzkXDMqOTZXxi5jFJV3MsMremgOt6XNvfG5rjFvONzBvfIcBJwdHVQXT0U089pSvUad7AWJt9993XomaEBKbhwkqBItrL+HE1JXKbgDrOZQdPYSCKEclmwHyORDATiAfhjcsqKb6lLfEW5HzCnZWKeaYGZprOABXGA7dizhtmLsxpaDLmWsjfxIZAbDNGMaHmrPv7pO+orq5+3FYq1a91aAt5ybf/mBTSW8m1LVOQWOhMnTo1CxJFMSWU+YNQck9mnwyo54sqgpfhGlqaNregIZDbCG8kcYEWYctvUoLjzmoCBJ/jyQQ38fnPf15rQRDBxCigQYjQx6SHyQdBLeCEqQfuoquxiBkOzeb222/X2gZmHxMwJQMy7rOMjQNAQLOQv0U7e+2113RgnWmS4nziNwAJE5TNe0YLwUsLV14BU6mCl5m/db7vfzsSiTzSJ49AeJHtzkDZgsS0adPurauryytV+HZnKWwQzkAXMyAAIYJSNBM+P/PMM6077rhDC2KJl5HvaQ//IAnxJMCO7yGpEeLsyGmHtkEda8BEuCjSeGOewhzFQc4mEvmRaM/kH0wA4G80CNJnwGEwJnb+gNGbb76pzVikBefgf0CEeA1Ty5TNFrwC5ibGYWqujA+QwI03V+s1ixfhPnvLLbdYX/ziF7WZzIwnwinDsixiJ75jWdYfByOZXWpJU0sMJHq+s+MhzyT4C0GiO6K9OEvQnSsP2HOEIBceBJIZ7x9s9ghWhLFEKbPrpwbD0UcfrU02snsXzx9SWmBW4kDo/vznP7fI9CraAQKa9Bt4QnEgYCn4g/trW9uWHtAinGk7btw47RlF3AJ9P/TQQ9aFF16ouQ7AieA9QA3QwQSGuUvON02RnM/Y0WZMjYH7AiToxwQX4SUYg8wRgEX/cBiAobQ3CP1/dXR0nDJkyJDFA/bBKJOBlxhIFGdWAYnp06f/tK6u7ptFMTUVZ1hhLyUxA9tBwQJAEgFpmlL4+9hjj7UWLFigBajpmcZ3COY//elP2i7/8ssva1OS7Lghp/FiIjkf5iYENWaf++67TzsmIEhHjhyp4xPwXMKEhZaBBoFWIg4LpiYhY6Mt56C57L777rovEvFNmTJFawsIZkCMYkaUH+V6tCdiWupImG6x3CMlTuEYBLzoY/Xq1Tq6W6Kuczkpk3PhvL322ksnJJQqfGKuy8wJ3nNPu657QSKRWFYSj84gHURZgsTs2bPtW2+99fKGhoYbtkeuDtJ1D2+7CDOQKwTZYSN8u6rmhvAWF1G8f+SgDwQ0O3r4CwETalzDQ0hRItoTUIegpz0H/ANmLRLr5br5ys6c8zHrYGaCD0CrARgQ9CtXrsyCHLEMaCi0J6gPrynyP8khJiGAikA+TFamSYm/MVOddNJJ1tq1azcjtPkODYJri4lONBRMT08//bQGCjNWI+Na66ZSqT82NTWdFUZlF+GB7WYXZQkSzMUJJ5xw9BNPPEGdap1vJ9QouvmEhKdtJihNclo0CX6jOVDb4TOf+UzWDCQn8uwhePFyIqWFPIsiyBH08A7EEyAccUclEA6TDoITgQo4EOmMOQgNBLMR0dXUuhZgEaHNdUUYk2QPjQANgu9JGY62YnpJQUBjHtt77701SKDtMKYNGzZstvojRozQ3AimLjGPmfdCH5iphOjO59FhnKQhmTNnjrXrrrtmQUsAw/O8tG3btzQ3N98wbNiwhnz6DNsUdwbKFiQWLFhw4OTJkxdtKps4qrhTFvbWPzNQgB2oFwaY46qZvQLCErMLbqNkbeXAXAN3IKYfgAVTEu6lpnmKtuzoIY8xMQEQJNCDkzDrP8BfIOjhOOiL2tOk21i3bt0WiSMleI527M5xkT388MP1eZiD0E7Y8QvAkWQQovzQQw/NagZ8BvjAMQjwMD40CM7PxDEQz6K/xyRFWxL8FZKS3DQ/7bLLLhr4cOuVpIeG51SH67q/7OjomFVTU7M5cvXCWoddbj4DWwGJ/n0hi7FId9xxR9XMmTMXtrS0nGzu6IrRd1/0MfBXoC9mqe+vYfIQCGR2+eyuMddgBhIeQgQdghxSGZ5CguUEKCCSya9EhTkEImaab3zjG9rVlTYIUcw37LIhlvkMUxVBcJiKOMw4EZMDOeCAAzRXccQRR+h+4DiIyuYzNBHaovXggUV+JfrBFRftBB7EPNBe0IIk+6yMXwI24UboG7fZQjR2032YuURDIfkhiQrNdzajVSSDILjPtu1rLcsicHPAhFH0/VNa3CuWrSbBNJ144ol3PvXUU+dLaojiTl3Y22CcgVyNAnL5+uuv10JWakiYwpsoZnbqCGbTVIX7KGCAiUniHEi3gclKTC3Y61955RWL1OIIX3brxBdQ00H6kt24CGf6wnMIDYKiRBxwAQhxwEbGD5ktJVQBOtpAiqPtAHACPvR79tlna76CfuVA6+EHzy7GA9Et95jvcyFeTxLYyb0QAQ6oiutwTl9pz/MecRxnqlJqXb7XCdv1bAYGLkjksdW+7rrr9pwzZ86vWltbPy2qf8+mKzx7sM+ACFmIWAQaO28EvemZw9/8YKPHzISGIOchCBH6mKfQCHguIZIR0BQTknbwBKTzQBPggNwltoAkflLrWp5pAQrhL0imh2BHs0GDIC8Uwh9NhnERUEeKDCKfMYsRXQ3YIewBIjkABTQktAj4Aq5ngiF/U62Oc0kHIq6s+T4j5pyYLrZ4XQFoAIVoRwY4dwRBcMvy5ctnhynz853pnrUbuCCR530fe+yxJyxatAg3jYi5czHtxXl2NbCa5QGiOqlGqLTnta4IKcl9xAkEmwkJncsz8D8ZX88444zN4gU4jx08ZUmpJif2ftrBS0hUNG3QKL70pS/psWEGwuyEViHmLpMwlop3/GbHL3EVaAdci/QbQiYjeNF80EjEwwh3VqLDBSBEk8GdVbK90ncu4Q63QVxEY+O/c/IVYm7a2sQDXMwfHlRymADl+36T53mXv/nmm/PHjRvXmZgrPHptBsoeJFavXl0xefLk/7do0aKrgiCoFKDYGhHZazMddjygZ0CeGwQo/v0IT+z+pl1diFaEOQV3JNGdFv6ATCSiYyTQLsQj6be//a12N5UypcRLEFCHfR7bPMIRwGA3j6CX6Gwm0/Rm4n+x6eOKi8mIuAdMWPAXwp9gykGDIGcT55PniWhrSTsufeLJBMCg7RgBbtk1XLVqlfZkIt5DNCfRaHqy0AKCaDtoE3h5SaS53HMmw/Fyz/POiUajz/bkeuG525+BAQISPdvyzp49O3LzzTff29raepa81GZw0PanqVgtenYfxRpF2E/hMyCbCnbpmG7kOZLdv5hFMAehGUBYy4HZB4FPrAIxC/SFwMeLCeJYdt+0oW+EL59BCGN6wQy0tTgIrsF3X/3qV7U2wgFA4C5LXIWYwficfjFhSdU6AANBzCHBeLTHg2n+/PlZIOF70bwBG1xzqRuBmUrumzbFeKdknoWnQQsCWEVbks8zYPa3pqamU4YOHboiJLLzf6bzkUJmmwECEvlPwNZazpgx4+BHHnnkZ++9996hmdwoumkx1OOejy7sodRnAEHMDh0NAgFpCl8RlJhrqMxGwR8zMIx7M+3s/I9ZCD7DtMtPnDhR8w641EICQzYDGhJxbWaZNXbVOsoZLyl4Aw6S72EOA6gYG2Yl/r/tttusMZDgvm+98cYb1imnnJLNz2RqSsRJkFxQeAJ+AyL0QwoPyHjShchhelgVAygkdQdzQ/Ae6UNw45XYDAHmTKr7J5VSFymlwlrZvfQSDRqQYP5uueWW0T/+8Y/v//DDDz/n+37Ry1b20hptu9t8tgX9MrBevmiv3veWnRMsx64bLQEAMOtPI9Swy+NSSrpuU7jCAeC++uSTT+pYCMqIvr/ifW3iYUcOGCB8Tz/9dO0mKym0CXZjRy88gfAeojnI5oZYCK7JmPghAA6zE9HSUuCIuAcELYQ5QhzTEgABmIgph/4AJwLtcHU1Qcgi/Yhlac0B7YTIcPme/oSvkDnp2cr/e+4lJxbjhyBnDeRaBoFODa0HHcf5plKqo2fXDs/uagYGFUgwATNnzqxdsGDBtWvXrj3Xtu0hoiab/u/l86j0qiQtn2nq4k7MHT4BXgSSAQISGyCnIGRJrIdwxSxkAgRtqUiH9w8cAG0hu/kMm77siDE7YVYBRLguXk6cQ/CbHKZZh8/4nwhpTEzEWXCgHcA3QCgjsOmLADfAR2pMk8Ybr6zXX38966mEwEUAE/UNeCCchZsQMxdeUvADJOUzgcXUxIvK81FTJROsx73tuOOO2lyH1iSAKByQ7/uAw09t2/6BUmptWT+Y/XBzgw4kmOOFCxdWTJ8+/bt1dXWXB0FA3ePNXori7Ij6YTXL5JL9CW2m7R8BCJGMcGJXz3e5pWPhFrDfiweRaSpB6EMeI8zpixxLmKpWrFihV4rPIIghuMmrRF8Ib8hihLIIejOLqghi+ib+guA7EdSYlDB1CfjQJyBCxDafUe8aLymioqVvzsWbCCBBm5FNE+25FzGrEWAHEAKIwk/01eMmgEWKkcWLF2e9siQuJQPM1Hm/ZVOlxO9Sgnd7Y+vPZ2x7Yyu17wclSGReUHX00UdP+8tf/nJhR0fHfgrmK+j0Bw15ilJ7TPtuPCKE+Y0rKoITXiA3mprvxcUUb6VcjZRaD8QnUAgIcCG5H5yDWbWNWAh4AuE4iKfAKwryG8AQXkO0CBHY5GHC5AP/wXcACm6smJlEk6ENxX3wbuKgDbEZkNUQ4nJwDVxt+U5Sm4u2BFBwTTywrrrqKuv999/fLK1IX70nsiZoOJjpIOUJRhSXZElFopTd7nnubZFI5Eal1ICtld13T3t+Vxq0ICFA8eKLL+42fvz4q9va2iYFQRALtYj8HpxybwVhikDFIwiAEPu+2MIR4pigMBWxuzYD2jiXHa8QyfAKCHBIb9FGyBTL/5h5EMYABJrAP/7xj81Se5hmUCHP8YiQpVXLAAAgAElEQVQCIBgTVevwuKIvqeXNdYmmpq4Fgpw23AcZas305LjlXjJjhs4DBSlP/6K1cB73CMEOIMG5mDv3vtYmREPjN+AKx4IJTch8wxW5LVMrey7Edjk9p/2l/QxqkJAH6NFHH43PmTPn6y+99NKcZDI5MkwvXk6vVmH3IrtWzEcU85FdNUIRgJAANHb7CGp26KYZikR1kNTUqEYgk/31oosu0on7pMAQpiIqy5Hcj+tRW5q0FghxU5MRsppri2cP44JY5pr0T2AcPyIkaQu3IMFyaDuAHYLerDnBfTB+vKmIGBcNWq5Jf5RHhaNoamrqchL7WpMweRKC+JhDyHaAwzyUUht937/Jtu27lFIthT0BYevcGQhBwpiRK6+88sQ5c+Z81/O8g4MgqMAFvduPTH/BfrcHXPiJA+kW8x0rgggbPem64RKEHBUzDoIe7yCigfEOMslazCFELrP7Fr9+NA2S1kk7tBLa8BmeTwhxBDjurlszd8oOH9IW/gOuASFPKowTTzxRB8sxTq6PeYxYCO4BUADM+AwwE66CtnvssYcGLnblInzlHhkTbQEuAvnE3CXfC6D0FUjk8kRcn3nEDIgJTzyeTKAMgqDF87wr33zzzZ+EUdmFv9ubgW7PTi+vs4mfuPPOOytvv/32PZLJ5Lnr1q07pbW1dTfHcWzJS2N6t8hnRfXqKK8pLem7EVOOmE7YrUMaE/FMhTYROiJEWW9s/5hncu3zmD7QPBDkaArENmACYkePuYdrYIZil4/QRrBhpuIcsqfytyS64zfXEqFOW8YEX0E+Jb4jdTgahRQw4jN4AzyXaMOYiWWYPXu29pISbYQ+IYDhQjBHccj9yWKhQQBueEsVUhuirxcbDYj5hnsB0GW9jHd1o+d5tzY0NPz3qFGjQo2imwsUahLbmLh58+btf/3111/+wQcfnMnmRZqaPuvdnPeenZbvtrhnVxkUZ0tcAoIFQU+aCngCOczdMgIWEMGcJLtpseETGAcAiHCn5gMAId5A7HyJHMZDSA7IYhLtYc6RjYZpY89UZ9Mk7fPPP68T8yEIiYFAG5FUGvQNUQ0PIiVFcbWFh5DrCxjAPWCmwVwjJqzchSav1P/8z/9kAUJ28qX2QAhhDTAy96yVAKsRzNieTqfRKO4INYrurWAIEtuZt9mzZ1fNnTv3hFgs9q2Wlpb9m5ubx9i2nQWM3AjTstYqygycRJDwCBDHgAmI3bqYmPhcPIoQyOzcMfdIgJvszvFkgij+2Mc+poUUO3EEtJQV5ZnAg4ioaExFmKxIYCf5mOQ6IozFrMN5xECgaeABxf+YlugbMONAUJIpljZSOOif//ynrvbGbxPMuEfIdghyKYGa+/gzNjQSuAohuYsRRd098bTts0QTRHODz0H7A/RFIzMAty4IghuWL19+V5g5tvCVCEGigDm76667Rv31r389df78+Wd7nndIEASJ3NPLGiQKmKuB0pT1YodOem0xA4kNXu6BwDcE+mOPPZa9LdnFIoyJV9DR1LatXVzhK8jcKtHIVKyDdyAmgoNIa1w5MVmZJkvpXMwmn/3sZ7VrKuBDO0hwAtrQZBDmtKMf+kYLog0xEBDlxGcIUc09IjjRdq655hrNhYhm0dU6Mfa7775bu5qiifS75ryVh8mMH2H+AXE8vUwzouEIsC6ZTE6Kx+N/CvM8FfZ2hiBR2Hyh0qof/vCHI+fOnXt0U1PTxNbW1mPS6XS1GWdRYJdh836aAQQIPAEaBCYWM3hMhIsU+sF8hGAWcEBAQxpT6Y3iQLSnLgS7/GeeeSZrH+f/uXPnZqutkW4Dk9OyZcuyhLAIc1OzId0GJh+IZUALDygitXH9lEyw2OThSNAkaEPJ0QsvvFCT1aJBMC60BoCDKG6CA43cR5vNvGlaQ4vAFIZGIV5Z/bRM27ws9ycaGFwMwMYcyDoJGPrk4bHtl5VSF1qW9WYIFPmv5uAEiSKZTWbPnm3/61//OuFvf/vbSa+99tr+lmUdmkqlqjeptnEzYZq8fOIqaX7HQ95pe7Yt3w/CQL78n92CW4rgBwxkJ45pRTyLJBZCOoZ8RggTkJabohueANs+eYXoF9MOKTHgDqQf3GFJYyGCnmhqdroQwuJSKwLOTGHPrhjCGU6DA88kigjRl0RKozlMmzYtmDp1qkIzgBxH22FMEhVO34wFDyByLqExmeCRmY8gIzC1J585LjQdxkAUt+m40b0YiSK9dNtZdcCV6HBSqMicCmAEQeAHQfC84zjnKKXeK/gBKvSEvrnlQkdVcPt+BYlMNtYBX/Zm4cKFzoYNG2o8zxu9YMGCTy1fvnxiS0vLZz3PqwyCQL98JjEpL7r5wppuhn3lWljw0zKATxAThIAywpOdNdHSCGWXLKeOk+UgCB7DfEG6CjKfGsFamkjGtk+6Cw48gAiWIwWGrB1ZVNFQ4Cu4JgKXdN5Lly7dIr+T2Pw5F9Ic3oO+cWNFk8GcRHJBQAuAQ9jjmoog5H+Ib8AOE5FoJfJswT+QVgQuRAIBhWexLCvt+/6iIAiqHMc5QinlCAAwZp5TTE9oMOSl4jDOLckNDeOm3gfmQ6Ldo7GYzgEl9041V9/3729vb/9OVVVVWAI1j3e6X0Eij/EN2Cb33Xff8Llz517x1ltvTWhraxsViUSq0um0zhNlHuZLGYJD7y232OUxoyDw2V0TT4CQFbdmhLAkt8OMhFlISGTZYRNfgGsp7qOcJ7WhEUqcS/+YgTALIcQR2rTBpRS/fhG+8hzQr5xHGhA0CALm5LmgX86VcTBeEgCSS4oDzgDPHoCEdBsCOPQPkYsnFBpNFwDB5uxJMg1synk0rKqq6j7Lsg7DbMo9SOwB1wWEyH6LRiHjKlWPJwFzzGqQ2ZD5uZHijuOk0un0gmQyeXV1dfX63nvqyqPnECR6cR3RMJYuXbr7Qw89NNK27c+tXLlyV+Iu0un0kUqpHdCkxARlJoYLwaL4iyJCmfk++eSTdcAbbqOmo4EIPoLUIJ/feeedzQLJWBdIamze/I1QxqsIwS67bDQBqegm6TbQSPB+EiHOdXK1SQQZEdAIfDgOgIWcSQCE1MgWcGPsFCiiD9rTPwAnBDNa0ic/+Ul9j8JXmMI9o2WsC4LgAsdx/oAG9OUvf/nT0Wj0x7ZtU28la3qSeYNsP/PMM3XaEDlK9TmV4EPmk/XC7dfcnGXG3eL7/o8ikQiZY7ebELD4T+TA6TEEiT5eK4ABz8UvfOELx6xdu/aCZcuW7RSJRA5ob2/HNBUR970+HlbxLleidlhxh0RosiNGyHKYAVj8DadAZlUEs/AW7MIhRTH5EJ8g8QtEJIsZhraYhwiOo8CQgD9pLZ544omsDz/XRGCZyen4G8IVf39IZq6H4EbbETAh/gENg4I/XAdBB0GO5xTZXTmEizj44IN1SnIAi3GYprJMu6RS6oe2bX/fFJDt7e17xOPxO5RSJ/KMmlloOY8U5FwPgrxUyWwxK4rmBOA+99xz2vuL+RG+KLM5aNmUBfo627bvDNN3bF0EhCBRPPFYcE8AxowZM2rXrl2738qVK49KJpN7Llmy5Ejf9/eB/N5aBT2T5MzsCvW1u9gtdfm5aSowd9Lm39u7GcO1sMvMoKZ7ooytkJ1n7ljM65n3bI4z1wQi58jn2KrhGAAKU3iKiQaCmPKiuI/KZ3If2PyJehazD9Xb4BjgI/iMGATIYUhuCWiDRAZI4BUk9kK4J9MshNaCeUtyKCGE2QXjzioCHo1i5syZ+jqcS5wELrvEb5icBu3RWji/K28teAjLsh7NVHNbZc4fz1t7e/su0Wj0jkgkMh6gMFN50Pavf/2rJsgBjFz+o5DnZ3vPV3e/zx0D88H8ot3B5cgzmHlXMLnV+b7/gwxQuN29bimeV6z9mraQD3jmuBRXSNfyKmxmeUnffffd6hUrVlRdccUVh9TV1U1MpVI7NjQ0VEUikRql1Ejf96PpdDpGQJ/pxZIrKPhftBLTtdIUsIXYlU0buky3fMZv2TnL7lzGZtr0c8/bFmjIjrArTxq5H74TM50JnAhpCXiTeSEzKkIel1RTe5DrYHfHdMSO3rHt7MoxhwgZ+AsIbuz1CG92+VIRjvvCswlXV8bBtdFICMwjoE7u03ROkHsQD6gDDjhAgy0pxan5QN+icVD0CHdYPHfog7xSaDQIallDPJzQQnBbldTloj0JSCul2n3ff9h13etjsdhbW3MD7ejo2NtxnJ86jnO0UkpXcJSdOevKvZ166qm6Up08T5L4sJCNQF+9tswjACsgKxqFcf11nudd4TjOA2VneipcDG2xLKEm0VdPajevg5vte++9V9HR0TEsFouNWbNmTayxsfFTNTU1n6yvr4+//fbb+6VSqUNs26Yehm2+rF3tvk11XAS4vOi57XN2mVvcgQg6AQjzfBMctgVGpvbT1fVMcMrVDEzw43pGDEOAX7zv++6IESNWfOITn6idMmXK6FMnnGpp7M4csruXTKnEBIhmIONHGAIQsgvFDHTxxRdn60czBmIsSLlBeVDOgyMgnTelRCUPk6lJiKmJaGp2uOPGjdPnSelRzGEi2Amow64OiHDADUAimzmb+Jz+0UbwspJUIyaI44Tl+/49tm1/Tym1YVuPI5uVVCr1cdu2f+U4zkGm9kOfzBHuuMReUEe71D2euFc0MNyIb55zsxVPdCZMMJ49dnOEp5+vlHq+m69q2Z4WgsQAXlpAYfHixbWRSGRUU1OT88UvfvH09vb28dFoNOq6bqXjOGgfQ3jJXdd1bNuOWJYVkapjXdXO4MXpKg2D7L7NXTFTJ3WI2cmayeDkBWSnL5+bgCACv6udp7TLBZdNAi7I8AH4uycjkYiPfLRtu9V13QalFJ/Vs1v+zW9+8+wuu+ySfvfdd4edfPLJv6qqqhorgpr+hVfAO4jiQGgRkL9cU+YAm/6zzz6rXSo5EOJEOPOZ7PKx/yPUpfQosRDkRUKbMLUpU/vhb9xosZVLoR+uff75F1gPPHC/tvczr2gZkNe40QIsxEIAAnzGIdoTbUnbQVZX/jYFYOaeO9Lp9C/a29tnDh06tJPAyONIJpNnRqPRuZZStXpDmsmNJIAMwBHFLVobXfa/JrHl1lmeJ7gckjPC6zBPAqaZcbu+7z/mOM7ZSqlOFSk8Op+lcB7KbwbQPl599dWhyWRyl9bW1h02btwYaWxsHDZmzJhPVlVV7QNfm06n1TvvvBNvbGysyaRERxOJKKXgQviMg+gr6oDjGSmeQNkKfqb9NyME8dZSvu8HCHQxFeUCQqat/j5jk+OPDy3LomRak1LKJfDJcRwCvVLDhg3r2Guvvahj7DmOk25tbV3T0NDw/C677NIUiUTceDy+vqWl5YOXXnrp3yXXOgVWrLm5+cYhQ4ZMdxwnIgLM3NUTeEXAGELaBBGKAhF3QCAcx/Lly7UXEzwD7fg57LDDdLwErqYcmIrQMhDWYtKQIDxTy8LbhiysmKzoByFLzQfiKjiYHwCCsVGjmnOJuCboD/dbmVcR1nATaDKc04Vmxlw+0NraeklNTc02NYjcN6Gurq6qtrZ2muM4l1uWtYN8L/OI6Q0tC77GzGdVam+UaboEHJh7zIO5RxAEKdd1f9LR0fH9mpqajcW/jyLYfoo/qO32WHIgMTCncbvz3L8NtjKp8+bNi+66664VyWTSjkajCH8nlUpFKyoqhiDsU6lUjW3bOtEP//MbN06z/OUrr7xi/+IXv4icdNJJwSOPPDIUjYUd7ujRo9tmz57dzO5NKqZxPpoFWkeGVM2SNpFIpA5NoLW1tY2KYvF43K+pqQkaGhq8qqqq1DHHHFMQqQjgNTY2nlFTU3ObUmqo3hEpld3pIpyffvppTTTDG5iCBNMEqS3wsRczEF5KENr8zw6UPEx/+ctfrB133FHv6CF0yaskZLNJTIsWwWekAaFIENwI80B/EMEQ6mZRImIqpPocAW20J3eUmY+JMcNBAHKYw0wwzoAFmtYbra2tE6urqzuz/RV4rF69umLHHXecbtv2VZZloZlmYz24b7REUnXjbovZrv81iS1vMFeLY64AZLzYzCj7zPw1BEEwx7btW+FwCpyusmxeciBRlrNcjje1FeDJuPgiSApj7Ys8R0EQHLHJS+xXtm2PFcFl8ht4BxGNjAAWsxZCHBMT2VqPP/54LUAgZ9l1Pvzww9mUFQh6hDh8hYABRDLusLK7NzUJk7shOI44C+Fx6BcTkqT0xjWX2AcAh10vGg7Bc9j/2a2b5jApHLT//vtn70ECx5jOIAjeVUpNJWhOKQVgdOsIgqCyvb393Hg8fo1t251ZCjMH94tXGCY7XITlEDBhfkoBOMQ0JylZiJHB0YDU7zlmUDTcpnQ6/cOmpqZbR44c2dytSSujk0KQKKPFDG+lcwbWrl1bOXr06HssyzoNJcg0eyG0CAhDMJNDKSNMtZBFgGA6wQsGgED4YTqiLbt80QSwaxOzIJ5MpP0mxkG4F3bUAgym9xVeR5iVRJCTUpxcTqTs4OCaABL8iERhQxADGFK4SNYY0xIaieyG+dwAQQD6g02eSd+3LOs+gqh7+mwsW7Ysvscee1wZiUQwPVWYmhJ9A2B4cxFpzlyZ8T5b47l6OqZ8zzcBS9aFz4idIGUJJj3xBBPnB9/3N26ysV67Zs2an+266659r1GUkEklBIl8n7Sw3YCYgSAIKNj8XcuyzrUsK5HLQ8AtYMbBjdTcQSI8iHNgx06yxcbGjzQHQI4kSfuNiykchGSMxeyG4KeNaAIiZHK5Aa6JxxN8BFoGHksE3pH+m4PzCFTDDEKeJdoAFmgVaDMmpwFZDl9ChTlTuElMA05QqVTq0tWrV/+5mPUTgiDYwXXdWY7j4AVULV5NwuUQgAhQkA5DXGZN1+z+fIBMoJC14Te1yNEcJTLdSOEBH9bouu6dkUjkJqXUoNUoBi5IlBDS9ufDH157M9NHzHXd/4pEIphYqFGeDX5DWCHIMQvhHZTjMqtzIWFCQogjKDCdkABQBKHUr0awS74n2qN1ABZishKzhuxY+Z9kfYALcQ4cBMARCyFARVvSjmN6kpxJRFMzJgDKLGsKX8L48WYS4WzmJtqUCrsumUx+Kx6P/7EnJqatPVc4NXieR/DZt5VS0Vz3V1xiqbHx8ssvZ727ZB2696z2/EWXtTHNjSYHhZMCGiM8k8lbZdo3+b5/bSbYDueJMjrym9uBCxJltFThrfR8BhobG2vj8fhliUTiYmzoYn6ReAfyMM2aNUsLAyGIEQIk1cNURCoN+AhMRRDUEMV4FHHAE9AGExOJ4xCMxEtMnTpV7/IljkDMWpwjLsPkO8LziL75Hi4E+z2kOddiDJDiaBDYyWmDGQqTFmS4SUZDuHIPcBpoNV0Ivw88z/vum2+++cveLNXZ2to6JpFI/EgpdeqmaGUCO/U8idaGGY9xUjvDjMru+Sp3rwcTEOR5kDWSMeOpxgYA8JU2xu8NruteG41G5xXDdNe9u+i/s7YEifzApf9GXC5X3mKew4nv7tIGQRBNpVKXR6PRWZtyElXRj8RBiG8/XkwLFy7MCjMRDhIpLV4ukMSAAWYghAu79H+boRwtQHCDBSDY5Zt8h+z48ezFGYw0G+yoifamLzyf0A5WrFiRNXXhYosnFSYm2hCDAaGOjV/6RggTT0E0OPyICGXTawfPMKXUDMuyftoXgmz9+vVjamtrb3Mc5xS84nI9q9AoSJdO0J+5gy+1RJYS7MhcH3744RbpVtgU5N5PEASr0un0hfF4/HG877r7rA7E80JNYiCuWjjm7Azg6up53iTbtn9oWVatfCHeRZDJBH3hKiqeTAIQEqxG4SAELjmTEGySD4l27CwBDlxd0UAgkhHUpPGQfsQtVhIC8j/tKT1KbWuAhkA8In6lgA/jBBjo+wtf+ILWTtAszjnnnM3AjHa4EZMKHHs/QlYOg/cgi+mv161bN23HHXds7YvHAy82co1tygJwt1Lq8wIUolEwtt/97nd6riDdZawmV9HfXk+5vBGAwRqh+WF6Ynwy3s6gdn+p7/uXRSIRSqB221usL9anmNcIQaKYsxn21aczgKByXfczSilcXXfn4rz4okWwGyf+AN6Av0UoAAgAAztzCtPwOR5GkNbEIojQJ06CYDHSZyDAAQ+EHnyBBMnl7OY1IOy999468A6ymu8pYATRjAlGxkDdasxOgAifEYgHsc0PY6Uf0WQALrxw0ExM00nmby8IgmdTqdSURCLxdp8ugGVhbttjyJAhd8RisRMFKEzPJ0hsNDPMfebn/Q0Q8qzkmp9YL9KesH6Y/wT0RHtzXffNIAjOjkajS/rbzbuv1joEib6a6fA6RZ+Btra2nROJxM8syzqeqmpyAYQRAXwIXFxO2fWbLpnUWsD0tOeee+ikA2gY7CARaKINILzxQCLVNAICt1l4CsqUAhBmShMTfKTgECDENdetXWvNnDVL76plR405A6FPFlk0A4L5MF9RIEjMY/yGLMdFFpATgBBvJgEIz/MWZSKi/94fZpBMnqf9N8VP3G7b9jH8b3p4MVdoX3huAbS5RHfRH4oCOsx1MhBnBtaEzQMR7zgyCKBl1hlQfopa2X1SArWA++mtpiFI9NbMhv326gw0NTUNTyQSd0Sj0f80LyR2/Ndee00LYXb/YjagHcQz3kGYePgcAU06b6m6JvESEMvYqDkAGeIRABFzB2yaK/ibc0nLgdsq7TB1kSdIKtIhMMlQy/Vwr2UsgA0aBWDG+QI+CDByQCGoACrZ0Yr5w/M8Up+80dbW9s2qqqolvTrZeXTe0tIyGmI3Go1+EROg7NT5LaVg0aaIPeHoFNBYbPov5lK0MhO45DMcGkjfAbgRGZ/zjHm+79/rOM4lSqk+Me/lsQS91iQEiV6b2rDj3pyBVCp1lhNx5trKHmrEB+hLAhDUX8BLSJLs8TkCGpPSNddco3fpIqAJSuOgLQFWlC3lR+pHk8QOYd1VHia5R4QK8RP0hScTbV999VWdEBAvKbQKBBBaAZ5LjIU2jBEwk6p1QpiS1A++QrK/5ppngiAgFmJ6IpF4nlxXvTnX+fadTCYPchznXtu2DxOQEHMO4ECEM5l2JTZE7lW8tPK9Tm+0k7GYJDtJG6VGiKRQMQjtNbZtj1dK9TtA98Z8mH2GINHbMxz2X/QZWL9+ffXw4cOJJP6q7/s2L67EDFAFDk8miGIElAggBDc7esxIHJijSJGB7Zm/6QPBjRmKmAUABPMIu3yITLGnm8LPjKZGYyBFuIyFFB0QzZKWApdVdtJoJBKpDbHNOWgq5q6WNBsE6BEsJ/dlTCJp0N9raWk5a+jQoS8XfXKlw24627W1tR0Rj8d/bdv2HpviC3R5XgEK7oWCSLjwSkp2s6hRKYCF3L6Y9aQiIVyUmfIE4tr3/btt255R7jmeQpDotbcs7Li3ZiCZTB4Qi8Ue31QfYVeuIcKF39iScSNFCJlxBLi6wjFI7iOyqRIbQTsxN6AxEESHwGZnT3vIbdnld3U/aAgA0KOPPprNGIt2gJcSZLgIyM985jPaNo+NGwDCjZbEfsJTMC4EJvmY4CvEX18IUwOc6pPJJPEgv+wLV9dC15D09el0elI0GsXbjCzCWUcC5pn5hv+hvKqZEFB26N2o1VXoELfZ3tQkaAgw4GQAX4QrM2M2PMz+5fv+xEgk8nQ5k9ghSBT1EQs764sZ6Ojo+HY8Hr81CIKE6VpJ9TZ26rzIHKbnCjt7vuPghQcgJPsrLqZwFHgykbyPg10/KTdkx2tqEHKPCHDiHOgPd1o0EirKERy3cuVKDT6YKdAICNQi8hogwNUW0HrhhRc2y0qLeQPNhp22mZ3UuHZ7EAT/nalNneyLue7ONSi929HRcWYikbjRsqyRZiwJ67Vs2TKtZVF7Q6cYV5ble34W1LtzzWKdk+sWK3MPsLGBENfYzPXQJu53HAcSu6lYYyi1fkKQKLUVCcezzRlgp7pphzrX9/0LTa8TPJTgBAhMExONGcewePFinfobADnyyCO1gOJ7PI3gKEjXQdwCBwFgVITbuHHjFqVOpU8AgnQO8+fP1/l/ONAKpEY2/zMOaj1giydamnO4LgKS0qO5eY1+9atf6VKp8Bu5IEdlOaXUvc3Nzd8ttC5EfzxSuMMmk8kpkUjketu2h5rzxn3DUVx77WzrttvmblacqT/GmntNUwMV0IDDwqSIZmk+d77vf2Db9leVUn8thbH3xhi6BxLdtFf2xg2EfQ7AGejB84PnjO/7v1BKfd3c3bNzR0DjomqaDMSMAVdx3HHHac2ArKp4OCGsII0hiOEMOAAT3E4R4tJ/bsZThARCH/MRHlBcA0A5+eSTdSoNSUWBPZvUFGgSCB7MT1ybinRy0BeggGYjpi75ziBTk8lk8p5UKgVA9EIxnN55hkiP4vv+eZvMYlcFQTAilxwm2SIeXGh0mOCyJqdtDqcHD08et5k7BlOzIG6CNUd7FC01CAKKOv2Yehul4kCQx20W1KR7IFHQJcLG4QwUbwZIwREEwYOQ1iYhCjgce+yxWlh3lS+IHT95lDDjsJvHvRHXTFxWCVajL4Q4aTOIiTAJVQSFxFkg7CG4SSl+2WWXZbUWCu9AQosGQFwDCQLhHbBhcy20FWzxZllT+sYMRkwHyftMcjQza67ruo8SLFdZWdmZTGoAHYC667oXOY7D5GR9SYXgB5Qx673yyitbBYn8wKN3J0UIeDLGYnoy81Uppd5OpVKnxuPxpb07iv7pPQSJ/pn38KrdnIGMJnGfbdtniEDmN7mC4AIQNl0daBGQ1eRA4gWXankCAICLCPGuNBH5DPKSjK4ACyYIbOq4deIFJRX7yPaKiQkSHXAh+yymCoCKvwUI6JNxocmgdZguoRmTBnWX/7e1tfXyoUOHvtvNKev305qbm0dWVFTApVDfQxfhNrWK1atX6+h0Kv2ZJsJS8naSMV+hqj8AABBESURBVBNQCXeVEzvR5nne+Q899ND9p59+eknmdeqJ/hWCRL+/QiUygJ48RX14C0T0+r6PnXsWLpbiOoqAxv6Pl5HpripDQ1jjMUS2VcwFkvaCtvAZEMlkiMUc1dXOVaKIIaDxguJAIwAMAADRXuA4iK5GqzFdXSGkAQjT1RVuBOAaO3bsFq6u1Ph2Xfc53/fPSSQSy/twiot+KdastbV1dCKR+KnjOATb6XUzNUG0OJwH+G2CtGHWKfq4utMhzgcEXmKeNJ4TPwiCu9etW3fpmDFj2rrTbymfE4JEKa9OOLYuZ8B13Qm2bf/SsizN8Irpgp06wr4rkBCNAYFMvQMS8CHQsYc/+eSTmicwa3GbgoodLbwBfALBcERAAwoIeAACUxL/IzgwnUBuSplMIqkpHkQZUtOdlXoSmKcImhONyLB/U0Lz9ZaWlgtqamr+Ui7ula2trYdWVFTMVUoRbAe3tJmTAR5o1113nQYKcQnODSLsr1dCwH2fffbRPJNEwRtr9kfLsiZSqKi/xthb1w1BordmNuy312YgEyfxRBAEO5u7fgQxwp/gtNxDXmZ+I4BEM5BcSaZHlLl7lf7xgIKHwMTE9yQCxJsKDYb/MT/Ab5BuA62FH0hOzBO5pUfhHkhJPW7cuKxGQntJTGhZ1sqOjg40iGfKKdsonmmNjY27DR06FO+0LzG3kq2XvyGvly5dqoMhSasurrO99iAV0LE8P/BRpGwh/5eAfubZedayrNOVUuvy7XaAKO86dKXfj4EyWf0+UeEAZNc9wvO839u2/RnP85TUBOBLoqXZ6ZngUchuVEBEtBHAhPoOZJOVgkPwHrixQpbLMXHiRM1VoE1wvacXPW2dPflsnd3V5BpwsyWCGxIdYMnlPyzLWtPa2jqzsrLy11sk7CuTF6WlpeXjiUTibsdxDjNTjDOXgAZxJwBFZ2JGx3Jdb7MYCjOSvq9eCeFHiKkx83oZ13/BsqyvFQISfTX2nl6nJECipzcRnj+4ZmDhwoXOhAkTrrNt+3KlVMRQ+XWqDbyK4BY4ZLdXSIU0AQrOwUUTjxZyOgEYBOyR+hqXW/7HREVMBcF3++23nwYIPJgwQxE0ZmowkOaQngAZ5ihz3BkBWZ9Op69IJBI/L8Vo6mI9ZWgUyWRy70gkcpfjOMea/UpUNt5n5MFCOzRdkCU6viuTYrHGt61+2AQAEsTISPR+ZhPyZ6XUf4Yg0RerEF4jnIE8ZiCdTh8XiUQewP9emiN02bnjKcNuX1JB59HdZk3E3RFggAhH+PMZBDdaxfPPP58V8JCtEN4ID0AFDx34BoLFxITF56TjwIuJ7zCrCHFumLbaNwnE2Rs3bpy76667thc65oHYPgiCw13XXRCJRIhG1DVQZT6YMzQz3IzN5IfCP3XlXLD5HBRP7TK5JNaZeiKAhHl4nve/juNMUko1DMS12NaYQ02i3FZ0kNwPqcKrqqoetCzrGNNTBuGCvR++AC5Ajnx3ngIQQ4cNs+6eN08DDoILgECDICqaA0F/8MEH6/9JyMcY8F6iYA1chAg80WbwrScWAhOTxEkYwifted68DRs2zOyrynKl8JigUXR0dBwVj8epHb2fOWfMOeuHVxg5tCQJo4wbE6PpaNDb9yMcFkGUaBJ4yBmgFnie9+uGhoYpI0eO7MyFXkZHCBJltJiD7VZc1/2K4zj3eZ43TASu7DSJXsZ7CEFTqL895DSxDiQKJJcTfZJPCZMSwgvAwcuFkqJEbPM/HjnUkcCcJCYR2hJURyQ2hDaeVblZT5VSqXQ6PX9TupDZVVVVawfbGuIO297e/vVEInG7UmoHwFfyVjHvxFAw93igSR4tk8fp6/kCHAAJwMIwJZLD6We2bVNfInSB7etFCa8XzsDWZiAIgop0On2nbdtn2badrUxHe4Lr2NVjGjCJTpMH6IrQFq0EYUACPtxkEVoEzwEasnt8+OGHddpxASdiJ7Cji0eOeFDhFYXJJLdwTeaePNd1H4hGo1OVUh+V/UpvxQJEQsC2trbJFRUVNyqlhuWuC2sJIBOTIjU9cuMnRAMsxEkh3/mWZ4LngOBHeCk4JUMTBCRuWbVq1VV77rlnR779DpR2A0aTKJ6F8d9L0xt9DpSFL5dxplKpw2zbJhPnXrkCgtoFl1xyCXWYs7EUolWIH35X84AmAYdAJTryLtEvdSaIkcDsQHQ1gXviPnvrrbdqrYV4CfrlfBIJ7rzzzjr+Am4jl6Qm54/neX9Mp9PThwwZsrpc1qO794GXk+u6l9i2/T3btqsMU46eZ0xLxKmQYp1D3Ge7Dw7bf/ulhenIgFMEcTDCKWXul8h4HCluKEeHgwEDEt19+MLzynsGgiCIpVKp78RisWsxXXC3mCzY6WGeoDYDnkYSzyDCZVuzIkKBwDwC4SArEfqkAWc3CZEtqTUgV+Eq4CNMjeXjH/+49rRCA6G/XFdX13VfbW9vP6Ompua9cgmW6+mTtnHjxpqqqqpLo9HoZWagpGgNAC6BkKRQ6SohoLKUFfRCOVRxgAD88XTDfTlnPZPpdHpKNBqlEBY1WcvqCEGirJZzcN5MY2NjbVVV1W8cxzkOMlReYHaf7DSxIVNZTGIW5PutRWabWgYJ+jB1YHYyd7ecCwdx9dVXa4ElO1r6Jt0G0d/wGgg4AZSMsNOV5dra2r5dXV399OBcsa3fNaCfSQg4UymlixaJCY/fcD8EKL78cmdRvly+qbfMTVwL8yIVAzEdslkwnodVbW1tp1RWVr5ejusZgkQ5ruogvKeOjo7j4/H4fKKwTRdTcUPF5x5PGf6X0pTb4iTEmwVwQFPgh2hbsUOTvwfOA1OWKagoPgTJCrEtO2BZjgypvqqlpWXKsmXL/jRu3Lj0gFiq7VtminobcE2e531dKUVSwKEmUDDXeK+Rzl0KO5nz21sggQMC5ks4CbmG3hhQNsTz7nMc5wKcEIo6ESXSWQgSJbIQ4TB6NgPsQD3PO81xnB8FQTCa3kzXWOIWEOyQn1IRTnaouVfONQ0hDBAS1BMg6hqNBAGFicnULgAIUobj7mpmes14NJGP6QPs7rFY7OFyNEv0bAU3PzuTYvzSSCRylRUE1b7fWa/c8z09t889+5w1/aLp1pIlS7JanAhvc927Axq5MRh4uH3nO9+xLrroIisaiWqTlvGMfJhMJr9eUVHxfDHvv5T6CkGilFYjHEuPZiBTX/miaDR6rWVZNbk7eTpftWqVjn149dVXs+YKU7jkG0/ByWawHqVHH3zwQc1B2I6DjWQzsjoIgjUdHR2XVFRUABADQ4Po0Wr0/ORNxXxqfN+faSv7ErMWhQDzU4ue0sGJ2i058NkVWFYGTEzuafuBd1uOVeqHkIbjvPPO09mDxcRkbAzcdDp9d2Nj43dGjRr176Ccnt96SfUQgkRJLUc3BtPHpoBujLBPTwmCYFhHR8eUeDx+kVJqtJDZptAgidysWbO0RoGGYbqtShxEvoOmX0hydpnkZMrxesnIk6Dedd3vRqPRu8u1elm+81Vou/Xr11fXDh36I9uJEM1MYqzOLpTSwAD3QwzKmjWd9ZhM4Da9kvK9rmiAbBYAhb322ksHTJLQT8Ahwz8xkMXpdPrcWCy2tJydD7YCEqHkyfehCtuV3gxgqsD0ZNv2j5VSO0oAm7zk/I+3E6k78EAiISDeS52yp7POQb4HQmXq1Kk6XxQBVmYgGH14nlfn+/41Gc+XzoRS4VHQDLS2tu4UdaKznYg90bYdnR4ek49ofXBAmPg2bNiQTTFuBjQWsqZiRiI1PBUDSf1ORL3kaeLaGZ6rznXdiZFI5MlyBgj9ThS0WmHjcAaKPQO9tB8hQMvzPArU/8C27bE866aXjAiDuro6nQJ80aJFOroXAZAvSAAQ+O4TiS2aihDeGTK73XXda2Ox2H+XK6lZ7Mdha/199NFHOwxJDJkRiTgXWrYOuNPrmXEG0FohQE2NcZICmrxSvuspmwRcnvGgosAU8TK5HFUQBG1BEMzdFMB5nVKqta/moL+uMyBBopfkSn+tQXjdHs7A1p6HTLbR4+Lx+G1BEOzL/+KqKjtChDpaBFG9eD/BK2CCyuc46uijrN/99nfWiBEjsp5MRtBcRzKZvDsej1+llCpbe3U+81SsNpkI+9Nt2/6B4zhjMpqaENdBS0uLwkUVkhmnAilqVMj1SZ1CSpfx48db8BFyGBHe6SAI7m9ra7usurp6fSF991nbIgvIAQkSfTbZ4YUG/Axgekqn04dEIpErlFJfxQtKdowCFGKOIPjujTfe0Cm+X3vtNWv58uWa6H7vvfeyqcdJ902gHJHY7DYJrOMw4ySwMvm+/5PW1tbvDh06tH7AT2IJ3UAQBNF0On2O4zjft217pLaG+EEnaR0EVjKdsv785z9bixcv1j+vv/66rj5oclKiWbBB4Ae+gXU89NBDdQlVyfqbe9s4HARB8OeWlpbpNTU1b5XQtPTqUEKQ6NXp3V7nRYb87V1ukH6PaaK5uXl4PB6/OBqNflMpxS40G51tVoUTkxS8BTtRTBek24Cc5iDqlspyImAkDkOmFrNSMpn8eXNz84xyzAhaCo8QQN/e3j4hHo/fZFtqdz2mDEh0xtxbOo0HP3BPa9eu1WnaX3zxRf0dawvPQM3zo446SpuUCJCTNTVdo0UzZF09z3vYdd0r4/H4inLnIcx1DkGiFJ76cAx9MgMIl2Qy+blYLHaRZVkUuxmSyyVIsF2uliEDNM1V2gRh2xptMuYIN5lMLli3bt0Vu+++e9nVFeiTRcrzImgUqVTqy1Eneomy1aGWZWnbkHaFzWh24rBgmIo24xc6saVTBJq8hZnfi+CWIAg2BEGwsLm5+Ye1tbXv5znE/JoNgH1iCBL5LWVxWg2AB6I4N1q6vaBVNDQ0kCPorIwJCjfZmBlFK6PP9YoikltqXItwkbrUQRCkgiD4VVtb23dK1lZdusvSrZHBMbW2to6siMfPsyw1zXacEX7gO7lJ/yR3lhk3Y4KCbAykeqFE1Xuel3IcZ7Hv+zfU1dU9M2bMmKKlAec5HCjaSAgS3Xo8Cz8pxIfC56w3zyDraGtr60GxWOyYSCRyQhAE4zK5gnSFNHOXKe6U2xhPfRAE8zJZQPNjvXvz5gZZ35no7CNUEExSjvM1y7JqbdvOerOZIGGurRR/6iJCO2nbNhrDA5ZlLbAsa+VAEei9sfQDEiRCgdsbj8Lg7BOwaGxsrE4kEgdFo1HqUhynlNrZ94OYbSudnEccxY04rk7LRhCklVJLUqnUTbFY7DGl1KAoO1qKT0omaHJIe3vqpEjEnhmNRg7wfSva6dGmlO8HynGIgdH0hZZ7QWAFOkjb19t6FypDKett3/eftW17vmVZbyulBn1sS++BRCjJS/FdCse0jRnIVEkbE41GD7Qs+xOb6lTs57vWTsq2agPLsy3L7lDKalFK1fu+u9KyrOfa29tfr6mp2RBObGnMAKDQ3t4+xvftj9m22iEScWocxxnmum7lJk0vHgR+3LYjFZblR33fSjqO/ZHn+euDIFhp286/IhFr5YMPPrju9NNP90rjjvp/FP8f22VRP8Zoj88AAAAASUVORK5CYII=;" vertex="1" parent="1">
          <mxGeometry x="318.82" y="110" width="182.37" height="129" as="geometry" />
        </mxCell>
        <mxCell id="-UijNQ77xzfrEZaJvv9a-20" value="" style="shape=image;verticalLabelPosition=bottom;labelBackgroundColor=default;verticalAlign=top;aspect=fixed;imageAspect=0;image=data:image/png,iVBORw0KGgoAAAANSUhEUgAAARcAAAEXCAYAAACH0wDUAAAAAXNSR0IArs4c6QAAIABJREFUeF7tXQdYVMf2525j6SDdhkaMij2gGFtEE2vUqJFoYmLh2WssUTB5YIvR2LBFicYYE/0rT42KvWBMYovYBaNRBBREpMPC1vt/Z73Du6y77N3du8vd3dnv80PYmbkzv3Pmd8/MnDmHcMAfjABGACNgBgQIM7RpVU2SJEkQBEFaVadxZzECVoCA3ZMLazICJK2QojC5sqYBuCENBDC5YJXACGAEzIIAJhezwIobxQhgBDC5YB3ACNgpAuZeyWNysVPFwsPGCJgbAUwu5kYYt48RsFMEMLnYqeDxsDEC5kYAk4u5EcbtYwTsFAFMLnYqeDxsjIC5EcDkYm6EcfsYATtFAJOLnQoeDxsjYG4EXpGLuQ+8zT0K3D5rCGBVYA1K4xuyESHotFyMH5/xNY2XBq6JEcAIcA0BvCzimkRwfzACNoIAJhcbESQeBkaAawhgcuGaRHB/MAI2ggAmFxsRJB6GBRHA24qMwMbkwggmXAgj8DoCmGNq1go7JhesGpgwMALmRMCOycWcsOK2MQIYAUwuWAdMQABbf8aBZx+4YXIxTjtwLYyAcQjYB6+oscHkYpyK1Eotzkbqt6MJUyuCr8WHGiVaqhIjcjHqAbUICH40RgAjoA0By87kauRi2Udj8WMEMAK2jAAjy8WWAcBjwwhwAgEbfLNjcuGEZuFOYASYImA9LMQ5cuHspiVT2eNyGAGMAD4twjqAEcAIsIsA3a7inOXC7lBxaxgBjEBtIYDJpbaQt5HnWs8OgI0AXm0Y3EYfk4st6hweE0aAAwhgcuGAEHAXqiOAN/VtQyN0kgubBhdWFttQFjwKjIAhCGDLxRC0cFmMgMUQYPP1brFOv7YjVDtPNuap1o+3MaPGdTACNASsZxJgywUrrg4ErEeJbV+E1ikLTC62r5l4hBiBWkEAk4vFYbfOt5DFYcIPtHoEMLlYvQjxADAC3EQAkws35YJ7hRGwegQYkAs2461eyngAGIFaQIABudRCr/AjMQIYAatHAJOL1YsQDwAjwE0EMLlwUy6MesXdBWst9KwWHslISHZcCJOLHQsfDx0jYE4EMLm8hi5+BZpT4eylbXxZFydFsxddt/txmvzKMLkB+xMBtlzsT+Z4xBgBiyCAycUiMOOH1DYC2PCwvAQwuVgec/xEO0XA2gnO0P5jcrFTRefasA1VXMb9N1vDjHtgtwUxudit6PHAMQLmRaCWyAW/TswrVtw6RqD2Eaglcqn9geMeYASqELDLd535B00jF/M/DKszRgAjYD8IYMvFfmSNR2oFCNjOK55wwORiBQqHu4gRsEYEMLlYo9Rwn60EAfPaIVy/v2Sz5GJesZpbt6279+ZGB7dvHQjYLLlYB/y4lxgB20UAk4vtyhaPDCNQqwhgcqlV+PHDMQK2iwAjcsE7ALarAJwdGVY6zoqGaccYkQvTxnA5jABGACOAEMDkgnUBI4ARMAsCtkcuusxps5nZZmvYLALHjWIELIUA58ll69atQolEUq+ysrIDj8cTkSSp5PF4SvgJIKlUKj6fz+eRJCng8XiESqUi+Hy+g1Kp/trkD0EQrGFEkiRZU4dq+p4giBrronbpbWj2HX3H4/FIwAnVgd9r6pdKpdL5Pb0uvU1oD32HZAJOX9qfYxhBaz5Hs01TZUY5p2ntK71tGB/oGfqb7vG96iHoJZO+QZu0tkFsJPqdJjO5k5PTrfz8/MexsbFypvph8oQwoAHWJo4Bz2RUlCRJ8axZs6YnJCRMlMlk9VUqlSPMcz3zk1HbuJAuBIBDOKsSWGwUAjAHeDweEJXM1dX1wZAhQ9b/+OOP33MNIE5qEkmSrn379v3q/PnzcxUKBU+lUmFS4Zrm4P7UOgLoZSsQCMq7d+++/OzZs8sJglDVeseoDnCOXMACXL58+cRFixZtBlIBExF+4g9GACOgHQGwYgQCQenMmTN7fPvtt9e5ghMnySUgIOBsQUFBD7lcDqYftlq4oi3W0g/DtnCsZVQ6+wl7OfACbteu3dnr16/3JQhCwYVBcZFcXL28vO6XlpbWg7VlNatFrTTWozlc6ynX+sOFCWArfRCJRA4ymezlzp07m48ePTqfC+PiHLnk5eUFNmrU6I5EIvEGc4+tUx8ugF1rfcCsUmvQW+LBME/gJUwQRFFsbGzLuLi4bEs8V98zOEcuubm5/o0bN75XUVHhjU+G9InPnr7HDMlA2sVxcXEhZiUXA8TAOXJ5/vy53xtvvAHk4mMYuRgwagZSwkVsEAHbVxFMLjWprfHkUtuTwZo015r6WttytarnlyxcuDBk2bJlz7jQaxuyXLgAJ+6DzSLAkI9rcug2zBI3CklMLjXBlpOT49ukSRNYFvnqEgZDORslHVzJxhBgWVmQawTaREVXTeDvdLcJ5EULaML/0fdmPqDA5GIquTBWf5YVi/PPZdxBXNBYBLRZJnDvx9XVtaRhw4Y3nJ2db1dWVmaLRCIhSZJNCwoKwrOysoIVCgWfTjLwfDM4h2JyqUmw2dnZPsHBwak1WS7a69cWkxirprieNSKALBCwWMDJ09fP759O4eGr5s6de6p79+5wBCxDlwjB27ywsNBt165dLdetWzciOzv7M4VC4YEsHDNYMbZILuxN7JKSEu+AgIA0w8nFGlUV99naEEDEIBKJ5O3atUs8fvz4Am9v7yx944Ab00lJST3HjBmzqaioqBksq4CcWP7YIrmwB5Hxlgt7fcAtYQR0IQDkwuPxpH369Jk/b968TREREdVc7UmSFDo4ODhR9cs0LxLu3r3b/8svv9yTmZkZoVCw7qWvhVzYe/EbqhWcOy3C5GKgCGtPdwzsqPUWR/ss1CYu2bNnz5UrVqz4KiwsrMr02LJlS9v4+PjovLy8jgqFwk0gECj5fH5e8+bNf1q3bt337du3L0IIrFy5ssm6devOZmdnB7GMCuuWiynqhcmFZeni5mwPAfoJkY+Pz99LlizpOnHixJcw0uTkZPHs2bNj79+//6/Kykof+qkRbODy+Xy5u7v7jUmTJsUsW7bsHOzHwBJp9OjRvXbt2nUUAqCxGFKEdXIxRZqYXExBD9e1CwRom7iKNWvWjJ42bdoeIIl9+/aJtm3bFn3q1KmvIBwidb9HffSMTobQjWU+n/9y6dKl/ebPn38NkdKkSZOOPnz4sCe9vIm+MJhc2D4t0nY8aKKQtHTRFAPRLuagWQepKWP25Vtz92FJ5Obm9uTXX39tivZZpk+fPmDjxo2HCIJQHzOjPiFLh9qfUTcMJ0N+fn4phw8f7tmpU6cS+FtCQsKgqVOn7pfL5RCitYqUTAASk0tN4DFxoqM7MEF8V43Ys5yzxkxQltqoyihWr3EdM42gKQsC4iVbNMYPcpRr0qTJlkePHk1GY2/Xrt2RW7duva9JdLpiEIlEIuW7777b79ixY6ehjR07doinTp2aIZVK/Vg6lqbI5etnDg5mFCND4XNuIjIhFxA2CLRBgwY3O3XqFOPs7FyMxqsveDMTXPh8fhUuTNvTDHKt75hRX1BsJv2EMtraUSqVJmkWW31jOgbNctowd3JycigpKeFnZmZ2vXjx4mLqVOa1R5hGX9p7TJGF6rPPPpv4008/bYNSp0+f9hg8eHCqVCqtC/ook8kYDTc0NDQ6JSXlGyi8b98+flRU1I3S0tLWjCrrL4Qtl5owYnJxEYTN5/PJqKio97du3XpMP+a4hK0gkJ6eLu7Vq9eF9PT0DpZcGvF4PMXSpUuHxMTEJAGW27ZtCx4/fvwtBwcHZ6b9ABJ68803t6WlpY2HNsDJzsvL67eioqKuLEVcxORiKrlAfSCXjz766MNffvnloOXTKpjj/Wgr098M46DBfevWLZdBgwZdyMzMfIuaoGZ44OtNQujIr7766oPFixcfpZHLTQcHBxcgBiau/FAuJCQk4d69exNp5HKhqKioC0uDwORiKrkglvf19X0xceLE0QKB4DFc1aBIR72koS9tWBJcVTNKpZK15aQp/dS2/NHWnjHLJCBvY3BjExv0fOiLTCZTiUQiQVJS0pRLly5Ng/w/ltp70bYsunbtmnPPnj3vV1RUNNC3BKaNw6F169YxN2/eXI6WRePGjbstkUhCWBoLJpealJaKRHeXSbAo2NilEqTBri5qlrWJr3dy2ZkBoy+pm168ICuSAUnm0PPQUTCkpyNJBwHsyTBdijDpk74yVJfJwMDA7dnZ2eolDXzefvvtxKtXr36I/FRo4SarjqKhnwKBAIVrJUeOHNlv9+7dJ6H+559/7rRly5anlZWVddAtaiYWUA39tXNy0TMhDSEXAJmuq/SjQH0KY2vf21M6M4OIhYUXADomdnd3f/z333+3CQgIKAf9mTlzZvcNGzYcJ0nSGS3R6HsnsMcCH0Q+LVq0OLV+/frI9957rxgc6VatWjVuwYIFW0mSVPvIsPCxc3LRg6Ch5IIIxiCFY0GKdtsEC5PV6rCDA4RXfijKhQsXTlu8ePFWytOWN2TIkBlHjhz5hiRJR21+LhTZkO7u7tmLFy8eMGPGDNgEdjhy5IjzpEmTknNzc+G6gDqDIgtLI0wubC2LrE5JcYeNRgBZqLXxEoFlDVgWYImIRKLsNWvWhE2cODEHBgPHyYcPH5598ODBWXK53E8mk6kd4pAlIhAIJN7e3vf27NkztmfPnvcoC4c/cuTID/fu3buHym/Olt8OJhdMLkbPMXYr2pQVYpnBAMm98847icnJyZ8QBFF1cfHevXuuS5YsmXrq1KnRRUVFbwARNWrU6OqYMWMWxcTEnCcIQomEt2nTpnbz5s37UyKRqJdTLH4wuWByYVGdcFPVEDA3xVAWlLx79+5bzp8/H00QhHr/hbJIiPPnzztmZ2c7eXl5Kf38/CroN6ehzK+//tp53LhxmwoLC9uZwQrD5FLTfKA70cHRgFHnoWaacOZWXDN1GzfLMgIUwaiaNm26IzY2dsknn3ySoe8R4DA3duzYXocPH4ZgUU1h6WSOeC5xcXEtzJq3SN9Aad9b7tiWYaeYeOgybAoXwwiYDQHKDYJ0cXF52bZt2/Vvv/32kaFDhz7t2LFjqYODgzoK1NOnTx3v3Lnj/f3337dIT0+feffu3T4qlUqAOsXSCRF9jCWYXGoQOZALRP+XSCQGJkUzmx7hhjEC1RBAJzvwR8jRDE504JPj5+dXHhIS8tjHxyersrJSmJWV1eT+/ftBlZWVEJFB7ZtDP6pmm1wIgiiOjY01b8ZFA3SBk5YLpHOVSqU+xoJf08mC5h0ONQAEod6tpx8HIsctTSxRn9Az6O1pO4p81Xx193D1LVuV0oFH8NTf6boRy9J9EwPUwfqK4qXqK5lRN7fNn3HRABXhJLmgdK4wDjY2veiTlO5FiXCiv1E0iYn+O/2NpQ1jfX2lt6XNURX1A9pG/dQkLANki4vqRcA2qAnpN7Zc9Agc7blAyEBjLRf0CLp1QScS6v+wVwxukTKhUChxdnYuF4vF5a6urqVOTk5SsVhcKRQKy/l8fimfzy8nCEJCEEQFQRBwtx6OIJUQfBn5KfD5fKFcLhcSBCFyIB3EpAPprFKpXOVyuYtKpXKpqKhwlEgkTmVlZa7wTyaTucjlcigDAZ0h2BABhKJJqEhx9BGX3nmEC9gsAqA3lJ4U//vf/8bLIl2SJknSzdPT815paWkDU8gFEYtAICDd3Nwq3NzcXgoEgmyCIB4FBAT807BhwydBQUFpbdu2fRkcHFwsFAor6tSpo6pfvz74IwDpAPmo/xl76xoIgxon/ATmgJ/83Nxcfn5+vuPt27fdHz586P3gwYMm6enpzcE/QiKRBCkUigYVFRUBpaWlTlKplIeXRxbkBSs0ZtASniTJl9u3bw8ZN25cngUR0/mo15dFtQwuHNl5e3ufLC4ufpcek/Q1y4NwUO9Z0D9isVhKEESuh4fHnTZt2tzp1q3bjc6dOz8ICQnJ8fPzK4RdfM1UD1wQAr0PFCEJy8rKPO7fv+9/+fLlZufOnWt548aNtgUFBW3kcnk9mUwmhtvHdEsH7evQTGRWlpSv41PLCsI1gVm4P3T50i102HOpW7fu3R9//LFDREREpYW7pfVxnNtzgV4OGzZs9MGDB7erVCo+ApPuUk1tXpECgaCsbt26VyIiIs6Fh4dfdHJy+tvBwaFozJgxkPXO5JtgcKHMwcEBjg5F8LO8vNzRxcVFWFRUBNYEXyaT8UQikdoVR6VSycViMdzOVjo7O8PSSUodScrp3pnGCh1Id9GiRYLAwEB3uVze8Pr162//9ttv72VkZHRXKBSe6MIxff+Ijpmxz8X1uIWApkzR/BAKhbLPP/98+MqVKw9zpcecJBdwpR42bNjWhw8fjoBJRdvUlHp7e2d06tTpqpeX16E333zzSpcuXfJ69OgBFotefzuKLMR///23R0ZGhnt6erpXWloaLEsa5OTk1Hvx4kU9uVweqFQq4Qq8C0Uqjg4ODpD3VwhkB5MYrAulUlnNbILg71QfYBkFOWvA1wH2ZtREo1Kp4DyywNnZOdfT0zPL39//eePGjbNCQkKeN2vWrLB169bFYrG4xMfHB/Z2qlzFa1KUa9euCX///XeflJSUVhKJZNj169c7Z2RkvMHj8SA6GgGWn75NaIMU0Z6uXhsEjOUKw1xAMX1pe4rKdu3anV26dOmg/v37w0uNEx9Okgsgc+jQIf+vvvoqNi0tbYy/v39+vXr1DrRp02bv9OnT01q3bl2iawJSywpww3a+efNmg7/++qvVo0eP2pSVlTVRKpVNy8rKfEtKSpxgg1WhUABxAGGoSYP6Vy2KO305xuTynOaJEH2/hLY5qyZCKhaNgs/ny8RisczDw0Pi6uoKe0MZIpHofv369e906tTpTp8+fbJCQ0PVEeN1kSiQ8OPHj90SEhIaHT9+/P2ioqIxOTk5jSEBOic0jUknMHnpRYlOLhBESyAQVLZp0+bHhISEGHriNb0NGVvAgFUxZ8kFxg7WwrFjx1rCpmu9evVgM1brUic5Odnz9OnTjVJTU1uVlpa2e/78eeuMjIz6FRUV9VUqFbzFq1I30NepmhvG2o6K2Til0WXKUgRTRWaaR+LgmMXj8UqFQuGLRo0aPQ4MDEwTCoUpbdq0uR8eHv5o+PDhRbowIUmyTmxsbMSPP/7Yu7Ky0luHLmlmTjBW5YytV5O1+dp3+mShcbyvS7drmh6v1aHta9G/q/o/9b22Z+m1pBFoGnqorqftJYLKAalA2M3AwMCHELZh/PjxVwiC4MQ+C10ROE0uujT22LFjcDmsQW5ubtfz58/3uHLlSreSkpL66mNgLU5rxmq+2eoZwP7VhEUQDo6OjhDyUeHs7JwTEhJyuWfPnsmNGzf+M7Bu3UcD338fjsoZK7XZxocbxgigZYA1IAEv8dTUVL/Vq1cPOHHixIy8vLwmEAEMlkH0IDu27BeCUqqgNzR49gKZiEQiqUAgSO/bt+/3CxcuPNC+fXuw8qrCAViDfHEfbQ8Bzh1Fa0JcUFDgER0d3ePUqVOfv3jxooVUKvVWKpVVp0jU8qnaxqU+89laxahrc5bm2asSCoUlvr6+Ge+8884P0dHRe1u1avVCmzUDS0XYqKZhocuK5bglVONGjSUt85qeZQ4Moc1KLluqlgTfoDl95MgRn61bt352+/bt8U+fPn0DTm6QVUL3f9HcJ9G8HFbTQ41cnRg0DjYL6woATX8GitsKHsQ+Pj7PWrZsuW/OnDkbBwwYUC0swOzZs9smJSX9AsGuEWmh4NlsBOJmOG406ZAeGjoJjdZfQwKF6xmL0X2gtWvQuCEyHkmSKicnp0fBwcEH1q9f/x8U15ch7hYpxgYwJna0+hSH5c+YMWMizpw5szA7O/sd+N20B1gbhRgz2hrHSNapU+fhwIEDFw8YMCAxMjJSnRrw4cOHjmPHjt186dKlz5RKZVUYAGOebhN1rFRNYPkbHBz8n2XLli2MjIxM55IsOEAu/4MD4pEeO3Zs4p49e75RKBRuLOXP5RLeFu8L2qdRqVTKfv36Le7Xr9+KGTNmqH0h4DTO3d39rkQieZN7WBs42w0sbnFBmOmByPXfz8/v+vr167tGRkZWmOlRBjfLGXKBjdmZM2dO27hx4yqSJNWnPmg/xeBR4QpVCKBlo1AohLgjZHh4+LeXLl1agNbq/fv3X3ns2LG51rS5r1u89scwSL4ikUgxYcKEORs2bFjPFfXnDLn83//935tjxoy5BhYLyvNiqxuzlhQ+Uj6wYABXgUBQvnLlyohZs2b9Bf3YuHHjiOnTp/9MeS9bsmv4WSwhADKGfTMvL68HJ06caB8WFiZhqWmTmuEMuXz33Xetpk+fnqJQKERoImDLxSTZqivTN7ypJZJy0aJFfb/66qsz8P3Bgwd7Dx06NAmWSKY/zYgW7M/YMAKkmquAjEG2CoWi4Ntvv20xb968F6w/xIgGOUMuL168cB08eHDi5cuXe/Mot0dkwRgxLrutonnRk379AE4Z6tWr9+exY8f6tmzZsowil15Dhw6FrIEWJxdL8ooln1WLymdfkegMEWpycrLr+PHjf3/8+HEblUpl4ilRLYq4Fh+teZeJbv15enoWJCQkdIuMjExFcjl8+HDPQYMGndDweanFEeBHm4CAfZGLoUD99NNPLj///PPC06dPzycIoupGNN5/YYYkOj2gl4YwED169EgaNmxY1LRp0/Lp3+3duzdi5MiRJ6mIeMwegkvVPgLa39qYXPRJBrxHZ86c2e3MmTP/SktLGw6xVGhR3fRVt+vvkeUCUemVSqUyKCgouXPnzt/v2rXrAFx20wTn0KFDEYMHDz6JLRebUBucWqS6GF9RMEUeEISpKpZJcnKy4I8//ng3ISFhQEFBwcCKiooGyKlOm7cq8tzVVBO61WPIMq221Y0Wr0N90qMtcBbKY4zKqlQqlaOjY5G3t/fRwYMH//rll1+eqFu3btXpASJpdBQN5PLBBx+crI09l9rG19jna0aDoy9F0TIUeT3Tb8RrK2dsH3TUwxkXtQGzYsWKZkePHp3cp0+f5TExMXmaoQSuX7/uGx8fP/H48eMjS0tL61KBryGIU1VzKD0I/IF+jd0aI7Kh5Y1mKhM0WI3YMkqIyufu7v68Y8eOx7/88suNXbp0eaSJ8/r1690PHDgwvG3btnfj4+OvwPcHDhzoOWzYsBOYXJhPcyQb+ImcDymylotEIhmPx4Pog4RMJnOEm/oQUwf8jGQymfrIGF4IVK4j5g9lVhKTizac1q5d+9bs2bP/4vP5kqlTpy5ct27dZm1mPNQF1/Xjx4+/+/33389LS0t7G46vUZsoEjrd45Sej4iZjGq/FD02CbovBX+jW2dCoVDZoEGDG5988snm/v377+/UqZM6oJQWy423Z8+ezhMmTDhQXl7uPXfu3I//e2S5F5OLcXJGOgbyoFKyyrp163Zw9OjRG9555507wcHBkD+ad+PGDd89e/a8//PPP0/LyclpjSwXIBczpHKFwRhALua34TlzFL1mzZqw2bNnXwXXDIjKJhQKbwwaNOjQ5s2bt3p4eBTomDSizZs3+6enpzd9+fJl8wcPHoSlpqZ2Ly0tbYTi7yIzFdW3lo1hTdMbLiJ6eHhkN2nS5PemTZte8/f3Tw0KCoKAUc/q16+v9Xbs/fv33bZt2/bh9u3bIysrKyMqKysh8h45c+bMT9etW/eLJcjF/CpsHEGYUguRC5/PL+vTp8/6vn377ggPD8/QTDpP6R5ERXRJTExsd+LEiX8/ffr0XblcbdhUs65N6Q+trgHkwtITa2iGM+SyatWqDnPnzoWIWuo+gQCVSqXKw8Mjq169eieGDRt27uOPPz7bokWLaqcd9LGhUI+//vrrGzdu3Gj66NGjhhKJpG5ZWVlQYWFhcHFxcSOlUulKP4XSWF5UczrTXCPDs3T9TZPEUFn637XVVfefmoGwFIT8SG5ubk+9vLz+dnFxyXJ1dc2oV69eblhY2IPevXs/Cg0NLawpxi7EHz5z5kx4QkLCu/n5+UOeP3/ehCAI2BBXO1qpVCpyypQpozdt2rTLEuRifhW23BPQjXOwir29ve8NGDBg1s6dO88xDQYPZD9u3LjZV65cmQcxmulLXpZeephctKnDihUrOs6fP/+y5h0XAmYeoc4fBEuAjAYNGuz29fVN+vjjjzOHDx8OezN6g1kD6Tx58kSUlpbmk5aW1vDGjRutnz592qigoKBhWVlZgFKpdFcqlWKZXCaSVkohtq6zXC53hKTh8I/aRAYKUAfnRm8u+jiQwx/lig1RCyATAISpVMA/WIsLBIIKCOwECdd4PJ5UKBSWikSiXG9v72cBAQGPW7Vqda99+/ZPOnbs+MLf3x+iyunNYACPOHv2rNfOnTsbZ2Vl9crKyopMT09vA9kJIJyCFnIjZ8yYMXb9+vU7MbkwJya0tAaCcXV1fRIVFTVg9erVqTSLmLd27dpACLdaWlrqB9a3v79/ZmRk5JPBgwdDcnr1B65ZdO3a9fNLly59o3nlQhfBGGD94dMiQ8gFWQDorU+5OavEYrGyVatWf3fs2HGXm5vbcScnp/TY2FiInK+qMgUY6o5G8jIiJSWFV1pa6lhRUeEEOYIKCwvFpaWlrpAxsby8HDIrOsrl8qrA1zweTx3xXywWKwQCgcTT01Pm5uZW5uXlVQnZG+vXry8RiURwNR6OgtEOtFHJ1qgUI2KpVNqwoqIi4tatW59dvXq1vUQiEfL5fJ4GyVVb21MYYnJhqBeoGF33IF3MZ5999s6OHTsuou9//vln2Chfd+TIEchWIYb9FGrTF5LTZ3z66adLV65c+SN6WcCe4ahRo7ZdvXp1FD2FLwtLJUwuhpKL5nEeEgLswCuVSrVV4+DgIPH29s7s2LHjtR49elzs06fP5datW6cTBKF2c7fWD5jPaWlpdS9cuND17Nmzb/32229vFxQUNCJJ0h38fyCdLJjpKI3bF5BLAAAgAElEQVRITadkmFx0aUHNtgHNJYDs1KnT3mXLln0aERGh9hn64YcfGsyaNetMaWlpU7BskYWDNt6p3yt79er1fwkJCZMbN26sDqQ9c+ZM//j4+Ht8Ph8iK1blBjdRT7ETnaHkQj85QZaMNp8WakmijtIFKRdg2QEZGAmCyGzYsOHjli1b5rRt2zY/LCzscePGjXMCAgLyXF1di6n8zybK1fDqVKhJt2fPnvmmp6fXvX79elBKSor3vXv3AjMzM9+QSqVBJEkGyGQyD7lc7kSlQFFnC6D2pNQ/6Usf9H/No2yEGyzVpk+fPmbDhg0/4WURM5kh/ROJRMWHDh0K69u37z9Q8+TJk34jR478T0FBQTe6XwsV21jdOC3Kn2L06NELtm/fvhYsGLBAhw8fvnb//v3TYZ9R28uBWe+qlcLkYii56ANZk3w0Jxs1sdTBVmFyCQQCuZOTuEIsdipxcnJ6wefz80iSfAEpPIRCYY6Li0uBt7d3iYeHR5mnp2epu7t7hY+Pj9TFxUUJx7/u7u5KlGkR9a2kpAT8GviwXCovL+cXFxcLCwsLnYuLi13z8l44l5WVe5aUlNSRSqV+crk8gMfjeZMkGVhZWeknkUg8YAmmVCoh8ZrZ7lQhy2Xq1KlVG7r79u3r+dFHH3HezwWRJeBtSg5xfbqk07YhCAcPD4+zRUVF76Gl7cCBA+cnJSUtR+SgrS5dNyG+8ZIlS2BvETKDOuzatSs4KirqNvXieO0lYURfMbnoJpcFlyHvuxGgMq6ieTpEf7tQpAR7Iei/sKEKJzgoOb1685haO5PIeqImrXrDl+oIEIQ62Rps2sHpFCgglaVAfSCG+mHJiYLIZfbs2Z+tWbPmZ+jrwYMHewwdOvQUl53okEVKx4ql0xVD9Ibs0KHDl1evXv2aUg5eo0aNLmZlZYUzlSHkGwoNDR119erV3dBGXFycYMWKFf/IZLIgZO2YOC5MLmxbLjVryKv1tM5jYOp4WdPRrtqVAYJQL0X+1wYE53nFI2qSIEkHFam+wlD1N/obC6U+oROb5vNq6h/jGaCnICKX6dOnf7phwwa1n0tiYmK3ESNGwN0i8IFh7WPACYfeZ9KWFoBx1aa1iRNR73PpBcChc9asWR+uXbv2EPz96NGjAQMHDkwlCMIL+sGEYGAcLVu2XHnnzp35iKBcXFwuVVRUdKR+N6hPWgpjctGG4PLlyztER0eDS7rFLRfUH0MmPDqO1hZzhk4i6gkNB0R64rtrs6hM1TTN+ohcpkyZ8snmzZv3wPdwcrFv376mYrFYCMfXAoFA77IMNpGRbw56BvjP1NRfdR3NSrQK6NhcWxtwGkeF6eT9+uuvg86dOzcHWVoWJBjFt99+22fevHnnoI//xa/ZlClTrhME4fzqnaIvgP8rum3RosUPaWlpUYhcvLy8zhUXF0MgejbEjcmlNsmFDQka1wab73Ije/DKAoMN3U82bNigJhdr+6Snp4t79ux5ITMzs4OlgolRp5Xy+fPnD1uxYsURZLkMGjTovlKp9IDftVme9E11+D+4UbRo0WLNnTt35iBycXV1vSKRSMKw5WJGTbSU5WLGIXC+adqyyGrJJTs727lTp06/P3v27C1LkQtFHqpu3brNv3DhwiqKCPj169e/lJubqyY5bcsizaWxQCAgO3bsOO7ixYs/QhvUnsvfUqn0DXrWUBMUCVsu9mm51KAyFjJqtJHLyZMnXVavXt0WQovCRyQSqZdFmssUWJpoGwH4GTHN+sckJo9mW5QfkzptLdzJqaio+PjChQv/4vF46isNLC0nahTOq201EgJgHy8sLByA1kC9e/eOO3PmTKy2foCVQt+kBeuHx+OVz5kz5+0VK1bcgQeCj8ykSZPug0c4kz0bBqSDyQWTCwM1MUMRRC7Tpk0btXHjRvWJxf79+7sMHz78rEqlqrpZboZHG9CkdqZF96KAAGsjxxIVKiH/5s2brUNCQnLQ0mjs2LHHCgoK2qM+0ckO+SBRIRZUY8eOXbx9+/YlyM/lX//61+IffvghhnKRqPHQgSGA1kYuzF6rzErphggvixiqjwnFELlMnjx51HfffacmlwMHDrwzfPjw0+BjY0LTFqmKNtzp+xOWOGWjlkVgeZC9e/feNnbs2MmRkZFqt4Rvv/22VWxs7G8ymayOZkoctOcCJ03h4eGXVq5cOaBr167qe0Zr1qyp88UXX9wiSbI+i8s7ayMXi+iNA9yKnjdv3hVdprOp5GWZUXD7KTqOontERkZy2s+ltlGlkxpcM5k1a1bE2rVrITyIOoLiunXrgvbu3bs6JSUlAjZ44W+U64Ic8nV369bt+40bN8ajiICwKT1q1KjlFy9enImsFpbGiMlFG5D0eC4sAY2b0YIA7F1Mmzatys/l+PHjPfr163cKx9DVrS7IAkHXLry9ve+MGzdu0DfffPME1QLH702bNr2xb9++Vnl5eQ2FQqGsVatWD0aNGnWrf//+ebRy/H79+v3r1KlTG8xwnF68bNmyFgsXLlQv22r7Y1afEkMGt3Tp0rC4uLirSqVSzfr4wy4CND8akr4sAg/dIUOGWJBcrM8GpSfpA6mAp62vr+/FQYMGTd2yZcttphvaycnJ4vj4+ElJSUmxKpXKk6VNXLqiFC1btiwEk4vG3NmxY0frqKioFGBzTC6GEwuTKUs5/ikWL17cf+HChafhKYmJiT0++uijUwanFqnxgUx6Y/gYa6sG2pilkwGQtaOj44vx48f/u2nTpj9Onz5dpotkwKv4hx9+CIiPj19z+/btYSKRSADxdM3wMZxczCgqzlgusA6dMGHCL+fOnRtKj0miSTTWGGzbDErEuEm65y94uUKqkUOHDkHGRbV249QijKF8rSC1XFK6uLjkhIaG7hw1atSPUVFRmVQIEIfz5887nT59+u3ExMRJWVlZ/eVyuRgaYekekbaOF8XExIR8/fXXeFmk6Q2+detWj02bNp1ITU3tCGyP/AfQWhcRjVVZNmZ8M2jTLvSWhe8QflRAaDIoKOj+yJEjYa9AHTLAmsnFwrDWyEAUgYO/j8zJyalELBaXg58Q3HZXKBRuSqUSLq+azSeH1jYml5okVVxcXKdnz55f3L9/f7xEIqkDZQE8evwWqyIX41+MRtVElh1SOMo/Q9KoUaP9ixYtWjhy5MgsesPWcCvaKCAsXIm+6UuPLof+j3TYuG7pD2ZFzQlMLkwAXrt2bZe1a9d+npub+55UKnXj8/nqiGvWmCaEyXjZKgNWCjK7IU2Lh4fHxTlz5vwYHR2tvgWt+dm/f3/Ehx9+iJOimSiAV7fj1en9qukoWpYi0jfzixGfFhkix+Tk5OYLFixYd+3atZ6w6aj5VjCkLdsqq/1tRt0eVoW0DHkwd87cqLFjx16q6TQD77mwrRUQq+fVkpT+MWOuoqrHEASRHxsb2youLu4541GZsr7UU5czG7orVqxosXPnzoULFiyY+Nlnn0FSqaoPnCB9/vnnPi9evOh548aNWX///fdbKK0rCJF+jwMq0eOqoN9RGbTMopdjLAgLFdTcN0F91RYPhgpYrg5gFRQUlBYeHv69q6srpHHNRfFa6d3u0qVLdGho6O/r16//A/6O07kaIVRTJqQRj9NXBfSC0pmcPXv2tIiMjCzWV8cS33OGXFavXt3+iy+++MvT0zOlQ4cOO+fMmfPLe++99xpIt27dcjl//nzHEydOtHz27FlYdnZ2z4KCgnpANmifgf6TnmOZfgXeEuAa+gzNTT9NMtEYn8rFxSWvUaNGvwcE+F/q0KHjraFDh14LDQ0t0bRU7t27J/rmm2/eP3ny5KS8vLzuM2bM+CQ+Pn4/9A8viwyVEvfKwwsGdCM0NPTA5cuXI5mk26k+CvOwJWfIZcWKFWHR0dFXqbxApI+Pz1+tWrX6Yfz48Wfu37+fHhcXpzWHz+3bt71OnDjR5cSJE20fP378Znl5eVOJRNK0srLSC+3So0lJN1XNuXtvjPppHrGj/lEOXJBcvtjFxeWRUChMbdy48aMePXrcfv/99y927twZcjdp9Trcv39/4K5du3rduXNn1JMnT97l8XgQ4xc8dKsuLu7Zs6fHJ598YrifizGDxHXMggDoCJ/PL1iyZEnX+fPnp5nlIYY0SnEVZ8gFZVxEkehgcgFoPB6vomfPnj/Vr18/vkOHDhkTJkyAZGE1uvDeuHHD8/r16+3PnDnT9969e22zsrKCFQqFK+QgUqlUYqVSKaDudNQYdY2tzTdkgWgs9dS/UnIg+Xy+is/nKwiCkELmApFIJKlTp86T1q1bXw0PDz/94YcfXm3atKnWXNCoXSDmxMRE8aFDh7xlMtmos2fPflFQUOCFiAqlYpk0adKnmzdvRulc3xk2bNhpLsfQNUSv7aksZYlDwPmiadOmRa9evTpB39zQhY85bBdOkAt04huNjIv0XXbqlAh8CMrDw8OPz5s3b3Hfvn0f6UpUT59sixYtIkJCQojCwkLepUuX+OHh4e4KhaJhZmZmyKNHj8LB2nnx4kVgUVFRgEQicaPqAvmAqVl1FQHCNGp6aNL3QhAR0SyQquRnVD4bCAIHVVRCoRBOcXIDAgIyg4KCHr/55pt/NWzY8LZQKMz4559/isvLyxXvvvuuavjw4VCBUbyUixcvNt+wYcP0pKSkYWVlZV58Ph8yCaCg4K+I7H+R6KruFh04cODtoUOHJlMxdA29d6GhPyyoKAtN2BjBvCYTmruBqmHDhn/8dwN30pgxY/42lljMhRcnyAUGpy2dK/2NT1vGwGSTuLq6Fjg7O798++23fx8+fPihLl263AgKCio0BChqU5j/9OlTQW5urujBgwfCZ8+e8TIyMgRPnjwRlJSU8KVSqaCwsJBfUVGhTu3q6OgoFAqF6tgn4MYtl8vBulJJpVIlFadDLpVKgQgVzs7OSh8fH4WHh4fSz89PERAQoGzYsKGycePGcjc3N1loaKgcyIbKMMB4Yj9//tzlypUr7Q7s3z/wz4sXu+bl5QWWl5f7KZVKF83YIPTlHyIX+t2iY8eOOX7++eeQQ1udQdIQBWUS/MkQeZi5rC5dZ4y7lv4ZNH+EQmFVeYFAUK2uQqFQH2QTxKugXLTrAerf6XJxdHRU61y7du3Khg8fXjhw4ECJmbEzqnmDwDHqCQwr6coVDdU19yM0TlMgH3Olm5vbc3d397t8Pv9+ixYtHnfu3PlZREREatOmTXN9fX3LDZk0DLts9mJZWVlOz58/D7xy5UqT5OTkRnfv3oUUrs3Ky8tbFRUVBf2XkyHXEaF5sU7Xcg6RC33PxeyDwA/gNgJmtBQ5Ty6IWLR5niJTHyaNhoMdsD1kXSwPDAx85uPjc9vZ2fmuQqG45eXlldewYcP8Vq1alTdu3LjirbfekgYGBsKlM3V6Tkt9IJ/R06dPRf/884/jgwcPnOAU7OnTp545OTk+PB6vmYODw1uFhYXtMjIyGspkMlcqB1LVUo1+koQc59AyTdcYELnMnDlz1Pr4+N2mvLIthRN+jvUiwHlyeUUg6tRAr4UBpE8wRDToJ/0IGr3ZqU0PSHKmIElSDsnhIWm8t7d3sb+//0NfX99/vL29nzs5OeXy+Xxwky9VqVSVSqUSEsrL+Xy+HPZDqHSxypycHKWTkxPh6ekJx+A8iUTC8/LyEsJSChz+ICStTCZz5PP5rgRBNCgvL/cuKSkJyM/Pb5yXl9f02bNnAWVlZeKKigqIAgf/YK8HlifVcg5rqpfmkTvdckFOhtqsF22WCxxTb9u2raFKpYK0IpzRB7amFHh209sCS4/+O4RPQL/DUoT+O/o7vQ2oLxKJXosxDH/TbBvqoxjAhowHIt7Rb01r9gl+l0qlKpVKVdq2bdvCsWPHqvNPs/Vhy5jhjDLVtCxiBlrNkNR0YoPap12th30dJQgZPq/2dV/9pPZI0DoY9llgoxceDv+FgvB/qKj+G/ykri6o/wYbw9oCOjPpHzMcdJdC5ELPW5SYmNh55MiRx+AUzcj2DdVFzuickeOt1WqUnsBWABAcvCDzIBbv+vXrd3Jt6c8ZQWseRdeqBBk+HDnl0ZcjNVkOyKpi64ibYTeritFOi6pSi8DFxWHDhmE/F0PBrKXyyEVDoXi1iqcc6MratGnzXUpKSrThDnTmGwhnyAWc6ObPnw9xSWutTzV5yCJi0BSF5lUD9D0XHfa0WS4QoHvo0KEQOIrzAbpNnwaGGlmmP5HtFug6ii7xUjffy0ePHt03ISFBfa2DC59am8iag+cCudD7pLlM0bQ2mHj4IstGM5whk7rmUA5tlguQy4cffoid6F4DHFa+nJkeVb2jX9xFFjPa0A8ODv59z549vcLCwsDFodY/nEGPa+RS65IxQwe0kcv+/fu7U+TCkbxFZhi4jTeJXlZ8Pv/FkiVLQmJiYvK5MGRMLlyQgoX6gMnFQkCr19AMctOz1B2aJVwYszCm5dfLzB/mksnwMLmwJGBraEbXsgjfLapJekymETekTxBE0dKlS3H0f67vuXBDXdjthTWSi/VMbXZlZUxrPB6veMmSJThvESYXY9THtKmGfCSmTZtWdRQNG7rYcjFGFv9z6mS6QU+/xsK0DtOeUW3jjIvaAIMN3ZiYGHVSNLaBZyogqyynh2/oWFKnVyQEi1q3bt0eGC9s6A4bNuyMfRxFsyPhqpCVhIODgP8qZjE9EDfKVgF/14yAiH7/3+mjaS8MjRFhctEm4lWrVoXOmzcPgkXVGGOFHfWwn1boVySQ5TJ16tSRGzdu3AsoHDp0qPsHH3xwBsdzYa4T9LCqQBLg+g9ObdSVE+TNDYTDoxLRqQlIvc9LpRgx0wsUk4s2MSYkJLScOHHidYIgRGZIc8lcc2ysJF2ZqesNikWLFvX68ssvLyDL5cMPP8TkYoDckZcspafgEFPRrFmzx/Xr1z8qFAqve3h4vFQoFBCmo5FEInn39u3bEfn5+XUIguBDHTMm9sPkok2ODx8+dIyKikr4888/RymVSnU8XPjUlqu8AbrG+aLwpkWBzOvVq3fw6NGjI1DGxcOHD78zaNAgO/HQZUdU6A6aUCgsrVevXtKYMWNWDBs2LA1hSn8K3Cc7e/ZsnXXr1r17+fLlfxcVFTVXqVRq/UbWDDu9UreCyUUXmFu3bnX+6quvDhYWFkYoFAp1GhHNUAtmMidZlK8RTbG67K7+fMCLwpD08PBImT9//vDo6OgnqBTkio6MjDyFl0W65UZ3s0ehPRwdHXN69+499tChQyeZSvz+/ftuffr0+S47O/sjCLXK3EJnrCCYXGoSBkmSgoEDBy5OSkqaRRCEE3rjIkFoXgy0SbJhqq1aymm7csDn82VhYWFJq1evHtO1a9dSejVsuegHW9OK5vF4+Z9//vkHq1evrnaPJy4ujte3b19XuVzuKRQKVQUFBXn9+vWrlqCeJElRWFjYquvXr0/XDI3KwnIJk4s+ccJGWHR0dOjJkyfX3bx5syOPx1OzPF4i6UPu1feIYCA8RN26de+OHDkyeuXKlSe13Zjdt2/fOx999BG+W6QHWrQxC0FURowYMW737t0/0UMcjBw5cuTx48djKisr34BwqFAegqx7eHic/PbbbxeOGDHiEXrEmTNnvGfOnHkMcqKjpT8LxGKDyyLGFhuziUEvlZycLN61a1f7e/fujb579+6nFRUVTihGrMa61vDGrahGTRBrXrCkIvApWrRokdSoUaP4mJiYm506ddKZNQD7uehXBLrl0rx58/Pfffddv4iICHWAprVr13pCLJWMjIy+6DACiAKWT9SFQtLR0fFFRETEmrFjx66OjIxUHxtNnDix6fbt21OUSiUKCs/GyxNbLtrEuWbNmuDExMR5Y8aMiZs4cWKOZhnIwRMfHx/xzz//jCwpKXlHIpG4vorf9CpJva5PTUd/mj4g6C2iX93MV6KmZZ6WY+WqiP5CobC8Tp06v9evX3//nDlzTo0YMeKpZvCg5ORk10WLFs1q2bLl2U2bNl2CUVgTuWjuv5lPCq+3DM/m8/nle/fu7TJ06NBbUOLkyZMuc+fO3XHnzp0PUXYIdEyt6TDH4/Fk06ZN+yw+Pl7tAgBhTrt27br14sWLUehpLFjmmFyqi+7Ve3n58uXto6OjU9zc3NIHDRq0ODQ09Mjs2bMLNMUMhHLt2rXGu3fvHnLw4MHOubm5bZVKZV2FQiEGpkFJ2LUFbdJ1AqWNZNgkGk3rQtPh6vX817AJ+z/SpNen9qDg+FPm6Oj43M3N7XavXr1ufvrpp7/07dv3gbZoZEeOHHFOSkp6++DBg2vz8vJaTZ8+/eP169f/HyKX4cOHn1IqlZy+Fa0ZytPSxAK4u7q6Xi4tLe2MriR+/PHHE3bv3r2FijSot0vOzs7Pt27d+tann36qfnlu27at1aRJk66pVCpHelhWvQ3pLoDJRRs2K1eufOuLL764JhaLCZlMRrq6uqaPHz9+/qpVqw5AJEltdYBoIiMjeVFRUY3/+uuvwYcOHfokLS2tpUQiEVBWTZVlg1JegpIw2b9hc6NYW1t0z00YGypDd7pCfX6VdsJBxePxFM2aNfu7V69ex7p3776rsLDw4YQJEyCRms5Y23Fxcd23bNmy7sWLF+0gHCeE7pw8efKITZs27YPn/uc//wmLjIw8o1Kp1GlJTFBslqpqXwSizJOw/wb9ZCJDljpUZVi0bdt2ya1bt2LRH5o3b37q4cOH7zE9UnZyciLbtGkz5MqVK4egjQkTJgh/+eWXxxKJpD5LL7PiZcuW4btFmoJH8VzAvIS1KuQDguyDYrH4+RtvvPHH5MmTN0+ZMuVyTUTz5MkTx7t377ru33/ANSPjiXedOnXeKi0t7fr48ePWL168CCorK/OkllCvxbLVtF5YMFG16jayQtByTsPJTQH9c3JygmyLWY0bN77t5eUFzm6pHh4eWf369Svt1q1bef369aU14MA7evRoo9jY2Fnp6em9i4qKGvB4PGfaBCBnzpxZ5f6/b98+fklJiQekepVKpQaTC6rj4gLcVP1TXl5e9Qf69/S/Ozo61piEgN4nyPtz9uzZVklJSfvkcrkXSxNSLwdRMlNMmDDho61btx6gLD7vjz766L5SqfTRFhNZW6PwEmjVqlXcnTt3FlN957m4uFyprKwMY9qGns4WLVu2jMVb0aZtqBqsTHolYWSB5cuXd4iOjr4CEejR0oauPHw+v8zX1/eBv78/LAMODRs27ELnzp1fWzZpPh7Wtjk5OY7p6emud+7c8bh48aLXgwcPvIuKivxkMlmgUCgMJAjijfLycl/IL11ZWelRUVHhqlKpnKjA26hJY7BSJzyj1usKOD1wcnIqcnR0LHRycnrB5/OfqFSqZzweL8fZ2TknODg4PywsrLh9+/albdq0gYwEQCJ6U57cu3fPdd++fZ1Pnz79QWZmZrvs7OzmBEF4gvVG9wil/DXgbtGo+Pj43UaKqlargatCs2bNzj58+LC7hclFvmLFive++OKL3+C5W7ZsaTplypSbDg4OzvA7E58VeGkGBwcn3L9/fyLUgaPrdevWnYM9RG6Si2miNmbCmPZEHbWZRP+nHbEq3N3dn9WvX/+Mu7v7H23btk3v3r17xogRI54TBGFwmgUgIIh1nJeXJ8rLy3MtKipyycnJccnLy3MrKCjwfPnypYdEIvGUSCSOCoXCUSqVCmUymVChUKhTgMDH0dFRLhAIlCKRCNKNSNzd3UtcXV2LfXx8Sv38/IAoSgMDA0uAJIODg6WQdYIJcWjCBalAHj9+7Hvu3Lk3bty40bCsrKzT48ePexQVFQWTJFkVwZ9pahGzCNOMje7evdt/5syZF16+fPmmpciFWpIp5s+fP+Cbb745Bc/duXNnvaioqFSlUumurR+aS2H0e4sWLdampaXNRpaLl5fX78XFxZ1ZspSLYmKWhXz99cLXDkTMKBKdTVsduSBBIq9JtLnm6OgoqVu37qN27dolNWzY8C8/P78cb2/vl35+fvlvvvmmJCQkRM611Au6pEKlJeH/+eefTg8fPvTOz8/3zs3NDXz27FnL1NTUIffu3WutUCjUDob0HEdIgXUpKvU9LIuqLJfk5GSfLVu2jCAIAnJLq5mSSn+iXjpSeKt/Upgjnan6mxZrUYdeEZCDqmoZRLubo24C5IMsAA1ZkXK5XMXn83kXLlz4+Pnz5+3QM1malHrnHpwV9OvXb+qxY8e2QmG4rtKlS5eU/Pz8lmgfT18jsN/Vvn37CSkpKdugLCxJR48efbeyshIsTUbWj55nFMXExIR8/bX5I9HpG6tankwKWaIME8uFUsDX/AHQFXhadkb1coTP56tEIlGln5/f87Zt295s1659cnh4x4vBwcE5Li4ukI2xgguEA16bmZmZLqmpqQ1u3brV7sqVK++kpqZ2AUIpLy93BKdCyOUMew5gLdEnFP3kSZ9pro1cwIkO3P8NDLnApt4wSvwoFArViciYbp6yqbNIr3x9ff+Tl5c3HLXdpUuX9eBpCwnMGPZLOXfu3C6rVq26Am1s377dbfLkKU/lcpm7ttNNI8aAyUUbaEzJhU4wukxPdGypsWlKAtmQJFkpEAikQqEQfpZBnmmSJGHjuNLV1bUcLB5/f/8sHx+f3MDAwGJPT88yWNp4eHiUuLi4SIRCoVwsFitcXV3VzlAqlUo9OeCESqFQ8BQKhQic/QoLC91fvnzpnp+f7/zs2bM6BQUF/i9fvgyEn0VFRe4ymcxJKpXCESTke3ZRKpVOMplMDMnJ4PYsIhD6BjC6a4XW55q/6zvhQuRCzxV96NChiMGDB8P9GM6mFqEth6teLJayWJCuQh/EYvGL69evh7Ro0UIdAHvBggXB69evv1BRURGozZLScCFQde3ade2MGTNiIiMjZWCdzpo1a+6GDRu+AaOQ0iUj+KRaFZY3dE3rDptvIJN6Ygq50E9cKDO+qi/6Jpwua4habkHqV18HZmsAAA0ESURBVLCClCRJKvl8PuyTwAYt/IO/qfGjSAz+DxuocK0e/gkoklCnZ9VlJeryvdEHpi5i/d/AXw8Qjchl+vTpn27YsOEXKAtJ0YYOHcr5i4tVAZr0AWOG72nkpho6dOiyxMTEONADkP/kyZN779y58xepVOoN5eiHEWjpDroTFBT0x5IlS0YiHxfw7I2Njb1YWlraAuksE13Vtyxi97TINDA5Qy7otMjySzXTjttMg9+ytc1LLobiqLe8EYmD9LZpFOD0l5dYLC6aP39+l7i4uFSKFIgNGzZ0XbFixZLnz5+/pVKpXGkpe1VisfhpUFDQyUuXLn3h5eVVBHVgU37GjBnTz50796226yxGdfJVJWy5aAMP5y0yQaUYVtW2LOKs5WIenmCIVPVidHKB5VhwcPClr7/+ul9kZGQxbTnE++mnn8J37tz5aWZmZgc4tezateuxkSNH7uzdu3c2rRwxZsyY937++WfIz121/DWqY69XwuSCyUVDeS2U4oZmuVQF6MbxXPRPa/rSlXI9UIFj58GDByNbt26dS2+BWiqr91C03UKPiYkZtXr16tVKpdIP5XvW3wPGJfCGLvfIhUOvScZ6ZHhBTC6GY0aRRFVF2ukc6ebm9vvEiROXRkZGnq8phSoQTmZmpmf//v1HP3jwIFqlUvkxPb42sMeYXLS9t/GyyEA1MqI4IpepU6d+vGnTpqqLizi1iOFgok1ePp9f0aBBg/3+/v6HR40a9TAiIiI3ICBAUlpaynv8+LHH4cOHgw4fPtymrKxscn5+flPY6GfJG1dbp4vi4uJaxMXFPTd8ROzXMGlDl833PefIhc3BsS83o1rE5GIUbFor0Zw40WkhKRAI5G5ubvkeHh6wcSvIz8/3qaio8IB0OfSDCjMeoxfGxcWF2AS5sCcqBwfOkQubg+NIW7QN3arUIlQiehz930AZafiwVNVGm7/09CPwpRkJhd5zTC7c23Nhljfc2o0ZmuVSFXLh119/7TZkyBAgF07HczFw7pu1OJ046I6adBIBj2LweWEpTgvT8RRQfi7VNpmZVma7nEnLIjY7s2bNmrDZs2dfRT4CqG0LMT6bQ+FcW/S3KXgUT5kypYpckpKSug0cOBCTiwlSY8H5zYSnV0u0VhAdHQ13izC50BFdvHhx6KJFi/7SCHNgKXPSJOFyuTIoPu3OlfrlOnHixMjNmzf/B37BAbq5LD1mfUObyyRJvgTLJSYmJo9ZTfOW4ozlAiH/xo8fn+Lg4FBlniOT07wQ2H7rdHIhCEIeExPz3pIlS9RxSXbv3t131KhRR+AUw+aRsPZ1rQ4BIctJJBJlfPfdd62joqKqpY+pLblyhlwgCFCfPn22nDp1ahzEpmTplqjlcOWo4iLFQ3Fn4Nh0//79I5Ffxrhx4+bt2LFjBctu6JbD3YqeZC4VARnz+Xyyc+fOP/32229jmd70N1d/kEg4Qy7QoR07dnj+947R0X/++acT3BSl+wOYGwijdJSTnao+Evqphp+f38358+ePmj179j1UysfH53B+fv5A9XrpVXwYK/6YWyDmbt846KlYyy+XLl0aumDBgkzjWmG/FqfIBYZ37Ngxx+XLly+8evXqbIVC4ULPtKgZ1JqlRFLso2rBFjXvvaDbw7SbvLDnUvHWW2/92r9//ylxcXHqy3PwWbBgQe9Vq1b9CmEfNInF+onGgkKohUehlwbc0Hdzc8uKioqauGrVqlNMrRZLdNl0cjEDmYO79Ny5c9/au3fvwtzc3PdIknSGgEnIZZp+16O2d+otISSNZ1S7LUzfT6HHywUzGQKc+/j4/NavX7+VP/zwQzJd8eLi4jy3b99+SKFQ+FIR56ocvchXzFJlxqgxhkMJHYOlyquNHwPxMLQ8vXnN7rzWPZrVVpOe07qv1epjMkfoZXTCZCA2NeEJ2wYQAgQiLR6dNm3azrFjx3LCK7cmARkxfvNVAZJJTExsNGfOnCl5eXmfyGQyfwh1SGUGqErHYa9vWWSdIFIBHCDmjEgkKnFycjo8ffr0VbGxsam6MgWYT3K4ZYwAh8Jc6hNGVlZWnYSEhI+3bds2PCcnJxxOldRJiWxir0Df6HV/T1kuYAEovby8bn/yySeJM2fO3N60aVNOHEfWNDIzGL3GA4lrso4AE5OP9Yca2yBYMqmpqcL4+HjvgoKCjpmZmUNu374dVllZCZHg+QRBvArFT33QiRP8Sj/Wpi+r0Hf0sJLa6mkuv+gbpfTnaRtbTUs3Jt8hXxX4Cdf0Xx2mkQqhUPikefPmN1q2bAkxcM9OnDjxeY8ePSAdiSnLDWPFg+thBKohYFXkoik72IdJSkoS79u3L+jOnTsdlUpl9/z8/C75+fmNIf0HNXGRgaN1GaVrU5h+Ma2maPp0y0lzLwj1FxGIrri49Fi49DooOj6QBSx3fHx8snx9fS86ODj8ERwc/OeYMWMyBg0aJNEWN8TW9RxbPZaWsOGIWzW5aCEbIicnx+natWv+f/75Z4MzZ860zM3Nba5UKlvI5fJGFRUV/pDAHsW01TXZmRBGTcsxTcsIWUeaxKFh/cAGLOQ/kjo5OeWIRKJMHo+X6uvrm9quXbu0AQMGZMB1fh8fnzJsmVh6YuHnGYOATZGLLgBgOZWSkiLw8fHxuX//fnBKSkrYvXv33oDkYk+fPvUoKytzUygUbkql0g1OpmA/R6lUgseqgPJc5aGcPhQhqXGjk4MGUQFRwD+VQCCAjIly2N3n8XgyCH8oFArLHBwcStzc3Ap9fX0hSVppy5YtH7Vt2/ZymzZtHjZp0gTuhlhNniVjFA/X0YeA4ZbCay2y0IS+Xtb0vV2QizYAUOR+4IjExETYyyGys7OJwsJCIi8vj+fm5sYLDQ119vX19RQIBE5yudyVJElI8SqWSqXwOx/8buAYl8pZA0QiE4lEZZAric/nl8tkMglJkmVHjhwplslkkImRbNCggapu3bpkSEgIOXz48KojX2yNmKLGuC4XEeAOudQyy3JROLhPGAFrRuAVubA8sVluzprxxX3HCNgtAtyxXOxWBHjgnEIAvxl1isNQaDC5aIHSUBA5NTlwZzACHEEAk0stCAKTVy2Ajh9pcQRo5IJV3uLo4wdiBGwYATuwXDBp2rD+4qFxGAE7IBcOo2+HXcNUbz9Cx+RiP7LGI8UIWBQBTC4WhRs/DCNgPwhgcrEfWeOR1ioC9rcgxORSqwqHH44RsF0EMLnYrmzxyDACRiHAlo2FycUo+HEljABGQB8CrJELW2ynr8PMvudWb5j1GZfiEgJYg0yXBmvkYnpXcAsYAYyALSHAGrlwnuk530FbUis8FoyAFaUWwcLCCGAErAsB1iwX6xo27i1GACNgbgQwuZgbYdw+RuA1BOxjjW5BcrEPQPFMwghgBF4hYEFysWfIMbHas/TtdeyYXKo41kozoGLeste5y3jcpqiIqXUZd9JaCkJOIpwHyFqkhftpqwiY3XIxlPkMLW+rgsHjwghYOwJmJxdrBwj3HyOAETAOAUwuxuGGa2EEMAJ6EMDkYiUqgveRdAkKL6S5qsKYXLgqGdwvjICVI2BD5ILfYFaui7j71oyAlulnQ+RizZLBfbdaBPA7TafoMLlYrVYz6biVaT7uLhOhWk0ZTC5WIyrNjlrZTLRanHHHjUWA0+Ri09PHHIMzR5vGahauZ/cIcI5cDJ0fhpa3e4ljADACdATMOIE4Ry5Y8hgBjEDNCJiRD1iFHpMLq3CavzFrUSzzI4GfwHUEMLk4ODhUeb/imcsxfcUC4ZhADOoOJheD4DKuMHbdNw43XMt4BLigc5hcjJef1pr4XcsyoLg5q0UAk4vVig53HCNQewgweYlicqk9+djmk5lonW2OHI9KHZL7f+FiMblYrUrYxyy2j1FarRLW2HFMLuaWK54d5kYYt89RBDC5cFQwTLplHbxlHb1kgre9lGFLYphc7EVjjB0nW5pm7PNxPcshwLKsMblYTnRW/SSW9c6qscCdZ4YAJhdmOOFSGAGrRaC2XgyYXDivMrWlGpwHBndQHwK1rDo2Sy5McGVSRp/8uPK9ecdi3ta5giHuB7sI2Cy5sAuTPbaGCcUepc7mmDG54DnEpj6x3hYWD+uQWqxBTC4Wgxo/CCNgXwhgcrEveTtoXP+wt9Hj8VoQAashF6s1j6224xbUQvwom0TAasjFePTx7DYeO3uqifWEbWnbAbmwDRluDyPAFAH7JizCvoevTUkwIkynDi5nOwiYQ+ux5WI7+oFHghHgFAK1Sy7moEtOwYs7gxGwXwRql1zsF3c8coyAzSOAycXmRWxfA8TGMHfkjcmFC7LAM4ILUsB9YBkBTC4sA2r7zVkjE1pjn61fk0wiFywy61cAPAKMgLkQMIlczNUp3C6XEeDyK4XLfeOyTNnrG10CmFzYwxW3hBHACNAQwOSC1QEjgBEwCwKYXMwCK24UI4AR+H9QAYNi+hnFjwAAAABJRU5ErkJggg==;" vertex="1" parent="1">
          <mxGeometry x="580.5" y="77" width="219" height="219" as="geometry" />
        </mxCell>
        <mxCell id="-UijNQ77xzfrEZaJvv9a-21" value="" style="shape=image;verticalLabelPosition=bottom;labelBackgroundColor=default;verticalAlign=top;aspect=fixed;imageAspect=0;image=https://cdn-icons-png.flaticon.com/512/6295/6295407.png;" vertex="1" parent="1">
          <mxGeometry x="889" y="100" width="162" height="162" as="geometry" />
        </mxCell>
      </root>
    </mxGraphModel>
  </diagram>
</mxfile>
